<?xml version="1.0" standalone="no"?><!DOCTYPE svg PUBLIC "-//W3C//DTD SVG 1.1//EN" "http://www.w3.org/Graphics/SVG/1.1/DTD/svg11.dtd"><svg t="1760754024592" class="icon" viewBox="0 0 1024 1024" version="1.1" xmlns="http://www.w3.org/2000/svg" p-id="14779" xmlns:xlink="http://www.w3.org/1999/xlink" width="200" height="200"><path d="M928 947.2c-34.133333-145.066667-132.266667-256-264.533333-302.933333 102.4-55.466667 170.666667-162.133333 170.666666-281.6C834.133333 187.733333 689.066667 42.666667 514.133333 42.666667S194.133333 183.466667 194.133333 358.4c0 123.733333 68.266667 230.4 170.666667 281.6-132.266667 46.933333-230.4 162.133333-264.533333 302.933333-4.266667 17.066667 8.533333 34.133333 25.6 38.4 17.066667 4.266667 34.133333-8.533333 38.4-25.6 38.4-166.4 179.2-281.6 349.866666-281.6 170.666667 0 311.466667 115.2 349.866667 281.6 4.266667 17.066667 17.066667 25.6 34.133333 25.6h8.533334c12.8 0 25.6-17.066667 21.333333-34.133333zM258.133333 358.4c0-140.8 115.2-256 256-256s256 115.2 256 256-115.2 256-256 256-256-115.2-256-256z" p-id="14780"></path><path d="M608 499.2c8.533333-12.8 8.533333-25.6-4.266667-38.4-12.8-8.533333-25.6-8.533333-38.4 4.266667-25.6 34.133333-81.066667 34.133333-106.666666 0-8.533333-12.8-25.6-12.8-38.4-4.266667-12.8 8.533333-12.8 25.6-4.266667 38.4 21.333333 29.866667 55.466667 42.666667 93.866667 42.666667s72.533333-12.8 98.133333-42.666667z" p-id="14781"></path></svg>