<?xml version="1.0" standalone="no"?><!DOCTYPE svg PUBLIC "-//W3C//DTD SVG 1.1//EN" "http://www.w3.org/Graphics/SVG/1.1/DTD/svg11.dtd"><svg t="1760757433361" class="icon" viewBox="0 0 1756 1024" version="1.1" xmlns="http://www.w3.org/2000/svg" p-id="33053" xmlns:xlink="http://www.w3.org/1999/xlink" width="342.96875" height="200"><path d="M1288.254171 251.8784c-4.794514-4.626286-12.662857-8.625371-21.845943-14.1824L926.624914 40.714971c-2.940343-1.790171-9.978514-6.058057-17.749943-7.8976-17.322057-6.818743-53.904457 18.7648-71.230171 29.783771l-297.512229 181.482057c-7.008914 4.458057-13.557029 8.159086-18.616686 12.008229-2.6368 1.424457-4.7232 3.503543-6.352457 6.0032-1.808457 2.314971-3.002514 4.8128-3.428571 7.637943-3.0208 9.938286-2.400914 21.666743-2.357029 25.788343l-0.0256 380.527543c0 8.672914-0.305371 15.6672 0.557714 21.012114 0.181029 2.404571 0.958171 4.560457 2.212571 6.560914 0.045714 0.073143 0.093257 0.142629 0.1408 0.213943 4.527543 6.986971 14.952229 12.088686 26.624 19.152457l320.287086 185.678629c11.677257 7.0656 26.486857 16.877714 39.0272 19.909486 0.528457 0.144457 1.067886 0.263314 1.618286 0.354743 5.5168 1.086171 10.530743 0.727771 14.559086-1.918171 11.3408-3.902171 23.8976-12.266057 33.985829-18.680686l319.882971-194.901943c15.965257-10.152229 29.569829-16.389486 28.507429-29.379657 0.853943-6.652343 0.544914-14.688914 0.544914-23.350857l0.054857-364.4672C1297.354971 278.306743 1298.6624 259.296914 1288.254171 251.8784zM895.021714 77.408914c2.044343-1.300114 4.010057-2.541714 5.888-3.744914 1.621943 0.925257 3.309714 1.905371 5.065143 2.967771l330.002286 191.310629c-0.327314 0.208457-0.6528 0.416914-0.983771 0.6272L902.4128 471.204571c-1.000229-0.590629-2.026057-1.199543-3.092114-1.845029l-331.849143-192.382171L895.021714 77.408914zM559.537371 687.0784c-3.324343-2.011429-6.504229-3.984457-9.550629-5.787429l0 0 0.817371-366.087314 327.866514 190.072686c1.376914 0.833829 2.686171 1.634743 3.946057 2.404571-0.144457 4.904229-0.0128 10.280229-0.0128 15.9232l0 350.848c-1.6-0.949029-3.152457-1.874286-4.637257-2.770286L559.537371 687.0784zM924.074057 873.579886 924.074057 523.602286c0-6.030629 0.146286-11.754057-0.049371-16.923429 3.134171-1.709714 6.683429-3.6864 10.7392-5.946514l320.5632-194.998857c0.1664-0.106057 0.329143-0.208457 0.495543-0.312686 0.005486 0.9472 0.009143 1.883429 0.009143 2.7904l0 352.490057c0 3.644343-0.054857 7.177143-0.054857 10.545371-2.527086 1.596343-5.143771 3.293257-7.862857 5.023086L924.074057 873.579886z" fill="#272636" p-id="33054"></path></svg>