<?xml version="1.0" standalone="no"?><!DOCTYPE svg PUBLIC "-//W3C//DTD SVG 1.1//EN" "http://www.w3.org/Graphics/SVG/1.1/DTD/svg11.dtd"><svg t="1760760194291" class="icon" viewBox="0 0 1024 1024" version="1.1" xmlns="http://www.w3.org/2000/svg" p-id="1356" xmlns:xlink="http://www.w3.org/1999/xlink" width="200" height="200"><path d="M413.866667 119.466667c-10.666667 10.666667-32 42.666667-61.866667 96l-256 452.266666c-29.866667 53.333333-46.933333 85.333333-49.066667 100.266667-6.4 36.266667-2.133333 70.4 17.066667 102.4s44.8 53.333333 81.066667 64c14.933333 4.266667 51.2 6.4 113.066666 6.4H768c59.733333 0 98.133333-2.133333 113.066667-6.4 34.133333-10.666667 61.866667-32 81.066666-64 19.2-32 23.466667-66.133333 17.066667-102.4-2.133333-14.933333-19.2-49.066667-49.066667-100.266667l-256-452.266666c-29.866667-53.333333-51.2-85.333333-61.866666-96-27.733333-25.6-59.733333-38.4-98.133334-38.4-38.4 0-72.533333 12.8-100.266666 38.4zM170.666667 710.4L426.666667 256c25.6-44.8 40.533333-70.4 44.8-74.666667 25.6-23.466667 53.333333-23.466667 78.933333 0 4.266667 4.266667 19.2 29.866667 44.8 74.666667l256 452.266667c25.6 44.8 38.4 70.4 40.533333 76.8 6.4 34.133333-6.4 57.6-40.533333 68.266666-6.4 2.133333-34.133333 2.133333-85.333333 2.133334H256c-51.2 0-78.933333 0-85.333333-2.133334-34.133333-10.666667-46.933333-34.133333-40.533334-68.266666 0-4.266667 14.933333-29.866667 40.533334-74.666667z m298.666666-136.533333v-213.333334c0-23.466667 19.2-42.666667 42.666667-42.666666s42.666667 19.2 42.666667 42.666666v213.333334c0 23.466667-19.2 42.666667-42.666667 42.666666s-42.666667-19.2-42.666667-42.666666z m42.666667 209.066666c29.866667 0 53.333333-23.466667 53.333333-53.333333s-23.466667-53.333333-53.333333-53.333333-53.333333 23.466667-53.333333 53.333333 23.466667 53.333333 53.333333 53.333333z" p-id="1357"></path></svg>