<?xml version="1.0" standalone="no"?><!DOCTYPE svg PUBLIC "-//W3C//DTD SVG 1.1//EN" "http://www.w3.org/Graphics/SVG/1.1/DTD/svg11.dtd"><svg t="1760753988473" class="icon" viewBox="0 0 1024 1024" version="1.1" xmlns="http://www.w3.org/2000/svg" p-id="13455" xmlns:xlink="http://www.w3.org/1999/xlink" width="200" height="200"><path d="M993.779876 30.17746L541.345518 0.014221 30.220124 511.153837c-40.288758 40.302979-40.288758 105.862871 0 146.151628l336.431747 336.431748c19.511534 19.511534 45.465287 30.262787 73.068704 30.262787s53.55717-10.751253 73.082925-30.262787L1023.928894 482.597597 993.779876 30.17746zM478.786307 959.720019c-20.876772 20.84833-57.268912 20.84833-78.131464 0L64.223096 623.302493a55.320603 55.320603 0 0 1 0-78.131463L559.932671 49.461454l388.652122 25.91109 25.896868 388.652121-495.695354 495.695354z" fill="#231815" p-id="13456"></path><path d="M693.270967 191.332491c-76.837331 0-139.353878 62.516547-139.353878 139.353878s62.516547 139.353878 139.353878 139.353878 139.353878-62.516547 139.353878-139.353878-62.516547-139.353878-139.353878-139.353878z m0 230.611541a91.34299 91.34299 0 0 1-91.257662-91.257663 91.34299 91.34299 0 0 1 91.257662-91.257663 91.357211 91.357211 0 0 1 91.257663 91.257663 91.371433 91.371433 0 0 1-91.257663 91.257663z" fill="#231815" p-id="13457"></path></svg>