<?xml version="1.0" standalone="no"?><!DOCTYPE svg PUBLIC "-//W3C//DTD SVG 1.1//EN" "http://www.w3.org/Graphics/SVG/1.1/DTD/svg11.dtd"><svg t="1760759399477" class="icon" viewBox="0 0 1024 1024" version="1.1" xmlns="http://www.w3.org/2000/svg" p-id="1619" xmlns:xlink="http://www.w3.org/1999/xlink" width="200" height="200"><path d="M821.333333 426.666667c0-81.408-0.085333-139.093333-6.314666-182.741334-6.058667-42.581333-17.365333-67.2-36.608-85.333333-19.456-18.389333-46.250667-29.44-92.245334-35.242667-46.72-5.973333-108.202667-6.016-194.261333-6.016h-45.141333c-86.058667 0-147.541333 0.085333-194.261334 5.973334-45.994667 5.845333-72.789333 16.896-92.245333 35.285333-19.2 18.133333-30.549333 42.752-36.650667 85.333333C117.418667 287.573333 117.333333 345.258667 117.333333 426.666667v170.666666c0 81.408 0.085333 139.093333 6.272 182.741334 6.101333 42.581333 17.450667 67.2 36.650667 85.333333 19.456 18.389333 46.250667 29.44 92.245333 35.242667 46.72 5.973333 108.202667 6.016 194.261334 6.016a32 32 0 0 1 0 64c-84.352 0-150.613333 0.085333-202.325334-6.485334-52.48-6.656-94.72-20.650667-128.128-52.224-33.706667-31.829333-48.896-72.448-56.064-122.837333-6.997333-49.237333-6.912-112.298667-6.912-191.786667v-170.666666c0-79.488-0.085333-142.506667 6.912-191.786667 7.168-50.346667 22.314667-91.008 56.064-122.837333 33.450667-31.573333 75.690667-45.568 128.128-52.224C296.106667 53.333333 362.410667 53.333333 446.72 53.333333h45.141333c84.352 0 150.613333-0.085333 202.325334 6.485334 52.48 6.656 94.72 20.650667 128.128 52.224 33.706667 31.829333 48.896 72.448 56.064 122.837333 6.997333 49.237333 6.912 112.298667 6.912 191.786667a32 32 0 0 1-64 0z" fill="#101010" p-id="1620"></path><path d="M640 266.666667a32 32 0 0 1 0 64H298.666667a32 32 0 0 1 0-64h341.333333zM554.666667 480a32 32 0 0 1 0 64H298.666667a32 32 0 0 1 0-64h256zM570.752 920.874667c90.368-135.125333 301.184-143.786667 394.752 0.384a32 32 0 1 1-53.674667 34.816c-66.986667-103.125333-221.44-98.986667-287.914666 0.384a32 32 0 1 1-53.162667-35.584z m250.581333-283.904c0-26.709333-22.784-50.304-53.333333-50.304s-53.333333 23.594667-53.333333 50.304c0 26.666667 22.784 50.261333 53.333333 50.261333s53.333333-23.594667 53.333333-50.261333z m64 0c0 64.170667-53.632 114.261333-117.333333 114.261333s-117.333333-50.090667-117.333333-114.261333c0-64.213333 53.632-114.304 117.333333-114.304s117.333333 50.090667 117.333333 114.304z" fill="#101010" p-id="1621"></path></svg>