<?xml version="1.0" standalone="no"?><!DOCTYPE svg PUBLIC "-//W3C//DTD SVG 1.1//EN" "http://www.w3.org/Graphics/SVG/1.1/DTD/svg11.dtd"><svg t="1760757017888" class="icon" viewBox="0 0 1024 1024" version="1.1" xmlns="http://www.w3.org/2000/svg" p-id="30580" xmlns:xlink="http://www.w3.org/1999/xlink" width="200" height="200"><path d="M917.38624 196.54656l-35.0976 0c17.79712-30.17728 25.61024-58.9568 23.11168-85.6576-2.06848-22.34368-12.66176-54.30272-51.46624-79.7696C821.76 9.95328 780.38528 4.7616 734.47936 16.2304c-74.43968 18.688-162.53952 82.944-220.46208 160.59392C456.05376 99.1744 368.0256 34.9184 293.58592 16.2304c-45.94176-11.5456-87.35232-6.31808-119.52128 14.88896-38.77376 25.46688-49.36192 57.42592-51.43552 79.7696-2.49344 26.7008 5.24288 55.48032 23.11168 85.6576l-35.0976 0c-53.1456 0-96.39424 43.28448-96.39424 96.46592l0 124.24704c0 42.07104 27.7504 79.25248 67.8912 91.74016-3.8144 10.55744-5.8112 21.46816-5.8112 32.52736l0 372.76672c0 53.1456 43.29984 96.44544 96.44544 96.44544l682.57792 0c53.14048 0 96.37376-43.29984 96.37376-96.44544l0-372.76672c0-11.13088-1.92512-22.07744-5.73952-32.56832C986.07616 496.40448 1013.76 459.22304 1013.76 417.25952L1013.76 293.0432C1013.76 239.86688 970.53184 196.54656 917.38624 196.54656L917.38624 196.54656zM855.35744 942.04416l-307.02592 0 0-428.29824 307.02592 0c15.30368 0 27.71456 12.48256 27.71456 27.78624l0 372.76672C883.072 929.59744 870.66112 942.04416 855.35744 942.04416L855.35744 942.04416zM586.1376 196.54656c48.82944-56.32 112.9216-100.5824 164.9664-113.6384 27.0336-6.77376 49.14688-4.92032 65.16224 5.63712 17.01376 11.18208 20.0448 21.15072 20.72064 28.67712 2.70848 27.60704-26.89536 64.82432-40.87296 79.32416L586.1376 196.54656M945.06496 293.04832l0 124.21632c0 15.30368-12.37504 27.74528-27.67872 27.74528l-369.05472 0L548.33152 265.28256l369.05472 0C932.6848 265.28256 945.06496 277.74976 945.06496 293.04832L945.06496 293.04832zM479.6672 513.74592l0 428.29824L172.77952 942.04416c-15.33952 0-27.7504-12.44672-27.7504-27.7504l0-372.76672c0-15.29856 12.416-27.78624 27.7504-27.78624L479.6672 513.7408M191.04256 117.22752c0.67584-7.53152 3.74784-17.50016 20.68992-28.67712 15.90784-10.55744 38.02112-12.50304 65.19808-5.63712 51.75296 12.98432 115.77856 57.24672 164.7104 113.6384L231.84896 196.55168C219.33056 183.86944 188.29824 145.48992 191.04256 117.22752L191.04256 117.22752zM82.89792 293.04832c0-15.29856 12.41088-27.76576 27.74528-27.76576l369.01888 0 0 179.73248L110.64832 445.01504c-15.3344 0-27.74528-12.44672-27.74528-27.7504L82.90304 293.04832" fill="#262536" p-id="30581"></path></svg>