<?xml version="1.0" standalone="no"?><!DOCTYPE svg PUBLIC "-//W3C//DTD SVG 1.1//EN" "http://www.w3.org/Graphics/SVG/1.1/DTD/svg11.dtd"><svg t="1760757536971" class="icon" viewBox="0 0 1024 1024" version="1.1" xmlns="http://www.w3.org/2000/svg" p-id="39171" xmlns:xlink="http://www.w3.org/1999/xlink" width="200" height="200"><path d="M939.008 243.712c-14.138368 0-25.6 11.461632-25.6 25.6 0 87.519232-71.201792 158.72-158.72 158.72s-158.72-71.200768-158.72-158.72 71.201792-158.72 158.72-158.72c42.395648 0 82.253824 16.509952 112.232448 46.487552 9.997312 9.998336 26.207232 9.99936 36.20352 0 9.997312-9.998336 9.997312-26.207232 0-36.20352C863.474688 81.226752 810.759168 59.392 754.688 59.392c-115.749888 0-209.92 94.170112-209.92 209.92s94.170112 209.92 209.92 209.92 209.92-94.170112 209.92-209.92C964.608 255.173632 953.146368 243.712 939.008 243.712z" p-id="39172"></path><path d="M453.632 59.392 238.592 59.392c-98.81088 0-179.2 80.38912-179.2 179.2l0 215.04c0 14.138368 11.461632 25.6 25.6 25.6l368.64 0c14.138368 0 25.6-11.461632 25.6-25.6L479.232 84.992C479.232 70.853632 467.770368 59.392 453.632 59.392zM428.032 428.032 110.592 428.032 110.592 238.592c0-70.5792 57.4208-128 128-128l189.44 0L428.032 428.032z" p-id="39173"></path><path d="M453.632 544.768 84.992 544.768c-14.138368 0-25.6 11.461632-25.6 25.6l0 215.04c0 98.81088 80.38912 179.2 179.2 179.2l215.04 0c14.138368 0 25.6-11.461632 25.6-25.6L479.232 570.368C479.232 556.229632 467.770368 544.768 453.632 544.768zM428.032 913.408 238.592 913.408c-70.5792 0-128-57.4208-128-128L110.592 595.968l317.44 0L428.032 913.408z" p-id="39174"></path><path d="M939.008 544.768 570.368 544.768c-14.138368 0-25.6 11.461632-25.6 25.6l0 368.64c0 14.138368 11.461632 25.6 25.6 25.6l215.04 0c98.81088 0 179.2-80.38912 179.2-179.2L964.608 570.368C964.608 556.229632 953.146368 544.768 939.008 544.768zM913.408 785.408c0 70.5792-57.4208 128-128 128L595.968 913.408 595.968 595.968l317.44 0L913.408 785.408z" p-id="39175"></path></svg>