<?xml version="1.0" standalone="no"?><!DOCTYPE svg PUBLIC "-//W3C//DTD SVG 1.1//EN" "http://www.w3.org/Graphics/SVG/1.1/DTD/svg11.dtd"><svg t="1760753950777" class="icon" viewBox="0 0 1049 1024" version="1.1" xmlns="http://www.w3.org/2000/svg" p-id="12271" xmlns:xlink="http://www.w3.org/1999/xlink" width="204.8828125" height="200"><path d="M1025.371821 444.041343H718.113534V144.206608L1032.897768 45.524553a23.2434 23.2434 0 0 0 15.282279-29.20784 23.422589 23.422589 0 0 0-29.387029-15.179885L86.676378 293.317624a23.2434 23.2434 0 0 0 7.039576 45.46286 23.985755 23.985755 0 0 0 7.039575-1.075135l87.853907-27.54394v133.879934H23.422589a23.268998 23.268998 0 0 0-23.422589 23.166604c0 148.650244 46.717185 285.499599 131.524876 385.538371C226.520752 964.765169 362.371767 1024 524.384406 1024c162.038237 0 297.889252-59.183634 392.85953-171.202485 84.80769-100.038773 131.524876-236.939324 131.524876-385.589568a23.217801 23.217801 0 0 0-23.396991-23.166604z m-353.975473 0h-73.083596V181.759545l73.083596-22.91062v285.192418z m-313.862689 0v-186.817545l71.880469-22.526643v209.344188h-71.880469z m118.597654-223.986505l75.464253-23.652975v247.63948H476.131313v-223.986505z m-240.753495 75.464253l75.464254-23.652975v172.175227H235.377818v-148.522252z m646.053876 527.30263c-85.80603 101.190703-209.267392 154.665881-357.047288 154.665881S253.143148 924.012424 167.337118 822.821721c-73.313983-86.47159-115.551438-203.81492-120.082365-332.344776h954.284904c-4.556525 128.504258-46.793981 245.847588-120.107963 332.344776z" fill="#B45309" p-id="12272"></path></svg>
