<?xml version="1.0" standalone="no"?><!DOCTYPE svg PUBLIC "-//W3C//DTD SVG 1.1//EN" "http://www.w3.org/Graphics/SVG/1.1/DTD/svg11.dtd"><svg t="1760799681840" class="icon" viewBox="0 0 1024 1024" version="1.1" xmlns="http://www.w3.org/2000/svg" p-id="4559" xmlns:xlink="http://www.w3.org/1999/xlink" width="200" height="200"><path d="M511.71 224.18c52.49 0 102.81 21.75 139.92 60.47s60 91.24 60 146v245c-0.07 19 3.69 37.57 14.48 53.21l33.23 50.88H264.12l31.23-50.88a93 93 0 0 0 16.49-53.21v-245c0-54.74 22.85-107.23 60-146s87.43-60.47 139.92-60.47z m0-63.8c-145.72 0-263.85 118.23-263.85 270.24v244.93a23.64 23.64 0 0 1-4.16 13.29L187.63 771a47.54 47.54 0 0 0-3.27 47.64c7.56 15.26 22.64 24.84 39.1 24.84H800c16.46 0 31.53-9.58 39.1-24.84a47.54 47.54 0 0 0-3.28-47.64l-56.07-82.11a23.62 23.62 0 0 1-4.17-13.29v-245c0-152-118.15-270.19-263.87-270.19z m22-32.92h-44c-18.22 0-33-12.41-33-31.43s14.74-31.4 33-31.4h44c18.22 0 33 12.41 33 31.4s-14.75 31.4-33 31.43z m55 831.65H456.76c-18.2 0-35-11.39-35-30.4s16.77-33.4 35-33.4h131.93c18.22 0 35 14.41 35 33.4s-16.74 30.4-35 30.4z m0 0" p-id="4560"></path></svg>