<?xml version="1.0" standalone="no"?><!DOCTYPE svg PUBLIC "-//W3C//DTD SVG 1.1//EN" "http://www.w3.org/Graphics/SVG/1.1/DTD/svg11.dtd"><svg t="1760760203128" class="icon" viewBox="0 0 1024 1024" version="1.1" xmlns="http://www.w3.org/2000/svg" p-id="1521" xmlns:xlink="http://www.w3.org/1999/xlink" width="200" height="200"><path d="M512 960c-123.733333 0-228.266667-44.8-315.733333-132.266667C108.8 740.266667 64 635.733333 64 512c0-123.733333 44.8-228.266667 132.266667-315.733333C283.733333 108.8 388.266667 64 512 64c123.733333 0 228.266667 44.8 315.733333 132.266667 87.466667 87.466667 132.266667 192 132.266667 315.733333s-44.8 228.266667-132.266667 315.733333c-87.466667 87.466667-192 132.266667-315.733333 132.266667z m0-85.333333c100.266667 0 185.6-36.266667 256-106.666667 70.4-70.4 106.666667-155.733333 106.666667-256s-36.266667-185.6-106.666667-256c-70.4-70.4-155.733333-106.666667-256-106.666667s-185.6 36.266667-256 106.666667c-70.4 70.4-106.666667 155.733333-106.666667 256s36.266667 185.6 106.666667 256c70.4 70.4 155.733333 106.666667 256 106.666667z m0-586.666667c-29.866667 0-53.333333 23.466667-53.333333 53.333333s23.466667 53.333333 53.333333 53.333334 53.333333-23.466667 53.333333-53.333334-23.466667-53.333333-53.333333-53.333333z m42.666667 202.666667v213.333333c0 23.466667-19.2 42.666667-42.666667 42.666667s-42.666667-19.2-42.666667-42.666667V490.666667c0-23.466667 19.2-42.666667 42.666667-42.666667s42.666667 19.2 42.666667 42.666667z" p-id="1522"></path></svg>