<?xml version="1.0" standalone="no"?><!DOCTYPE svg PUBLIC "-//W3C//DTD SVG 1.1//EN" "http://www.w3.org/Graphics/SVG/1.1/DTD/svg11.dtd"><svg t="1760757420994" class="icon" viewBox="0 0 1024 1024" version="1.1" xmlns="http://www.w3.org/2000/svg" p-id="32735" xmlns:xlink="http://www.w3.org/1999/xlink" width="200" height="200"><path d="M512 928.00086c-28.928585 0-57.920817-12.672705-86.624056-41.375944L106.272168 563.999892C68.06483 516.352103 32.00086 471.327617 32.00086 384c0-141.152641 114.847359-256 256-256 53.088778 0 103.999785 16.095901 147.295471 46.591587 14.432469 10.176697 17.919312 30.144765 7.711652 44.608198-10.176697 14.432469-30.079398 17.919312-44.608198 7.711652-32.384464-22.847682-70.591802-34.911437-110.400645-34.911437-105.888563 0-192 86.111437-192 192 0 61.40766 20.288026 90.112619 59.167961 138.687596L470.751351 841.504099c15.968606 15.968606 28.863217 22.304099 41.248649 22.496761 12.703669 0.192662 24.927402-6.175514 41.375944-22.624056l316.671415-319.903669c26.016288-28.19234 57.951781-75.776482 57.951781-137.471415 0-105.888563-86.111437-192-192-192-48.064077 0-94.079398 17.855665-129.536138 50.272813l-134.079183 134.111867c-12.512727 12.512727-32.735385 12.512727-45.248112 0s-12.512727-32.735385 0-45.248112l135.104421-135.135385c48.320387-44.19191 109.6644-67.999462 173.760731-67.999462 141.152641 0 256 114.847359 256 256 0 82.368284-41.152318 144.288563-75.680151 181.696009l-317.567639 320.799892C569.951781 915.328155 540.959548 928.00086 512 928.00086z" fill="#272636" p-id="32736"></path></svg>