<?xml version="1.0" standalone="no"?><!DOCTYPE svg PUBLIC "-//W3C//DTD SVG 1.1//EN" "http://www.w3.org/Graphics/SVG/1.1/DTD/svg11.dtd"><svg t="1760799732371" class="icon" viewBox="0 0 1024 1024" version="1.1" xmlns="http://www.w3.org/2000/svg" p-id="4720" xmlns:xlink="http://www.w3.org/1999/xlink" width="200" height="200"><path d="M820.224 18.432H203.776C91.136 18.432 0 109.568 0 221.696v452.608c0 112.128 91.136 203.776 203.776 203.776h174.592L481.28 988.672c9.216 10.752 20.992 16.896 33.792 16.896 19.456 0 33.28-13.312 35.84-16.384l103.936-111.616h165.376c112.128 0 203.776-91.136 203.776-203.776V221.696c0-112.128-91.136-203.264-203.776-203.264zM957.44 668.16c0 81.92-66.56 148.992-148.992 148.992h-179.712l-113.152 121.344-112.64-121.344H215.552c-81.92 0-148.992-66.56-148.992-148.992v-435.2c0-81.92 66.56-148.992 148.992-148.992H808.96c81.92 0 148.992 66.56 148.992 148.992v435.2z" p-id="4721"></path><path d="M209.408 448c0 16.896 7.168 33.28 18.944 45.568 11.776 11.776 28.672 18.944 45.568 18.944 16.896 0 33.28-7.168 45.568-18.944 11.776-11.776 18.944-28.672 18.944-45.568 0-16.896-7.168-33.28-18.944-45.568-12.288-11.776-29.184-18.432-46.08-18.432s-33.28 7.168-45.568 18.944c-11.776 11.776-18.432 28.16-18.432 45.056z m236.544 0c0 16.896 7.168 33.28 18.944 45.568 11.776 11.776 28.672 18.944 45.568 18.944 16.896 0 33.28-7.168 45.568-18.944 11.776-11.776 18.944-28.672 18.944-45.568 0-16.896-7.168-33.28-18.944-45.568-11.776-11.776-28.672-18.944-45.568-18.944-16.896 0-33.28 7.168-45.568 18.944-11.776 12.288-18.944 28.672-18.944 45.568z m245.76 0c0 16.896 7.168 33.28 18.944 45.568 11.776 11.776 28.672 18.944 45.568 18.944 16.896 0 33.28-7.168 45.568-18.944 11.776-11.776 18.944-28.672 18.944-45.568 0-16.896-7.168-33.28-18.944-45.568-11.776-11.776-28.672-18.944-45.568-18.944-16.896 0-33.28 7.168-45.568 18.944-11.776 12.288-18.944 28.672-18.944 45.568z" p-id="4722"></path></svg>