<?xml version="1.0" standalone="no"?><!DOCTYPE svg PUBLIC "-//W3C//DTD SVG 1.1//EN" "http://www.w3.org/Graphics/SVG/1.1/DTD/svg11.dtd"><svg t="1760760213559" class="icon" viewBox="0 0 1024 1024" version="1.1" xmlns="http://www.w3.org/2000/svg" p-id="1686" xmlns:xlink="http://www.w3.org/1999/xlink" width="200" height="200"><path d="M512 497.066667c108.8 0 198.4-98.133333 198.4-217.6C710.4 162.133333 620.8 64 512 64s-198.4 98.133333-198.4 217.6 89.6 215.466667 198.4 215.466667z m0-345.6c61.866667 0 115.2 57.6 115.2 130.133333s-53.333333 130.133333-115.2 130.133333-115.2-57.6-115.2-130.133333 53.333333-130.133333 115.2-130.133333zM934.4 808.533333C896 661.333333 742.4 563.2 512 563.2c-224 0-377.6 93.866667-420.266667 234.666667-4.266667 10.666667-6.4 21.333333-6.4 34.133333 0 53.333333 40.533333 98.133333 93.866667 104.533333l21.333333 2.133334c98.133333 14.933333 202.666667 21.333333 311.466667 21.333333 117.333333 0 228.266667-8.533333 330.666667-21.333333 53.333333-6.4 96-51.2 96-104.533334 0-8.533333-2.133333-17.066667-4.266667-25.6z m-113.066667 46.933334l-21.333333 2.133333c-91.733333 12.8-187.733333 19.2-285.866667 19.2-108.8 0-215.466667-8.533333-315.733333-23.466667 2.133333 0 2.133333 2.133333 4.266667 2.133334l-8.533334-2.133334h4.266667c-12.8-4.266667-21.333333-14.933333-21.333333-27.733333 0-4.266667 0-6.4 2.133333-10.666667V810.666667c38.4-100.266667 155.733333-164.266667 332.8-164.266667 181.333333 0 298.666667 66.133333 334.933333 168.533333 0 2.133333 2.133333 6.4 2.133334 8.533334 0 14.933333-12.8 29.866667-27.733334 32z" fill="#B45309" p-id="1687"></path></svg>
