<?xml version="1.0" standalone="no"?><!DOCTYPE svg PUBLIC "-//W3C//DTD SVG 1.1//EN" "http://www.w3.org/Graphics/SVG/1.1/DTD/svg11.dtd"><svg t="1760803058750" class="icon" viewBox="0 0 1024 1024" version="1.1" xmlns="http://www.w3.org/2000/svg" p-id="14122" xmlns:xlink="http://www.w3.org/1999/xlink" width="200" height="200"><path d="M865.6 624.57c-9.18-28.43-19.25-56.56-30.19-84.36l-40.7-100.46c0-1.16 0.54-20.93 0.54-31.13 0-171.8-81.99-344.45-283.58-344.45-201.59 0-283.58 172.65-283.58 344.41 0 10.24 0.49 30.01 0.54 31.17l-40.71 100.46a1466.685 1466.685 0 0 0-30.19 84.36c-38.47 122.42-25.99 173.1-16.5 174.22 20.35 2.42 79.21-92.14 79.21-92.14 0 54.74 28.49 126.22 90.17 177.84-23.03 7.02-51.3 17.85-69.51 31.09-16.32 11.94-14.27 24.16-11.32 29.08 12.93 21.51 221.63 13.73 281.93 7.02 60.25 6.71 269 14.49 281.88-7.07 2.95-4.92 5.01-17.09-11.32-29.03-18.21-13.24-46.47-24.06-69.55-31.13 61.68-51.57 90.17-123.05 90.17-177.84 0 0 58.86 94.6 79.21 92.14 9.48-1.12 21.92-51.75-16.55-174.17" p-id="14123" fill="#ba972c"></path></svg>