<?xml version="1.0" standalone="no"?><!DOCTYPE svg PUBLIC "-//W3C//DTD SVG 1.1//EN" "http://www.w3.org/Graphics/SVG/1.1/DTD/svg11.dtd"><svg t="1760757531277" class="icon" viewBox="0 0 1024 1024" version="1.1" xmlns="http://www.w3.org/2000/svg" p-id="39012" xmlns:xlink="http://www.w3.org/1999/xlink" width="200" height="200"><path d="M107.251712 714.565632c26.304512 52.557824 61.920256 98.806784 105.859072 137.46176 45.50144 40.030208 97.961984 70.111232 155.925504 89.407488 46.557184 15.499264 94.434304 23.300096 142.785536 23.300096 11.844608 0 23.727104-0.468992 35.615744-1.406976 58.340352-4.605952 114.571264-20.278272 167.129088-46.58176 52.557824-26.304512 98.806784-61.920256 137.46176-105.859072 40.030208-45.50144 70.111232-97.961984 89.407488-155.92448 12.544-37.680128 20.10624-76.70784 22.473728-115.996672 0.850944-14.112768-9.900032-26.243072-24.0128-27.094016-14.1056-0.846848-26.243072 9.900032-27.094016 24.0128-2.100224 34.835456-8.810496 69.45792-19.946496 102.904832-17.120256 51.426304-43.790336 97.949696-79.269888 138.278912-34.2784 38.9632-75.303936 70.5536-121.935872 93.891584s-96.507904 37.241856-148.243456 41.325568c-53.547008 4.227072-106.773504-2.310144-158.199808-19.431424-51.426304-17.120256-97.949696-43.790336-138.278912-79.269888-38.9632-34.2784-70.552576-75.303936-93.891584-121.935872-23.337984-46.631936-37.241856-96.508928-41.325568-148.243456-4.227072-53.548032 2.310144-106.773504 19.431424-158.200832 17.120256-51.426304 43.790336-97.949696 79.269888-138.278912 34.2784-38.9632 75.303936-70.5536 121.935872-93.891584s96.508928-37.241856 148.243456-41.325568c53.547008-4.228096 106.773504 2.310144 158.199808 19.4304 51.426304 17.120256 97.949696 43.79136 138.278912 79.270912 31.197184 27.446272 57.653248 59.22816 78.94528 94.739456L652.877824 305.148928c-14.138368 0-25.6 11.461632-25.6 25.6s11.461632 25.6 25.6 25.6l245.76 0c14.138368 0 25.6-11.461632 25.6-25.6L924.237824 84.992c0-14.138368-11.461632-25.6-25.6-25.6s-25.6 11.461632-25.6 25.6l0 153.967616c-18.335744-24.291328-39.083008-46.695424-62.147584-66.987008-45.50144-40.030208-97.963008-70.111232-155.925504-89.408512-57.962496-19.296256-117.98528-26.662912-178.40128-21.89312-58.340352 4.604928-114.571264 20.277248-167.128064 46.58176-52.557824 26.304512-98.806784 61.920256-137.46176 105.859072-40.030208 45.50144-70.111232 97.961984-89.407488 155.925504-19.296256 57.962496-26.662912 117.98528-21.89312 178.40128C65.275904 605.77792 80.948224 662.008832 107.251712 714.565632z" p-id="39013"></path></svg>