<?xml version="1.0" standalone="no"?><!DOCTYPE svg PUBLIC "-//W3C//DTD SVG 1.1//EN" "http://www.w3.org/Graphics/SVG/1.1/DTD/svg11.dtd"><svg t="1760757445682" class="icon" viewBox="0 0 1024 1024" version="1.1" xmlns="http://www.w3.org/2000/svg" p-id="33371" xmlns:xlink="http://www.w3.org/1999/xlink" width="200" height="200"><path d="M512 51.717172C257.131313 51.717172 50.514747 258.327273 50.514747 513.202424c0 254.868687 206.616566 461.485253 461.485253 461.485253 254.868687 0 461.485253-206.616566 461.485253-461.485253C973.48396 258.327273 766.868687 51.717172 512 51.717172L512 51.717172zM763.474747 764.677172c-32.696889 32.696889-70.737455 58.353778-113.075717 76.25697-43.777293 18.519919-90.343434 27.904-138.39903 27.904-48.060768 0-94.621737-9.384081-138.397737-27.904-42.338263-17.904485-80.378828-43.560081-113.075717-76.25697s-58.353778-70.737455-76.263434-113.075717c-18.514747-43.777293-27.904-90.343434-27.904-138.39903 0-48.062061 9.389253-94.621737 27.904-138.400323 17.909657-42.338263 43.566545-80.378828 76.263434-113.075717 32.696889-32.696889 70.737455-58.353778 113.075717-76.262141 43.777293-18.514747 90.338263-27.904 138.397737-27.904 48.055596 0 94.621737 9.389253 138.39903 27.904 42.338263 17.908364 80.378828 43.565253 113.075717 76.262141 32.696889 32.691717 58.353778 70.737455 76.25697 113.075717 18.519919 43.778586 27.904 90.338263 27.904 138.400323 0 48.055596-9.384081 94.621737-27.904 138.39903C821.828525 693.939717 796.166465 731.980283 763.474747 764.677172L763.474747 764.677172zM763.474747 764.677172" fill="#272636" p-id="33372"></path><path d="M477.698586 551.886869c0 3.882667-3.201293 16.100848-9.601293 36.655838-6.398707 20.562747-14.253253 42.281374-23.563636 65.162343-11.254949 27.536808-17.454545 45.473616-18.618182 53.818182-1.162343 8.336808-4.273131 12.510384-9.307798 12.510384-5.04501 0-12.127677-7.564929-21.237657-22.692202-9.117737-15.12598-13.671434-33.745455-13.671434-55.853253 0-6.200889 0.381414-12.600889 1.162343-19.201293l2.327273-41.889616c0.773172-23.655434 1.163636-37.237657 1.163636-40.727273 0-3.490909-0.780929-5.237657-2.327273-5.237657-1.554101 0-6.309495 3.490909-14.254545 10.47402-7.954101 6.980525-14.64501 12.317737-20.072727 16-5.436768 3.69002-11.154101 5.52598-17.163636 5.52598-6.018586 0-13.963636-2.035071-23.854545-6.109091-9.890909-4.072727-18.135919-12.30998-24.727273-24.727273-6.599111-12.409535-9.890909-23.462788-9.890909-33.163636 0-3.490909 1.163636-7.173172 3.490909-11.054545 2.327273-3.872323 4.072727-5.818182 5.236364-5.818182s1.745455 1.163636 1.745455 3.490909c0 9.699556 2.327273 16.581818 6.981818 20.654545s9.791354 6.109091 15.418182 6.109091c5.617778 0 11.927273-1.936808 18.909091-5.818182 6.981818-3.873616 15.899152-9.309091 26.763636-16.290909 10.855434-6.981818 17.454545-12.017778 19.781818-15.127273 2.327273-3.099152 3.682263-6.781414 4.072727-11.054545 0.381414-4.264081 3.490909-8.526869 9.309091-12.8 5.818182-4.264081 12.991354-6.4 21.527273-6.4 8.526869 0 15.608242 3.2 21.236364 9.6 5.619071 6.4 8.436364 13.381818 8.436364 20.945455s-1.555394 13.963636-4.655838 19.2c-3.108202 5.236364-7.471838 22.109091-13.090909 50.618182-5.628121 28.509091-8.435071 49.653657-8.435071 63.418182 0 13.772283 0.872727 20.655838 2.616889 20.655838 1.746747 0 3.781818-1.255434 6.110384-3.783111 2.327273-2.517333 9.690505-12.990061 22.109091-31.418182 12.409535-18.417778 21.908687-33.83596 28.509091-46.253253 1.163636-2.328566 2.70998-3.490909 4.655838-3.490909C476.72501 547.814141 477.698586 549.178182 477.698586 551.886869zM395.080404 304.032323c0.773172 0 1.936808 0.390465 3.490909 1.163636 8.145455 3.881374 19.290505 6.309495 33.454545 7.272727 14.153697 0.972283 23.563636 2.71903 28.218182 5.236364 4.654545 2.527677 9.108687 7.372283 13.381818 14.545455 4.264081 7.182222 6.4 13.672727 6.4 19.490909 0 8.145455-2.71903 13.000404-8.145455 14.545455-1.555394 0.391758-5.337212 2.426828-11.345455 6.109091-6.017293 3.691313-11.345455 7.373576-16 11.054545-4.654545 3.69002-17.36404 11.054545-38.109091 22.109091-20.755394 11.054545-36.655838 19.2-47.709091 24.436364-11.054545 5.236364-27.254949 15.618586-48.581818 31.127273-1.554101 1.163636-2.818586 1.745455-3.781818 1.745455-0.972283 0-1.454545-0.673616-1.454545-2.036364 0-1.353697 1.936808-3.781818 5.818182-7.272727 47.709091-42.664081 76.891798-69.717333 87.563636-81.163636 10.664081-11.43596 16-19.391354 16-23.854545 0-4.454141-6.599111-15.418182-19.781818-32.872727-1.945859-2.708687-2.909091-5.326869-2.909091-7.854545C391.589495 305.295515 392.753131 304.032323 395.080404 304.032323zM566.134949 447.741414c-18.616889 4.654545-32.491313 6.981818-41.6 6.981818-9.11903 0-19.108202-4.454141-29.963636-13.381818-10.863192-8.918626-16.292202-15.318626-16.292202-19.2 0-3.872323 1.936808-6.781414 5.818182-8.727273 3.873616-1.936808 35.100444-10.082263 93.672727-24.436364 58.564525-14.345051 95.900444-21.527273 112-21.527273 16.090505 0 29.963636 4.172283 41.6 12.509091 11.636364 8.345859 17.454545 18.71903 17.454545 31.127273 0 5.436768-1.653657 9.018182-4.944162 10.763636-3.300848 1.745455-8.828121 2.618182-16.581818 2.618182-18.618182 0-48.681374 3.881374-90.181818 11.636364 11.244606 13.191758 16.872727 34.909091 16.872727 65.163636 0 5.04501-0.780929 14.355394-2.327273 27.927273-1.554101 13.582222-2.527677 25.991758-2.909091 37.236364-0.391758 11.254949-0.581818 33.746747-0.581818 67.490909 0 39.564929-6.4 66.227717-19.2 80-12.8 13.764525-21.337212 20.655838-25.601293 20.655838-4.273131 0-17.071838-7.182222-38.398707-21.527273-21.337212-14.355394-35.882667-24.926384-43.636364-31.709091-7.76404-6.790465-11.636364-11.054545-11.636364-12.798707 0-1.746747 1.935515-2.618182 5.818182-2.618182l22.690909 0.581818c18.999596 0 32.48097-1.936808 40.435071-5.818182 7.946343-3.872323 13.282263-10.181818 16-18.909091 2.70998-8.727273 5.136808-27.437253 7.272727-56.145455 2.128162-28.700444 3.201293-52.164525 3.201293-70.4 0-18.227717-0.780929-30.445899-2.327273-36.654545-1.555394-6.199596-4.273131-10.08097-8.146747-11.636364C583.779556 462.678626 574.280404 456.277333 566.134949 447.741414z" fill="#272636" p-id="33373"></path></svg>