<?xml version="1.0" standalone="no"?><!DOCTYPE svg PUBLIC "-//W3C//DTD SVG 1.1//EN" "http://www.w3.org/Graphics/SVG/1.1/DTD/svg11.dtd"><svg t="1760757494670" class="icon" viewBox="0 0 1113 1024" version="1.1" xmlns="http://www.w3.org/2000/svg" p-id="36527" xmlns:xlink="http://www.w3.org/1999/xlink" width="217.3828125" height="200"><path d="M470.894491 1023.998406c-9.502938 0-17.194497-7.691366-17.194497-17.125044l0-227.087163c0-19.32545 2.714348-54.867633 20.955963-75.892951L1012.069652 77.773684 43.527207 582.426178 360.850529 684.67387c9.051453 2.926491 13.997386 12.568138 11.069535 21.619591-2.921052 9.052813-12.568138 13.923952-21.619591 11.070895L26.991171 613.237291C4.956704 606.516696 0.637982 593.252292 0.080213 585.98094-0.50996 578.633434 1.683399 564.849551 22.672013 554.575554L1077.657328 4.875219c9.711001-5.986252 17.647341-4.663076 23.149471-1.811378 7.798991 4.042964 15.804685 13.752606 10.025137 37.184935L948.010497 871.1697c-4.105519 16.781089-14.028664 30.321415-27.325705 37.737052-11.383671 6.406459-24.372016 7.760914-36.626019 3.793968L560.435336 811.606353c-9.08817-2.789142-14.134736-12.430789-11.277599-21.482242 2.81634-9.120807 12.494704-14.20545 21.514879-11.277599l323.728149 101.094502c3.271904 1.009041 6.369742 0.694906 9.434943-1.010401 4.907857-2.714348 8.976659-8.561891 10.612611-15.176414L1071.73907 61.067389 500.73328 726.309737c-7.798991 9.051453-12.606215 29.455299-12.606215 53.439745l0 227.086075c0 9.502829-7.728276 17.162849-17.232574 17.162849z" p-id="36528"></path></svg>