<?xml version="1.0" standalone="no"?><!DOCTYPE svg PUBLIC "-//W3C//DTD SVG 1.1//EN" "http://www.w3.org/Graphics/SVG/1.1/DTD/svg11.dtd"><svg t="1760753796393" class="icon" viewBox="0 0 1024 1024" version="1.1" xmlns="http://www.w3.org/2000/svg" p-id="6588" xmlns:xlink="http://www.w3.org/1999/xlink" width="200" height="200"><path d="M840.446 681.462c13.73-1.445 23.848-14.453 21.68-28.183l-35.41-283.28v-1.446c-11.563-59.257-48.418-91.777-104.063-91.777H653.28c0-74.433-60.703-134.413-134.414-134.413s-134.413 59.98-134.413 133.69h-59.258c-28.183 0-93.945 0-112.734 82.383 0 0.723 0 1.445-0.723 2.89l-50.585 443.71v2.89c0 45.528 36.855 83.106 83.105 83.106h398.905c13.73 0 25.292-11.563 25.292-25.293s-11.562-25.293-25.292-25.293H244.257c-17.344 0-31.797-13.73-32.52-31.074l50.586-440.096c9.395-39.023 31.074-41.914 62.871-41.914h59.258v18.066c0 13.73 11.562 25.293 25.293 25.293s25.292-11.562 25.292-25.293v-18.066h168.379v18.066c0 13.73 11.562 25.293 25.293 25.293S654 359.16 654 345.428v-18.066h69.375c20.957 0 45.527 5.781 54.2 49.863l35.41 282.558c1.444 13.007 13.73 23.125 27.46 21.68zM435.037 276.054c0-46.25 37.578-83.828 83.828-83.828s83.828 37.578 83.828 83.828H435.037zM715.427 863.57a27.46 27.46 0 1 0 54.922 0 27.46 27.46 0 1 0-54.922 0zM810.818 846.227a27.46 27.46 0 1 0 54.92 0 27.46 27.46 0 1 0-54.92 0zM819.49 752.282a27.46 27.46 0 1 0 54.92 0 27.46 27.46 0 1 0-54.92 0z" fill="#B45309" p-id="6589"></path></svg>
