<?xml version="1.0" standalone="no"?><!DOCTYPE svg PUBLIC "-//W3C//DTD SVG 1.1//EN" "http://www.w3.org/Graphics/SVG/1.1/DTD/svg11.dtd"><svg t="1760768528004" class="icon" viewBox="0 0 1024 1024" version="1.1" xmlns="http://www.w3.org/2000/svg" p-id="1009" xmlns:xlink="http://www.w3.org/1999/xlink" width="200" height="200"><path d="M667.42 829.84H356.58c-36.5 0-66.18-29.68-66.18-66.18v-32.74c0-36.5 29.68-66.18 66.18-66.18h310.84c36.48 0 66.16 29.68 66.16 66.18v32.74c0 36.5-29.68 66.18-66.16 66.18z m-310.84-105.1c-3.4 0-6.18 2.78-6.18 6.18v32.74c0 3.4 2.78 6.18 6.18 6.18h310.84c3.4 0 6.16-2.78 6.16-6.18v-32.74c0-3.4-2.76-6.18-6.16-6.18z" fill="#18222B" p-id="1010"></path><path d="M987.42 386.56H36.58c-16.56 0-30-13.44-30-30s13.44-30 30-30h950.84c16.56 0 30 13.44 30 30s-13.44 30-30 30z" fill="#B58C18" p-id="1011"></path><path d="M924.38 194.16H252.24c-16.56 0-30 13.44-30 30 0 16.56 13.44 30 30 30h672.12c20.46 0 37.04 16.58 37.04 37.04v81.88c0 160.84-130.84 291.68-291.66 291.68H354.24c-161.06 0-291.64-130.58-291.64-291.64v-81.94c0-20.44 16.58-37.02 37.02-37.02h32.82c16.56 0 30-13.44 30-30 0-16.56-13.44-30-30-30h-32.8c-53.6 0-97.04 43.44-97.04 97.04v81.9c0 194.22 157.44 351.66 351.66 351.66h315.48c193.9 0 351.66-157.76 351.66-351.68v-81.9c0-53.58-43.44-97.02-97.02-97.02z" fill="#18222B" p-id="1012"></path></svg>