<?xml version="1.0" standalone="no"?><!DOCTYPE svg PUBLIC "-//W3C//DTD SVG 1.1//EN" "http://www.w3.org/Graphics/SVG/1.1/DTD/svg11.dtd"><svg t="1760777291913" class="icon" viewBox="0 0 1024 1024" version="1.1" xmlns="http://www.w3.org/2000/svg" p-id="16019" xmlns:xlink="http://www.w3.org/1999/xlink" width="200" height="200"><path d="M735.1 366.4H316.3c-15.1 0-27.4-12.3-27.4-27.4 0-15.2 12.3-27.5 27.4-27.5H735c15.1 0 27.4 12.3 27.4 27.5 0.1 15.1-12.2 27.4-27.3 27.4z m-418.8-35c-4.2 0-7.6 3.4-7.6 7.7 0 4.2 3.4 7.6 7.6 7.6H735c4.2 0 7.6-3.4 7.6-7.6 0-4.2-3.4-7.7-7.6-7.7H316.3z" fill="#845C28" p-id="16020"></path><path d="M525.8 331.4c-20.1 0-38.4-11.1-47.8-29-0.8-1.3-1.7-3.2-2.6-5.5-2.3-6-3.5-12.5-3.5-19.2 0-29.7 24.2-53.9 53.9-53.9 29.6 0 53.7 24.2 53.7 53.9 0 6.6-1.2 13.1-3.6 19.3-0.5 1.3-1.1 2.7-1.7 4l-2.6 5.9h-0.7c-9.8 15-26.9 24.5-45.1 24.5z m0-87.8c-18.8 0-34 15.3-34 34 0 4.3 0.7 8.3 2.2 12.1 0.5 1.4 1 2.3 1.4 3.1 6.1 11.7 17.7 18.7 30.4 18.7 13 0 24.7-7.3 30.4-18.9l0.6-1.3c0.2-0.5 0.4-1 0.6-1.6 1.5-3.9 2.3-8 2.3-12.1 0-18.8-15.2-34-33.9-34zM204.3 594.3L86.7 500.9c-15.9-12.6-20.9-28.9-13.3-43.5 10.5-20.2 45.4-34 85.8-22.2l90.9 26.7-6.1 10.8c-18.3 32.7-30.8 68-36.9 104.9l-2.8 16.7zM130 450.7c-20 0-34.8 7.8-38.9 15.8-3 5.9-0.3 12.2 8 18.8l91.6 72.8c6.4-29.3 16.5-57.5 30.2-84.2l-67.2-19.7c-8.5-2.4-16.5-3.5-23.7-3.5zM857.2 679v-46.6c0-7.7-0.3-15.4-0.8-23.5-4.3-60.6-25.4-118.7-61.1-168.1-10.2-14.1-21.6-27.5-33.9-39.9l-13.2-13.2 17.8-4c74.5-14.5 147.9 26.7 174.6 97.9 26.8 71.8-2 151.3-68.5 189.1l-14.9 8.3z m-68.7-278.2c8.1 9.1 15.7 18.6 22.8 28.4 37.9 52.4 60.3 114 64.8 178.3 0.6 8.6 0.9 16.8 0.9 24.9v11.3c47.3-35.6 66.2-98.2 44.9-155.2-20.9-56.1-75.2-90.8-133.4-87.7z" fill="#845C28" p-id="16021"></path><path d="M857.9 630.4l-1.5-21.5c-4.3-60.6-25.4-118.8-61.1-168.1l-12.6-17.4 21.4 1.7c42.9 3.4 80.3 31.6 95.3 71.9 15.3 41 5.1 87.5-26.2 118.3l-15.3 15.1zM825 449.5c25.3 40.7 41.8 86.2 48.6 133.5 14.1-23.6 17.2-52.7 7.3-79.2-9.7-25.7-30.5-45.5-55.9-54.3zM338.2 684.3c-2.7 0-5-2.2-5-5V445.9c0-2.7 2.2-5 5-5 2.7 0 5 2.2 5 5v233.5c0 2.7-2.2 4.9-5 4.9zM395.6 559.4c-2.7 0-5-2.2-5-5V443.8c0-2.7 2.2-5 5-5 2.7 0 5 2.2 5 5v110.6c-0.1 2.8-2.3 5-5 5z" fill="#845C28" p-id="16022"></path><path d="M802.6 773.5H257.1c-41 0-74.4-33.4-74.4-74.4v-66.7c0-18.4 1.4-36.7 4.3-54.3 0.2-1.2 0.4-2.6 0.7-4 6.5-38.9 19.7-76.4 39.1-111.1 4.2-7.5 8.7-15 13.5-22.3 23.9-36.2 54.1-67.3 89.7-92.4l2.6-1.8h394.5l2.6 1.8c15.8 11.2 31 23.9 45.2 37.9l-6.5 7.5 7-7c13.1 13.1 25.2 27.3 36 42.3 37.9 52.4 60.3 114 64.8 178.3 0.6 8.6 0.9 16.8 0.9 24.9v66.7c-0.1 41.2-33.4 74.6-74.5 74.6zM338.9 366.4c-32.5 23.3-60.1 52-82.1 85.3-4.5 6.8-8.8 13.9-12.7 20.9-18.4 32.7-30.8 68-37 105-0.3 1.3-0.4 2.4-0.6 3.4-2.7 16.7-4 33.9-4 51.3V699c0 30.1 24.5 54.6 54.6 54.6h545.6c30.1 0 54.6-24.5 54.6-54.6v-66.7c0-7.7-0.3-15.4-0.8-23.5-4.3-60.6-25.4-118.7-61.1-168.1-10.2-14.1-21.6-27.5-33.9-39.9l6.5-7.5-7 7c-12.6-12.5-26.1-23.9-40.1-34h-382z" fill="#845C28" p-id="16023"></path></svg>