<?xml version="1.0" standalone="no"?><!DOCTYPE svg PUBLIC "-//W3C//DTD SVG 1.1//EN" "http://www.w3.org/Graphics/SVG/1.1/DTD/svg11.dtd"><svg t="1760777280011" class="icon" viewBox="0 0 1024 1024" version="1.1" xmlns="http://www.w3.org/2000/svg" p-id="14935" xmlns:xlink="http://www.w3.org/1999/xlink" width="200" height="200"><path d="M1024 540.609295v-57.330563s-5.598688-48.820558-6.830399-54.643193c-3.58316-17.803827-7.390268-33.592127-11.197376-49.716348A481.487151 481.487151 0 0 0 974.171679 291.131766a506.457299 506.457299 0 0 0-100.776381-141.086933 513.399672 513.399672 0 0 0-141.646802-100.552433 660.645161 660.645161 0 0 0-88.123346-32.696337A394.371569 394.371569 0 0 0 593.460908 6.382504C587.526299 5.37474 540.497321 0.559869 539.601531 0h-55.315036s-48.932531 5.37474-54.86714 6.494478a389.780645 389.780645 0 0 0-50.612138 11.197375c-15.116457 5.710662-31.128704 8.845927-46.469109 15.004484s-28.889229 11.197376-42.885948 18.47567a514.407436 514.407436 0 0 0-142.766539 103.015855c-33.592127 33.592127-81.96479 97.753089-100.776381 145.565883a555.613778 555.613778 0 0 0-31.800547 91.146638A520.677966 520.677966 0 0 0 0 497.611372V526.276654c0 64.944779 24.7462 160.906288 47.924768 201.552761a597.044068 597.044068 0 0 0 46.021213 78.381629 614.4 614.4 0 0 0 56.882669 67.184254c35.271733 35.383707 96.969273 83.420448 147.021541 102.791908 14.668562 5.710662 28.217387 12.653034 44.789503 18.139749s31.01673 10.301586 47.924767 14.556588a488.429524 488.429524 0 0 0 109.622308 14.332641H526.276654c79.725314 0 141.870749-23.514489 199.313286-46.581083a477.232149 477.232149 0 0 0 78.381629-44.789502 465.027009 465.027009 0 0 0 66.512411-55.315036 516.646911 516.646911 0 0 0 103.015856-142.766539 444.759759 444.759759 0 0 0 33.592127-89.579005c3.135265-16.012247 7.390268-32.696337 11.197375-50.500164 1.343685-6.382504 6.046583-52.963587 6.606452-53.859377M472.081356 37.84713a10.525533 10.525533 0 0 1 10.189612-7.166321h1.007764A13.660798 13.660798 0 0 1 497.611372 44.789502c0 16.572116-5.934609 35.831602-21.498961 35.831602-2.575396 0-6.158557-2.127501-6.158556-5.038819 0-4.926845 9.293822-2.799344 9.293821-9.293821a7.054347 7.054347 0 0 0-5.150792-4.031056h-6.158557c-5.150793 0-11.197376 8.733953-11.197376 15.340405v3.023291c0 7.726189 10.413559 12.317113 18.47567 12.317114h3.135265A41.654237 41.654237 0 0 0 515.079278 63.153198c5.37474-16.236195 14.220667-31.464625 35.271733-31.464625a42.214106 42.214106 0 0 1 22.394752 5.150793c-8.621979 2.015528-31.800547 10.525533-31.800547 19.483433 0 5.934609 10.301586 11.197376 17.467906 10.189612l23.514489-3.135265h8.174084c13.436851 0 17.355932 12.317113 34.823838 12.317113h10.301586c8.845927 0 8.621979-12.317113 21.498961-12.317113 5.038819 19.035539 27.545544 31.128704 44.789502 39.63871 10.301586 5.150793 18.251722 8.06211 27.881466 13.996719 5.37474 3.247239 20.939092 17.020011 24.970147 17.020011h2.127502c16.68409 0 15.452378-11.197376 30.680809-11.197376a15.340405 15.340405 0 0 1 15.340404 13.324877v3.135266c0 5.150793-6.046583 12.205139-10.189611 12.205139h-4.143029c-2.351449 0-3.023291-0.671843-3.023292-3.023291v-1.007764c0-4.702898 8.174084-4.590924 8.174084-11.197376 0 0-0.671843-1.79158-1.007763-3.023291a14.556588 14.556588 0 0 0-5.150793-1.007764h-1.007764c-9.405796 0-14.332641 12.876982-14.332641 22.394751a16.124221 16.124221 0 0 0 16.348169 16.348169h3.135265a33.592127 33.592127 0 0 0 12.205139-5.150793c-0.671843 8.845927-8.733953 13.324877-18.363696 13.324877s-13.884746-7.726189-19.483433-9.181848a14.556588 14.556588 0 0 0-1.007764 5.150793v2.015527c0 9.517769 11.197376 16.348168 21.498961 16.348169h1.007764c6.606452 0 8.174084-2.911318 13.324877-4.031056a27.881465 27.881465 0 0 1-24.634227 14.332641 27.545544 27.545544 0 0 1-27.545544-25.64199v-12.317113c0-5.598688 2.015528-5.598688 2.015528-11.197376v-1.007764c0-3.58316-33.592127-25.64199-38.74292-28.889229-13.548824-9.069874-25.306069-19.147512-38.071077-28.441334-5.822635-4.255003-11.197376-12.765008-22.394751-11.197375a207.48737 207.48737 0 0 0-27.545544 6.382504 222.715801 222.715801 0 0 1-56.882668 9.629743H538.593767c-1.679606 6.158557-16.796063 18.139748-22.394751 21.610935a58.786222 58.786222 0 0 1-32.808311 10.189612c-44.229634 0-40.982395-36.839366-85.995844-36.839366h-8.174085c-35.831602 0-79.949262 10.077638-87.899398 35.943576-4.47895 15.004483-17.803827 23.738436-29.113177 32.360415a211.630399 211.630399 0 0 1-38.630946 22.394751c0.671843-30.792783 34.599891-64.496884 55.986878-77.373865a220.028431 220.028431 0 0 1 104.02362-27.993439h11.197375l33.592127 2.239475a33.592127 33.592127 0 0 1 15.7883-28.777255c12.541061-7.614215 31.240678 2.127501 31.240678-12.876982a6.942373 6.942373 0 0 0-5.150793-4.143029z m180.165774 266.273592C633.323565 227.194751 565.131547 190.355385 528.404155 175.126955c62.257408 0 99.992564 33.592127 130.785347 65.728594 36.95134 38.630946 67.184254 135.152324 71.887152 165.609186A301.433352 301.433352 0 0 0 694.237288 228.314489c19.147512 4.47895 51.619902 45.685293 60.465828 63.48912 33.592127 68.303991 24.410279 154.299836-0.671842 223.947512 38.071077-32.696337 56.882668-126.082449 56.882668-158.89076 11.197376 8.621979 21.610935 56.882668 21.610935 80.957026 0 82.972553-47.364899 127.87403-89.579005 156.763258 40.870421-3.359213 78.381629-33.592127 107.046911-67.184254-25.530016 117.46047-131.905085 136.83193-202.336577 159.114708 58.674248 0 98.200984 0 148.925095-13.884746-53.97135 84.876107-183.63696 67.184254-246.342263 52.851613 16.796063 36.615418 141.198907 43.22187 164.489448 37.399235-54.755167 51.507928-186.996173 22.394751-270.528595-33.592127 33.592127 54.867141 97.865063 87.115582 133.360743 100.77638-156.091416-3.58316-210.510662-121.827447-247.462001-196.849863 0 56.770694 13.772772 112.869546 71.55123 188.563805-120.819683-25.418043-147.021542-254.740295-127.762055-320.132968-16.460142 12.541061-42.997922 140.639038-43.669765 174.11919-11.197376-8.398032-22.394751-64.38491-22.394752-88.011372 0-83.980317 51.172007-150.044833 97.529142-205.359869-44.789502 7.838163-123.171132 93.274139-129.217715 114.213232h-2.015527c5.822635-69.983598 33.592127-89.579005 71.439256-127.090214 39.974631-40.422526 104.91941-65.504647 157.547075-77.485839-72.558994-18.811591-141.086933 14.220667-174.903007 37.735156 4.590924-19.819355 46.133188-51.843849 64.832805-61.137671 68.86386-34.375943 193.266703-20.939092 263.922143 14.332641C504.665719 221.260142 381.942482 212.750137 356.300492 212.750137c8.621979-11.197376 56.882668-21.498961 80.957026-21.498961 82.86058 0.223948 159.338655 53.747403 214.989612 112.869546zM179.15801 237.608311a22.394751 22.394751 0 0 0-5.038819-13.660799 14.89251 14.89251 0 0 1 13.212903 15.340405v5.150793c0 6.382504-6.382504 13.212903-9.181848 17.355932 2.68737 1.343685-0.783816 1.007764 3.135265 1.007764h5.038819c9.069874 0 15.340405-10.525533 15.340405-20.491198v-2.68737c0-7.054347-2.799344-7.726189-4.031055-12.317113a25.977911 25.977911 0 0 1 14.33264 23.514489v2.127501a27.545544 27.545544 0 0 1-23.514488 26.985675h-10.301586l-18.363696-2.127501c-1.343685 4.814872-27.657518 39.974631-32.584363 47.476873s-33.032258 39.302788-33.032258 45.349371v5.150793A215.885402 215.885402 0 0 0 102.567961 414.302898a171.879716 171.879716 0 0 1 6.942373 40.086604v33.592127c11.757244 3.135265 31.800547 33.592127 31.800546 51.172007v8.174084a69.871624 69.871624 0 0 1-20.715145 42.773975 33.592127 33.592127 0 0 0-12.876982 18.923565A152.396282 152.396282 0 0 0 104.471514 638.25041v8.174084c0 32.584363 13.436851 74.014653 39.078841 80.733078 14.556588 3.695134 48.484636 51.619902 52.067797 67.184254A109.39836 109.39836 0 0 1 148.253253 772.618917a131.905085 131.905085 0 0 1-31.464625-37.063313 229.5462 229.5462 0 0 1-26.649754-109.622307v-6.158557c0-4.926845 2.239475-27.545544 1.903554-28.553308s-17.691853-7.502242-20.603172-8.9579c-18.923565-13.100929-4.255003-40.646473-19.259486-40.646473-3.919081 0-6.046583 3.135265-6.046582 7.16632v2.127501a15.004483 15.004483 0 0 0 1.007763 5.150793 13.884746 13.884746 0 0 1-8.286058-12.317113c0-9.517769 7.614215-14.332641 17.467906-14.332641h2.015528C70.879388 529.411919 89.579005 537.47403 89.579005 548.671405v2.127502c0 3.135265-1.007764 6.158557-4.143029 6.158556h-3.471186L78.381629 548.671405h-3.58316c-3.359213 0-4.143029 4.143029-4.143029 7.278294a16.460142 16.460142 0 0 0 12.317113 14.332641H89.579005c8.06211 0 12.205139-9.965664 12.205139-18.47567v-2.015527a41.094369 41.094369 0 0 0-29.001203-36.95134 73.790705 73.790705 0 0 1-21.834882-11.197375 37.175287 37.175287 0 0 1-11.197376-21.722909v-2.015528a137.839694 137.839694 0 0 1 4.031056-22.394751h2.127501c0.671843 8.733953 10.189612 30.792783 19.37146 30.792783 4.47895 0 9.293822-7.614215 9.293822-12.317113V470.289776l-3.471187-31.688573c-0.89579-10.525533 13.660798-21.275014 13.660798-35.831602v-5.150793c0-12.988956-12.317113-16.796063-12.317113-21.498961v-3.023292c0-2.463423 10.301586-7.278294 12.541061-9.069874a125.858502 125.858502 0 0 0 10.301585-10.189612 133.024822 133.024822 0 0 0 15.564353-25.865937 261.010826 261.010826 0 0 1 13.996719-27.993439c2.015528-3.247239 17.467906-23.290541 17.467906-23.514489v-7.16632c0-13.324877-11.197376-15.452378-11.197376-27.657518v-2.015528A16.908037 16.908037 0 0 1 145.565883 225.291197h2.015528a13.100929 13.100929 0 0 1 12.317113 11.197376v2.127501a13.884746 13.884746 0 0 1-1.119738 5.038819c-10.189612 0-4.366976-9.181848-14.332641-9.181848a7.054347 7.054347 0 0 0-4.031055 5.150793c0 11.197376 12.317113 16.348168 23.514489 16.348169A15.228431 15.228431 0 0 0 179.15801 239.623838z m751.567851 139.183378c0-33.592127-11.197376-77.485839-37.175287-84.540185-16.460142-4.47895-49.940295-50.948059-53.747403-68.303992 6.942373 3.359213 16.908037 4.366976 25.865938 8.845927A136.719956 136.719956 0 0 1 886.27228 246.342264 128.209951 128.209951 0 0 1 918.1848 281.949918a221.260142 221.260142 0 0 1 26.985676 108.166648v6.158557c0 11.197376-1.567633 19.259486-2.127502 28.777255 0 7.838163 3.695134 3.58316 9.405796 5.934609 3.023291 1.343685 6.718425 2.911318 9.85369 4.478951 21.610935 11.197376 7.614215 40.646473 19.819355 40.646473H985.369054c2.351449 0 2.239475-0.783816 4.143029-2.015527v-11.197376a14.780536 14.780536 0 0 1 7.16632 11.197376v1.007763a14.332641 14.332641 0 0 1-15.452378 14.332641h-4.031055c-13.100929 0-30.680809-8.845927-30.680809-21.498961v-1.007764a5.822635 5.822635 0 0 1 5.038819-5.150793h3.135265c0 3.359213 1.679606 8.174084 5.038819 8.174085h1.119738a3.919081 3.919081 0 0 0 4.031055-4.031056v-5.150792c0-7.502242-9.517769-13.324877-17.355932-13.324877s-13.324877 11.197376-13.324877 20.491197c0 46.917004 61.473592 31.576599 61.473592 71.663204v6.158556a62.481356 62.481356 0 0 1-4.143029 17.467906c-5.262767-3.919081-7.838163-30.792783-20.491198-30.792783-6.158557 0-11.197376 9.517769-10.189611 16.348169l3.58316 29.673045v2.127502c0 15.116457-12.317113 16.348168-12.317113 38.854893v4.143029c0 13.436851 12.317113 11.757244 12.317113 22.394751 0 1.903554-10.301586 6.718425-12.876982 8.621979a97.641115 97.641115 0 0 0-11.197376 11.197376 157.435101 157.435101 0 0 0-15.564352 26.53778c-4.814872 9.629743-8.845927 19.483434-14.332641 28.553308-3.919081 6.494478-17.020011 19.483434-17.020011 24.970148 0 18.027775 11.197376 17.020011 11.197376 32.80831a15.340405 15.340405 0 0 1-14.332641 15.340405 13.660798 13.660798 0 0 1-14.332641-13.324877c0-2.351449 1.343685-5.150793 4.031056-5.150793 5.710662 0 4.031055 9.293822 11.197375 9.293822a6.830399 6.830399 0 0 0 4.031055-5.150793v-3.023291c0-7.614215-11.197376-13.324877-18.363696-13.324877h-6.158556a16.460142 16.460142 0 0 0-14.332641 17.355932c0 5.710662 4.031055 10.413559 5.150793 14.332641a17.020011 17.020011 0 0 1-13.324877-17.355933c0-11.197376 6.382504-14.780536 10.189612-20.491197a13.99672 13.99672 0 0 0-5.150793-1.007764H851.000547a18.811591 18.811591 0 0 0-17.355932 20.491198 56.658721 56.658721 0 0 0 4.031055 15.340404 28.32936 28.32936 0 0 1-5.374741-44.789502 35.607654 35.607654 0 0 1 20.715145-7.950137l21.610935 3.023292c0.783816 0 31.01673-42.997922 34.151996-47.588847 6.27053-9.293822 33.592127-39.414762 33.592127-48.59661A363.802734 363.802734 0 0 0 929.382176 591.669328a262.130563 262.130563 0 0 1-4.143029-61.249645 70.879388 70.879388 0 0 1-31.800547-57.330563 68.192017 68.192017 0 0 1 19.035539-42.438054c5.710662-7.726189 9.853691-6.718425 13.324877-17.355932a80.061236 80.061236 0 0 0 4.47895-25.194095zM236.488573 828.605796a28.553308 28.553308 0 0 1 19.483434-13.324877h7.16632a30.008967 30.008967 0 0 1 26.089885 30.792782l-3.58316 19.37146a486.861892 486.861892 0 0 0 45.685292 33.592127c5.038819 3.695134 44.789502 34.487917 45.461345 34.487917h11.197376c5.038819 0 41.318316-9.517769 49.716348-11.197376a239.847786 239.847786 0 0 1 58.786222-3.58316A73.230837 73.230837 0 0 1 548.671405 885.712411h4.143029a65.616621 65.616621 0 0 1 44.789503 19.707381c13.100929 13.212903 21.610935 17.131985 47.364898 17.131985 35.719628 0 80.397157-9.853691 89.579005-35.495681a62.145435 62.145435 0 0 1 29.337124-33.592127 351.597594 351.597594 0 0 1 38.854894-23.626462 118.132313 118.132313 0 0 1-21.16304 47.364899 147.917332 147.917332 0 0 1-36.727392 31.91252c-22.394751 15.452378-71.215309 27.209623-109.958229 27.209623h-4.143029l-32.80831-2.463423c-3.807108 46.021214-47.028978 23.85041-47.028978 38.966867v3.023292c0 3.135265 3.023291 4.143029 6.158557 4.143029h2.015527a14.556588 14.556588 0 0 0 5.150793-1.119738 12.541061 12.541061 0 0 1-11.197375 8.286058h-2.127502a13.212903 13.212903 0 0 1-12.317113-11.197375v-10.301586c0-11.981192 8.06211-28.665282 18.47567-28.665282h2.015527c3.135265 0 6.158557 1.007764 6.158557 4.143029v3.023292c-3.135265 0.783816-8.174084 2.575396-8.174084 6.158556V951.776927c0 3.247239 2.911318 4.143029 6.158556 4.143029h2.015528a17.131985 17.131985 0 0 0 14.332641-17.355932c0-7.278294-9.853691-13.324877-17.467906-13.324877h-3.023292c-48.036741 0-29.337124 61.361618-73.678731 61.361618a159.898524 159.898524 0 0 1-21.610935-4.031055v-2.015527c8.06211 0 30.792783-10.525533 30.792783-17.467906V962.974303c0-5.486714-7.054347-10.301586-12.317113-10.301586h-5.150793l-24.522253 3.583161c-17.467906 2.68737-24.186331-13.324877-46.133187-13.324877-16.012247 0-14.332641 12.317113-23.514489 12.317113H380.710771c-3.023291 0-5.598688-8.733953-8.510006-12.093166a109.39836 109.39836 0 0 0-10.189611-10.189612A125.186659 125.186659 0 0 0 335.921268 916.057299c-9.741717-4.926845-18.251722-7.950137-27.43357-13.548824-3.695134-2.239475-23.626463-17.803827-24.186331-17.803828h-6.158557c-12.429087 0-18.027775 11.197376-26.53778 11.197376h-4.143029a16.908037 16.908037 0 0 1-14.332641-14.332641v-2.127501a13.660798 13.660798 0 0 1 12.317113-12.317113h2.015528a4.031055 4.031055 0 0 1 4.143029 4.143029c0 4.702898-8.286058 3.471186-8.286058 9.181848v2.127501c0 3.135265 3.023291 4.031055 6.158557 4.031055 9.293822 0 14.332641-12.093166 14.33264-21.498961v-4.031055a14.780536 14.780536 0 0 0-15.340404-13.324877H246.342264c-7.054347 0-9.405796 3.695134-14.332641 4.031055C235.144888 846.297649 238.504101 839.803171 246.342264 839.803171h3.023291c11.197376 0 13.99672 4.814872 20.491197 9.181848a4.255003 4.255003 0 0 0 1.007764-3.135265v-5.038819c0-8.621979-10.525533-15.340405-19.37146-15.340405h-3.135265a49.604374 49.604374 0 0 0-11.869218 3.135266z" fill="#A68769" p-id="14936"></path></svg>