<?xml version="1.0" standalone="no"?><!DOCTYPE svg PUBLIC "-//W3C//DTD SVG 1.1//EN" "http://www.w3.org/Graphics/SVG/1.1/DTD/svg11.dtd"><svg t="1760777693320" class="icon" viewBox="0 0 1024 1024" version="1.1" xmlns="http://www.w3.org/2000/svg" p-id="1980" xmlns:xlink="http://www.w3.org/1999/xlink" width="200" height="200"><path d="M680.362467 23.438307h18.740162c10.320669 0 18.740162 8.419493 18.740162 18.740162v233.708832c0 10.320669-8.419493 18.740162-18.740162 18.740162h-18.740162V23.438307z" fill="#C7B299" p-id="1981"></path><path d="M742.965472 70.288712H286.547469c-51.331748 0-104.564672 0.135798-136.884662-48.344186C145.317262 15.426209 147.08264 6.735119 153.465159 2.389574 159.847678-1.95597 168.674566-0.190593 172.884312 6.191926c0 0 0 0.135798 0.135799 0.135798C196.920607 42.314267 238.474879 42.178469 286.547469 42.178469h450.850274c48.072589 0 89.626862 0.135798 113.527358-35.850745 4.209747-6.518317 13.036634-8.283695 19.419154-3.93815 6.518317 4.209747 8.283695 13.036634 3.93815 19.419154v0.135798c-31.097805 46.714607-81.614764 48.344186-131.316933 48.344186z" fill="#5D4E44" p-id="1982"></path><path d="M236.166309 771.551006h551.748392v224.474549H236.166309z" fill="#493A31" p-id="1983"></path><path d="M217.426147 275.887301h589.092918c5.160334 0 9.370081 4.209747 9.370081 9.370081v9.370081c0 5.160334-4.209747 9.370081-9.370081 9.370081H217.426147c-5.160334 0-9.370081-4.209747-9.370081-9.370081V285.257382c0.135798-5.160334 4.209747-9.370081 9.370081-9.370081z" fill="#5D4E44" p-id="1984"></path><path d="M250.289329 776.168147h523.63815c5.160334 0 9.370081 4.209747 9.370081 9.370081V981.902535c0 5.160334-4.209747 9.370081-9.370081 9.370081H250.289329c-5.160334 0-9.370081-4.209747-9.370081-9.370081V785.538228c0-5.160334 4.073948-9.370081 9.370081-9.370081z" fill="#D7CFB5" p-id="1985"></path><path d="M773.791681 785.538228V981.902535H250.153531V785.538228h523.63815m0-9.370081H250.153531c-5.160334 0-9.370081 4.209747-9.370081 9.370081V981.902535c0 5.160334 4.209747 9.370081 9.370081 9.370081h523.63815c5.160334 0 9.370081-4.209747 9.370081-9.370081V785.538228c0-5.160334-4.209747-9.370081-9.370081-9.370081z" fill="#5D4E44" p-id="1986"></path><path d="M511.972606 883.720382m-60.837627 0a60.837627 60.837627 0 1 0 121.675254 0 60.837627 60.837627 0 1 0-121.675254 0Z" fill="#C7B299" p-id="1987"></path><path d="M511.972606 832.252835c28.38184 0 51.467546 23.085707 51.467546 51.467547s-23.085707 51.467546-51.467546 51.467546-51.467546-23.085707-51.467546-51.467546c0.135798-28.38184 23.085707-51.467546 51.467546-51.467547m0-9.370081c-33.542174 0-60.837627 27.159655-60.837627 60.837628s27.159655 60.837627 60.837627 60.837627c33.542174 0 60.837627-27.159655 60.837627-60.837627 0-33.542174-27.159655-60.837627-60.837627-60.837628z" fill="#5D4E44" p-id="1988"></path><path d="M684.979609 23.438307h-121.539457c-10.320669 0-18.740162 8.419493-18.740162 18.740162v373.98845l70.07191 74.82485 70.07191-74.82485V42.178469c0-10.320669 8.419493-18.740162 18.740162-18.740162h-18.604363z" fill="#D7CFB5" p-id="1989"></path><path d="M410.395496 710.849177c0 29.196629-27.159655 32.591586-60.837627 32.591586s-60.837627-3.394957-60.837628-32.591586 36.25814-85.552913 60.837628-85.552914c22.135119 0.135798 60.837627 56.356284 60.837627 85.552914z" fill="#72A48E" p-id="1990"></path><path d="M348.471482 625.975255c-2.580167 0-4.617141-2.172772-4.617141-4.75294 0-0.678991 0.135798-1.493781 0.543193-2.036974l7.8763-15.209407c17.110583-33.134779 40.19629-63.0104 67.899138-87.997282l11.678651-10.592266c1.901176-1.765378 4.888738-1.629579 6.654116 0.407395 1.765378 1.901176 1.629579 4.888738-0.407395 6.654116l-11.678652 10.592265c-26.888059 24.307891-49.158976 53.097126-65.862163 85.281317l-7.8763 15.209407c-0.81479 1.493781-2.444369 2.444369-4.209747 2.444369z" fill="#AA846B" p-id="1991"></path><path d="M340.187788 612.531226h18.740162c2.580167 0 4.617141 2.036974 4.617141 4.617141v9.370081c0 2.580167-2.036974 4.617141-4.617141 4.617141H340.187788c-2.580167 0-4.617141-2.036974-4.617142-4.617141v-9.370081c0-2.444369 2.036974-4.617141 4.617142-4.617141z" fill="#D7CFB5" p-id="1992"></path><path d="M371.828786 584.420983h-0.543193c-2.580167-0.271597-4.481343-2.580167-4.209747-5.160335l4.617141-46.714607c0.271597-2.580167 2.580167-4.481343 5.160335-4.209746 2.580167 0.271597 4.481343 2.580167 4.209746 5.160334l-4.617141 46.714607c-0.271597 2.444369-2.308571 4.209747-4.617141 4.209747z" fill="#AA846B" p-id="1993"></path><path d="M376.038532 577.223674c-2.580167 0-4.75294-2.036974-4.752939-4.617141 0-2.308571 1.629579-4.345545 3.93815-4.75294l65.862163-11.542853c2.580167-0.407395 5.024536 1.222184 5.431931 3.802351 0.407395 2.580167-1.222184 5.024536-3.802352 5.431931L376.853322 577.223674h-0.81479z" fill="#AA846B" p-id="1994"></path><path d="M170.71154 995.889757h682.522132c5.160334 0 9.370081 4.209747 9.370081 9.370081v9.370081c0 5.160334-4.209747 9.370081-9.370081 9.370081H170.71154c-5.160334 0-9.370081-4.209747-9.370081-9.370081v-9.370081c0-5.160334 4.209747-9.370081 9.370081-9.370081z" fill="#5D4E44" p-id="1995"></path><path d="M208.191864 42.178469h28.110243v981.821531H208.191864zM787.914701 42.178469h28.110243v981.821531h-28.110243z" fill="#5D4E44" p-id="1996"></path><path d="M610.154759 483.930259h9.370081v74.82485h-9.370081z" fill="#C1B593" p-id="1997"></path><path d="M614.907699 549.385028c10.320669 0 18.740162 8.419493 18.740162 18.740162V670.924484h-37.344526v-102.799294c-0.135798-10.320669 8.283695-18.740162 18.604364-18.740162z" fill="#9E6C65" p-id="1998"></path><path d="M614.907699 519.102012m-13.987223 0a13.987222 13.987222 0 1 0 27.974445 0 13.987222 13.987222 0 1 0-27.974445 0Z" fill="#72A48E" p-id="1999"></path><path d="M217.426147 743.440763h589.092918c5.160334 0 9.370081 4.209747 9.370081 9.370081v9.370081c0 5.160334-4.209747 9.370081-9.370081 9.370081H217.426147c-5.160334 0-9.370081-4.209747-9.370081-9.370081v-9.370081c0.135798-5.160334 4.209747-9.370081 9.370081-9.370081z" fill="#5D4E44" p-id="2000"></path></svg>