<?xml version="1.0" standalone="no"?><!DOCTYPE svg PUBLIC "-//W3C//DTD SVG 1.1//EN" "http://www.w3.org/Graphics/SVG/1.1/DTD/svg11.dtd"><svg t="1760777678797" class="icon" viewBox="0 0 1287 1024" version="1.1" xmlns="http://www.w3.org/2000/svg" p-id="1407" xmlns:xlink="http://www.w3.org/1999/xlink" width="251.3671875" height="200"><path d="M87.698589 626.127137h1111.698589v46.738589H87.698589z" fill="#493A31" p-id="1408"></path><path d="M1252.254274 35.181411v573.44H35.181411V35.181411h1217.072863M1275.538589 0H11.727137C5.268714 0 0 5.268714 0 11.727137v620.178589c0 6.458423 5.268714 11.727137 11.727137 11.727137h1263.981411c6.458423 0 11.727137-5.268714 11.727137-11.727137V11.727137c-0.169959-6.458423-5.438672-11.727137-11.897096-11.727137z" fill="#5D4E44" p-id="1409"></path><path d="M1211.294274 743.058589H76.141411l18.18556-99.425726h1098.611784z" fill="#493A31" p-id="1410"></path><path d="M29.232863 310.174274h1228.8v23.454274h-1228.8z" fill="#5D4E44" p-id="1411"></path><path d="M339.407137 35.181411h23.454274V620.348548h-23.454274zM918.625726 35.181411h23.454274V620.348548h-23.454274z" fill="#5D4E44" p-id="1412"></path><path d="M942.08 35.181411h310.174274v274.992863H942.08z" fill="#493A31" p-id="1413"></path><path d="M965.534274 46.738589H1228.8c6.458423 0 11.727137 5.268714 11.727137 11.727137v228.254274c0 6.458423-5.268714 11.727137-11.727137 11.727137H965.534274c-6.458423 0-11.727137-5.268714-11.727137-11.727137V58.465726c0-6.458423 5.268714-11.727137 11.727137-11.727137z" fill="#FFFFFF" p-id="1414"></path><path d="M1228.8 304.225726H965.534274c-9.687635 0-17.505726-7.818091-17.675685-17.505726V58.465726c0-9.687635 7.818091-17.505726 17.505726-17.505726h263.435685c9.687635 0 17.505726 7.818091 17.505726 17.505726v228.254274c0 9.687635-7.818091 17.505726-17.505726 17.505726zM965.534274 52.687137c-3.229212 0-5.778589 2.549378-5.778589 5.778589v228.084315c0 3.229212 2.549378 5.778589 5.778589 5.77859H1228.8c3.229212 0 5.778589-2.549378 5.778589-5.77859V58.465726c0-3.229212-2.549378-5.778589-5.778589-5.778589H965.534274z" fill="#5D4E44" p-id="1415"></path><path d="M942.08 327.68h310.174274v280.941411H942.08z" fill="#493A31" p-id="1416"></path><path d="M965.534274 339.407137H1228.8c6.458423 0 11.727137 5.268714 11.727137 11.727137v234.032863c0 6.458423-5.268714 11.727137-11.727137 11.727137H965.534274c-6.458423 0-11.727137-5.268714-11.727137-11.727137V351.134274c0-6.458423 5.268714-11.727137 11.727137-11.727137z" fill="#FFFFFF" p-id="1417"></path><path d="M1228.8 602.672863H965.534274c-9.687635 0-17.505726-7.818091-17.675685-17.505726V351.134274c0-9.687635 7.818091-17.505726 17.675685-17.505726H1228.8c9.687635 0 17.505726 7.818091 17.505726 17.505726v234.032863c0 9.687635-7.818091 17.505726-17.505726 17.505726zM965.534274 345.185726c-3.229212 0-5.778589 2.549378-5.778589 5.778589v234.032863c0 3.229212 2.549378 5.778589 5.778589 5.77859H1228.8c3.229212 0 5.778589-2.549378 5.778589-5.77859V351.134274c0-3.229212-2.549378-5.778589-5.778589-5.778589H965.534274z" fill="#5D4E44" p-id="1418"></path><path d="M362.861411 333.458589h555.934274V608.451452H362.861411z" fill="#493A31" p-id="1419"></path><path d="M386.145726 345.185726h509.025726c6.458423 0 11.727137 5.268714 11.727137 11.727137v228.254274c0 6.458423-5.268714 11.727137-11.727137 11.727137H386.145726c-6.458423 0-11.727137-5.268714-11.727137-11.727137V356.912863c0-6.458423 5.268714-11.727137 11.727137-11.727137z" fill="#FFFFFF" p-id="1420"></path><path d="M895.171452 602.672863H386.145726c-9.687635 0-17.505726-7.818091-17.505726-17.675685V356.912863c0-9.687635 7.818091-17.505726 17.505726-17.505726h509.025726c9.687635 0 17.505726 7.818091 17.505726 17.505726v228.084315c0.169959 9.857593-7.818091 17.675685-17.505726 17.675685z m-509.025726-251.538589c-3.229212 0-5.778589 2.549378-5.778589 5.778589v228.084315c0 3.229212 2.549378 5.778589 5.778589 5.77859h509.025726c3.229212 0 5.778589-2.549378 5.778589-5.77859V356.912863c0-3.229212-2.549378-5.778589-5.778589-5.778589H386.145726z" fill="#5D4E44" p-id="1421"></path><path d="M362.861411 35.181411h555.934274v274.992863H362.861411z" fill="#493A31" p-id="1422"></path><path d="M386.145726 46.738589h509.025726c6.458423 0 11.727137 5.268714 11.727137 11.727137v228.254274c0 6.458423-5.268714 11.727137-11.727137 11.727137H386.145726c-6.458423 0-11.727137-5.268714-11.727137-11.727137V58.465726c0-6.458423 5.268714-11.727137 11.727137-11.727137z" fill="#FFFFFF" p-id="1423"></path><path d="M895.171452 304.225726H386.145726c-9.687635 0-17.505726-7.818091-17.505726-17.505726V58.465726c0-9.687635 7.818091-17.505726 17.505726-17.505726h509.025726c9.687635 0 17.505726 7.818091 17.505726 17.505726v228.254274c0 9.687635-7.818091 17.505726-17.505726 17.505726zM386.145726 52.687137c-3.229212 0-5.778589 2.549378-5.778589 5.778589v228.084315c0 3.229212 2.549378 5.778589 5.778589 5.77859h509.025726c3.229212 0 5.778589-2.549378 5.778589-5.77859V58.465726c0-3.229212-2.549378-5.778589-5.778589-5.778589H386.145726z" fill="#5D4E44" p-id="1424"></path><path d="M29.232863 333.458589h310.174274V608.451452H29.232863z" fill="#493A31" p-id="1425"></path><path d="M52.687137 345.185726h263.265726c6.458423 0 11.727137 5.268714 11.727137 11.727137v228.254274c0 6.458423-5.268714 11.727137-11.727137 11.727137H52.687137c-6.458423 0-11.727137-5.268714-11.727137-11.727137V356.912863c0-6.458423 5.268714-11.727137 11.727137-11.727137z" fill="#FFFFFF" p-id="1426"></path><path d="M315.952863 602.672863H52.687137c-9.687635 0-17.505726-7.818091-17.505726-17.505726V356.912863c0-9.687635 7.818091-17.505726 17.505726-17.505726h263.265726c9.687635 0 17.505726 7.818091 17.505726 17.505726v228.084315c0.169959 9.857593-7.818091 17.675685-17.505726 17.675685zM52.687137 351.134274c-3.229212 0-5.778589 2.549378-5.778589 5.778589v228.084315c0 3.229212 2.549378 5.778589 5.778589 5.77859h263.265726c3.229212 0 5.778589-2.549378 5.778589-5.77859V356.912863c0-3.229212-2.549378-5.778589-5.778589-5.778589H52.687137z" fill="#5D4E44" p-id="1427"></path><path d="M29.232863 35.181411h310.174274v274.992863H29.232863z" fill="#493A31" p-id="1428"></path><path d="M52.687137 46.738589h263.265726c6.458423 0 11.727137 5.268714 11.727137 11.727137v228.254274c0 6.458423-5.268714 11.727137-11.727137 11.727137H52.687137c-6.458423 0-11.727137-5.268714-11.727137-11.727137V58.465726c0-6.458423 5.268714-11.727137 11.727137-11.727137z" fill="#FFFFFF" p-id="1429"></path><path d="M315.952863 304.225726H52.687137c-9.687635 0-17.505726-7.818091-17.505726-17.505726V58.465726c0-9.687635 7.818091-17.505726 17.505726-17.505726h263.265726c9.687635 0 17.505726 7.818091 17.505726 17.505726v228.254274c0 9.687635-7.818091 17.505726-17.505726 17.505726zM52.687137 52.687137c-3.229212 0-5.778589 2.549378-5.778589 5.778589v228.084315c0 3.229212 2.549378 5.778589 5.778589 5.77859h263.265726c3.229212 0 5.778589-2.549378 5.778589-5.77859V58.465726c0-3.229212-2.549378-5.778589-5.778589-5.778589H52.687137z" fill="#5D4E44" p-id="1430"></path><path d="M930.352863 321.901411m-87.698589 0a87.698589 87.698589 0 1 0 175.397178 0 87.698589 87.698589 0 1 0-175.397178 0Z" fill="#FFFFFF" p-id="1431"></path><path d="M930.352863 421.327137c-54.896598 0-99.425726-44.529129-99.425726-99.425726s44.529129-99.425726 99.425726-99.425726 99.425726 44.529129 99.425726 99.425726-44.529129 99.425726-99.425726 99.425726z m0-175.567137c-41.979751 0-76.141411 33.991701-76.141411 76.141411s33.991701 76.141411 76.141411 76.141411c41.979751 0 76.141411-33.991701 76.141411-76.141411-0.169959-41.979751-34.16166-76.141411-76.141411-76.141411zM11.727137 667.087137h1263.811452c6.458423 0 11.727137 5.268714 11.727137 11.727137v23.454274c0 6.458423-5.268714 11.727137-11.727137 11.727137H11.727137c-6.458423 0-11.727137-5.268714-11.727137-11.727137v-23.454274c0-6.458423 5.268714-11.727137 11.727137-11.727137zM58.465726 719.774274H1228.8v23.454274H58.465726z" fill="#5D4E44" p-id="1432"></path><path d="M1269.420083 1024h-22.604481c-3.059253 0-5.778589-2.379419-6.118507-5.438672L1194.298423 686.632365c-0.849793-6.458423 3.739087-12.237012 10.197511-13.086805l11.557178-1.359668c6.458423-0.849793 12.237012 3.739087 13.086805 10.19751l46.398672 334.478341c0.509876 3.39917-2.039502 6.458423-5.268713 6.968298-0.339917 0.169959-0.509876 0.169959-0.849793 0.169959zM17.845643 1024h22.604481c3.059253 0 5.778589-2.379419 6.118507-5.438672L92.967303 686.632365c0.849793-6.458423-3.739087-12.237012-10.19751-13.086805l-11.557179-1.359668c-6.458423-0.849793-12.237012 3.739087-13.086805 10.19751L11.727137 1017.031701c-0.509876 3.39917 2.039502 6.458423 5.268714 6.968299h0.849792z" fill="#5D4E44" p-id="1433"></path><path d="M186.61444 474.014274c-0.339917 0-0.679834 0-1.019751-0.169959-1.869544-0.509876-3.059253-2.549378-2.549378-4.418921l3.39917-12.576929c7.478174-27.36332 19.885145-53.027054 36.711038-75.971453l6.968298-9.687634c1.18971-1.529627 3.39917-1.699585 4.928797-0.509876 1.359668 1.18971 1.699585 3.229212 0.679834 4.758838l-6.968299 9.687635c-16.146058 22.264564-28.213112 47.248465-35.521327 73.761992l-3.399171 12.576929c-0.169959 1.359668-1.529627 2.549378-3.229211 2.549378z" fill="#C7B299" p-id="1434"></path><path d="M197.491784 439.512697c-1.869544 0-3.39917-1.359668-3.569128-3.229212l-3.909046-35.521327c-0.169959-1.869544 1.18971-3.739087 3.229212-3.909046 1.869544-0.169959 3.739087 1.18971 3.909045 3.229212l3.909046 35.521327c0.169959 1.869544-1.18971 3.739087-3.229212 3.909046h-0.339917z" fill="#C7B299" p-id="1435"></path><path d="M199.531286 433.394191c-2.039502 0-3.569129-1.699585-3.39917-3.739087 0-1.359668 0.849793-2.549378 2.039502-3.059253l47.078506-18.865395c1.869544-0.679834 3.909046 0.339917 4.58888 2.039503 0.679834 1.699585-0.169959 3.739087-1.869543 4.418921l-47.078507 18.865394c-0.509876 0.339917-1.019751 0.339917-1.359668 0.339917zM185.764647 470.275187c-1.699585 0-3.229212-1.359668-3.569128-3.059253l-2.039502-12.746888c-4.248963-28.043154-3.39917-56.596183 2.379419-84.299419l2.379419-11.727137c0.509876-1.869544 2.379419-3.059253 4.248962-2.719336 1.869544 0.509876 3.059253 2.209461 2.719337 4.079004l-2.37942 11.727137c-5.608631 26.853444-6.458423 54.55668-2.379419 81.750041l2.039502 12.746888c0.339917 1.869544-1.019751 3.739087-3.059253 4.079004l-0.339917 0.169959z" fill="#C7B299" p-id="1436"></path><path d="M181.345726 446.141079c-1.18971 0-2.379419-0.679834-3.059253-1.699585l-18.015602-30.76249c-0.849793-1.699585-0.169959-3.909046 1.529627-4.758838 1.529627-0.849793 3.569129-0.339917 4.58888 1.18971l18.015601 30.762489c1.019751 1.699585 0.339917 3.909046-1.359668 4.928797-0.509876 0.169959-1.019751 0.339917-1.699585 0.339917z" fill="#C7B299" p-id="1437"></path><path d="M245.76 509.365643c0-20.564979-16.316017-38.070705-39.090456-44.529128 2.039502-2.039502 2.719336-4.928797 2.039502-7.648133-1.359668-4.079004-5.268714-6.628382-9.517677-6.458423h-23.964149c-4.248963-0.169959-8.158008 2.549378-9.517676 6.458423-0.679834 2.719336 0 5.608631 2.039502 7.648133-22.77444 6.458423-39.090456 23.964149-39.090457 44.529128 0 13.936598 7.478174 26.343568 19.37527 35.011452 3.39917 2.379419 5.778589 5.778589 6.628382 9.857594l6.288464 31.102406c0.169959 3.229212 2.889295 5.778589 6.118507 5.77859H207.349378c3.229212 0.169959 6.118506-2.379419 6.118506-5.77859l6.288465-31.102406c0.849793-3.909046 3.229212-7.478174 6.628381-9.857594 11.897095-8.497925 19.37527-21.074855 19.37527-35.011452z" fill="#9E6C65" p-id="1438"></path><path d="M1111.698589 228.254274m-58.465726 0a58.465726 58.465726 0 1 0 116.931452 0 58.465726 58.465726 0 1 0-116.931452 0Z" fill="#72A48E" p-id="1439"></path><path d="M1111.698589 64.414274c6.458423 0 11.727137 5.268714 11.727137 11.727137v93.647137c0 6.458423-5.268714 11.727137-11.727137 11.727137-6.458423 0-11.727137-5.268714-11.727137-11.727137V76.141411c0.169959-6.458423 5.268714-11.727137 11.727137-11.727137z" fill="#72A48E" p-id="1440"></path><path d="M1098.781743 64.414274h26.003651c2.549378 0 4.58888 2.039502 4.58888 4.58888v2.549377c0 2.549378-2.039502 4.58888-4.58888 4.58888h-26.003651c-2.549378 0-4.58888-2.039502-4.58888-4.58888v-2.549377c0-2.549378 2.039502-4.58888 4.58888-4.58888zM1088.414274 280.941411h46.738589c3.229212 0 5.778589 2.549378 5.778589 5.778589s-2.549378 5.778589-5.778589 5.778589h-46.738589c-3.229212 0-5.778589-2.549378-5.778589-5.778589-0.169959-3.229212 2.549378-5.778589 5.778589-5.778589z" fill="#72A48E" p-id="1441"></path><path d="M560.183237 280.091618h166.729294c2.379419 0 4.418921 2.039502 4.418921 4.418921v2.889295c0 2.379419-2.039502 4.418921-4.418921 4.418921h-166.729294c-2.379419 0-4.418921-2.039502-4.418922-4.418921v-2.889295c0.169959-2.379419 2.039502-4.418921 4.418922-4.418921z" fill="#D7CFB5" p-id="1442"></path><path d="M642.613112 245.76l-23.284315 23.114357c12.746888 12.746888 33.651784 12.746888 46.398672 0l-23.114357-23.114357z" fill="#D7CFB5" p-id="1443"></path><path d="M642.613112 67.983402C542.167635 67.983402 459.397842 150.753195 459.397842 251.368631h178.966307c-0.169959 0.509876 0 1.019751 0.339917 1.359668l2.209461 2.20946c0.509876 0.509876 1.18971 0.509876 1.699585 0l0.169959-0.169958 0.169958 0.169958c0.509876 0.509876 1.18971 0.509876 1.699585 0l2.209461-2.20946c0.339917-0.339917 0.509876-0.849793 0.339917-1.359668H825.99834C825.99834 150.753195 743.228548 67.983402 642.613112 67.983402z m2.719336 144.974606c8.158008 0.679834 15.9761 3.739087 22.094606 9.17776l-22.094606 22.094605v-31.272365z m-5.438672 0v31.272365l-22.094606-22.094605c6.118506-5.438672 13.936598-8.667884 22.094606-9.17776z m-26.17361 12.916847l20.055104 20.055104h-29.402822c1.18971-7.478174 4.418921-14.446473 9.347718-20.055104z m37.730788 20.055104l20.055104-20.055104c4.928797 5.608631 8.327967 12.576929 9.347718 20.055104h-29.402822z" fill="#D7CFB5" p-id="1444"></path></svg>