<?xml version="1.0" standalone="no"?><!DOCTYPE svg PUBLIC "-//W3C//DTD SVG 1.1//EN" "http://www.w3.org/Graphics/SVG/1.1/DTD/svg11.dtd"><svg t="1760777723535" class="icon" viewBox="0 0 1043 1024" version="1.1" xmlns="http://www.w3.org/2000/svg" p-id="3253" xmlns:xlink="http://www.w3.org/1999/xlink" width="203.7109375" height="200"><path d="M671.267163 224.607193m-224.607194 0a224.607193 224.607193 0 1 0 449.214387 0 224.607193 224.607193 0 1 0-449.214387 0Z" fill="#D7CFB5" p-id="3254"></path><path d="M671.267163 20.010195c112.811102 0 204.741999 91.785896 204.741999 204.742s-91.785896 204.741999-204.741999 204.741999S466.525163 337.708298 466.525163 224.752195 558.456061 20.010195 671.267163 20.010195m0-20.010195C547.290952 0 446.659969 100.630983 446.659969 224.607193c0 124.121212 100.630983 224.607193 224.607194 224.607194 124.121212 0 224.607193-100.630983 224.607193-224.607194C896.019358 100.630983 795.388375 0 671.267163 0z" fill="#5D4E44" p-id="3255"></path><path d="M526.55575 139.781365c-5.510054 0-10.005098-4.495044-10.005098-10.005098 0-2.610025 1.01501-5.220051 2.900028-6.960068l59.885585-59.885584c3.915038-3.915038 10.295101-3.915038 14.065137 0 3.915038 3.915038 3.915038 10.295101 0 14.065137L533.660819 136.881337c-1.885018 1.885018-4.495044 2.900028-7.105069 2.900028zM776.103187 369.463608c-5.510054 0-10.005098-4.495044-10.005098-10.005098 0-2.610025 1.01501-5.220051 2.900028-6.960068l24.940244-24.940243c3.915038-3.915038 10.295101-3.915038 14.065137 0s3.915038 10.295101 0 14.065137L783.063255 366.56358c-1.740017 1.885018-4.350042 2.900028-6.960068 2.900028zM526.55575 214.602096c-5.510054 0-10.005098-4.495044-10.005098-10.005098 0-2.610025 1.01501-5.220051 2.900028-6.960068l129.776268-129.776267c3.915038-3.915038 10.295101-3.915038 14.065137 0 3.915038 3.915038 3.915038 10.295101 0 14.065137L533.660819 211.702067c-1.885018 1.885018-4.495044 2.900028-7.105069 2.900029z" fill="#E8E2D1" p-id="3256"></path><path d="M968.375064 524.180119H74.731337l20.880204-99.905976h851.738318z" fill="#493A31" p-id="3257"></path><path d="M386.774385 633.946191H67.191264l24.940243-209.672048h294.642878z" fill="#493A31" p-id="3258"></path><path d="M937.054758 519.250071H411.714628c-5.510054 0-10.005098-4.495044-10.005098-10.005098V439.354291c0-5.510054 4.495044-10.005098 10.005098-10.005098H928.064671c5.07505 0 9.280091 3.770037 9.860096 8.700085l8.990088 69.890682c0.725007 5.510054-3.190031 10.440102-8.555084 11.165109-0.435004 0.145001-0.870008 0.145001-1.305013 0.145002z" fill="#D7CFB5" p-id="3259"></path><path d="M928.064671 439.354291l8.990087 69.890682H411.714628V439.354291H928.064671m0-10.005098H411.714628c-5.510054 0-10.005098 4.495044-10.005098 10.005098v69.890682c0 5.510054 4.495044 10.005098 10.005098 10.005098h525.34013c5.510054 0 10.005098-4.495044 10.005098-10.005098 0-0.435004 0-0.870008-0.145001-1.305013l-8.990088-69.890682c-0.580006-4.930048-4.785047-8.700085-9.860096-8.700085z" fill="#5D4E44" p-id="3260"></path><path d="M356.324087 619.011045H97.641561c-5.800057 0-10.440102-4.785047-10.440102-10.585103 0-0.435004 0-0.870008 0.145001-1.305013l21.170207-163.561597c0.580006-5.220051 5.07505-9.135089 10.295101-9.13509h237.512319c5.800057 0 10.440102 4.785047 10.440102 10.585104v163.561597c0 5.655055-4.640045 10.440102-10.440102 10.440102z" fill="#D7CFB5" p-id="3261"></path><path d="M356.324087 624.086095H97.641561c-4.350042 0-8.555084-1.885018-11.455112-5.220051s-4.350042-7.830076-3.770037-12.325121l21.170207-163.561597c1.01501-7.685075 7.540074-13.485132 15.225149-13.485132h237.512319c8.555084 0 15.37015 6.960068 15.37015 15.515152v163.561597c0.145001 8.410082-6.815067 15.37015-15.37015 15.515152zM118.811768 439.354291c-2.755027 0-5.07505 2.03002-5.365053 4.785046L92.276509 607.700935c-0.145001 1.595016 0.290003 3.190031 1.305012 4.495043 1.01501 1.160011 2.465024 1.885018 4.06004 1.885019h258.682526c3.04503 0 5.510054-2.465024 5.365053-5.510054V444.864344c0-3.04503-2.320023-5.510054-5.365053-5.510053H118.811768z" fill="#5D4E44" p-id="3262"></path><path d="M326.8888 334.518267m-10.005098 0a10.005098 10.005098 0 1 0 20.010195 0 10.005098 10.005098 0 1 0-20.010195 0Z" fill="#9E6C65" p-id="3263"></path><path d="M303.39857 334.518267h46.980459c6.960068 0 12.470122 5.655055 12.470122 12.470122V394.403852h-71.920702v-47.415463c0-6.960068 5.510054-12.470122 12.470121-12.470122z" fill="#D7CFB5" p-id="3264"></path><path d="M290.928449 359.45851h71.920702V394.403852h-71.920702z" fill="#C7B299" p-id="3265"></path><path d="M321.81375 491.699802c5.510054 0 10.005098 4.495044 10.005098 10.005097v49.880488c0 5.510054-4.495044 10.005098-10.005098 10.005097-5.510054 0-10.005098-4.495044-10.005097-10.005097V501.704899c0-5.510054 4.495044-10.005098 10.005097-10.005097z" fill="#5D4E44" p-id="3266"></path><path d="M674.312193 474.299632m-14.935146 0a14.935146 14.935146 0 1 0 29.870291 0 14.935146 14.935146 0 1 0-29.870291 0Z" fill="#5D4E44" p-id="3267"></path><path d="M175.797324 324.513169h2.465024c21.315208 0 38.715378 17.255169 38.715378 38.715378v21.170207c0 5.510054-4.495044 10.005098-10.005097 10.005098h-59.885585c-5.510054 0-10.005098-4.495044-10.005098-10.005098v-21.170207c0-21.46021 17.40017-38.715378 38.715378-38.715378z" fill="#72A48E" p-id="3268"></path><path d="M162.167191 319.43812h30.015293v10.005097h-30.015293z" fill="#72A48E" p-id="3269"></path><path d="M157.092142 319.43812a20.010195 2.465024 0 1 0 40.02039 0 20.010195 2.465024 0 1 0-40.02039 0Z" fill="#72A48E" p-id="3270"></path><path d="M194.067503 250.272444c1.305013 0.290003 2.175021 1.595016 1.885018 2.900028l-13.050127 63.510621c-0.290003 1.305013-1.595016 2.175021-2.900029 1.885018-1.305013-0.290003-2.175021-1.595016-1.885018-2.900028l13.050127-63.510621c0.290003-1.305013 1.595016-2.175021 2.900029-1.885018z" fill="#9E6C65" p-id="3271"></path><path d="M32.245922 848.693288H1010.715478c5.510054 0 10.005098 4.495044 10.005097 10.005098 0 5.510054-4.495044 10.005098-10.005097 10.005097H32.245922c-5.510054 0-10.005098-4.495044-10.005097-10.005097 0.145001-5.510054 4.495044-10.005098 10.005097-10.005098zM87.201459 394.403852h868.703484c5.510054 0 10.005098 4.495044 10.005097 10.005097v10.005098c0 5.510054-4.495044 10.005098-10.005097 10.005098H87.201459c-5.510054 0-10.005098-4.495044-10.005098-10.005098v-10.005098c0-5.510054 4.495044-10.005098 10.005098-10.005097zM386.774385 524.180119H965.765039c5.510054 0 10.005098 4.495044 10.005098 10.005098 0 5.510054-4.495044 10.005098-10.005098 10.005097H386.774385c-5.510054 0-10.005098-4.495044-10.005098-10.005097 0-5.510054 4.495044-10.005098 10.005098-10.005098zM72.266313 629.016143h314.508072c5.510054 0 10.005098 4.495044 10.005097 10.005097 0 5.510054-4.495044 10.005098-10.005097 10.005098H72.266313c-5.510054 0-10.005098-4.495044-10.005097-10.005098 0-5.510054 4.495044-10.005098 10.005097-10.005097z" fill="#5D4E44" p-id="3272"></path><path d="M386.774385 394.403852c5.510054 0 10.005098 4.495044 10.005097 10.005097v234.612291c0 5.510054-4.495044 10.005098-10.005097 10.005098-5.510054 0-10.005098-4.495044-10.005098-10.005098V404.408949c0-5.510054 4.495044-10.005098 10.005098-10.005097zM1037.685741 993.984707h-19.285188c-2.610025 0-4.930048-2.03002-5.220051-4.640045l-74.530728-582.61569c-0.725007-5.510054 3.190031-10.440102 8.700085-11.165109l9.860096-1.160011c5.510054-0.725007 10.440102 3.190031 11.165109 8.700085l74.530728 584.935712c0.290003 2.900028-1.740017 5.510054-4.640045 5.945058h-0.580006zM5.275659 993.984707H24.705849c2.610025 0 4.930048-2.03002 5.220051-4.640045L104.456628 406.873973c0.725007-5.510054-3.190031-10.440102-8.700085-11.165109l-9.860097-1.160011c-5.510054-0.725007-10.440102 3.190031-11.165109 8.700085L0.055608 988.039649c-0.435004 2.900028 1.740017 5.510054 4.495044 5.945058h0.725007z" fill="#5D4E44" p-id="3273"></path><path d="M526.55575 629.016143h279.56273c5.510054 0 10.005098 4.495044 10.005097 10.005097v10.005098c0 5.510054-4.495044 10.005098-10.005097 10.005098H526.55575c-5.510054 0-10.005098-4.495044-10.005098-10.005098v-10.005098c0-5.510054 4.495044-10.005098 10.005098-10.005097z" fill="#493A31" p-id="3274"></path><path d="M526.55575 624.086095h279.56273c5.510054 0 10.005098 4.495044 10.005097 10.005097v10.005098c0 5.510054-4.495044 10.005098-10.005097 10.005098H526.55575c-5.510054 0-10.005098-4.495044-10.005098-10.005098v-10.005098c0-5.655055 4.495044-10.005098 10.005098-10.005097z" fill="#5D4E44" p-id="3275"></path><path d="M551.495993 564.055508h229.682243c11.020108 0 20.010195 8.990088 20.010196 20.010196v30.015293c0 5.510054-4.495044 10.005098-10.005098 10.005098H541.490895c-5.510054 0-10.005098-4.495044-10.005097-10.005098v-29.870292c0-11.165109 8.845086-20.155197 20.010195-20.155197z" fill="#D7CFB5" p-id="3276"></path><path d="M472.180219 1024H491.610408c2.610025 0 4.930048-2.03002 5.220051-4.640045l49.590485-382.94874c0.725007-5.510054-3.190031-10.440102-8.700085-11.165109l-9.860097-1.160011c-5.510054-0.725007-10.440102 3.190031-11.165109 8.700085l-49.590484 385.268762c-0.435004 2.900028 1.595016 5.510054 4.495044 5.945058h0.580006zM860.784014 1024h-19.285189c-2.610025 0-4.930048-2.03002-5.220051-4.640045l-49.590484-382.94874c-0.725007-5.510054 3.190031-10.440102 8.700085-11.165109l9.860096-1.160011c5.510054-0.725007 10.440102 3.190031 11.165109 8.700085l49.590485 385.268762c0.435004 2.900028-1.595016 5.510054-4.495044 5.945058h-0.725007z" fill="#5D4E44" p-id="3277"></path></svg>