<?xml version="1.0" standalone="no"?><!DOCTYPE svg PUBLIC "-//W3C//DTD SVG 1.1//EN" "http://www.w3.org/Graphics/SVG/1.1/DTD/svg11.dtd"><svg t="1760777168349" class="icon" viewBox="0 0 1070 1024" version="1.1" xmlns="http://www.w3.org/2000/svg" p-id="2113" xmlns:xlink="http://www.w3.org/1999/xlink" width="208.984375" height="200"><path d="M28.219958 380.950353h1013.641421c5.179289 0 9.404499 4.22521 9.404499 9.404499v487.943564c0 5.179289-4.22521 9.404499-9.404499 9.404499H28.219958c-5.179289 0-9.404499-4.22521-9.404499-9.404499v-487.943564c0-5.179289 4.22521-9.404499 9.404499-9.404499z" fill="#493A31" p-id="2114"></path><path d="M877.487095 413.79795h131.39039c5.179289 0 9.404499 4.22521 9.404499 9.404499v422.384667c0 5.179289-4.22521 9.404499-9.404499 9.404499h-131.39039c-5.179289 0-9.404499-4.22521-9.404499-9.404499V423.202449c0-5.179289 4.22521-9.404499 9.404499-9.404499z" fill="#D7CFB5" p-id="2115"></path><path d="M1008.877485 423.202449v422.384667h-131.39039V423.202449h131.39039m0-9.404499h-131.39039c-5.179289 0-9.404499 4.22521-9.404499 9.404499v422.384667c0 5.179289 4.22521 9.404499 9.404499 9.404499h131.39039c5.179289 0 9.404499-4.22521 9.404499-9.404499V423.202449c0-5.179289-4.22521-9.404499-9.404499-9.404499z" fill="#5D4E44" p-id="2116"></path><path d="M61.067555 413.79795h131.39039c5.179289 0 9.404499 4.22521 9.404499 9.404499v422.384667c0 5.179289-4.22521 9.404499-9.404499 9.404499H61.067555c-5.179289 0-9.404499-4.22521-9.404498-9.404499V423.202449c0-5.179289 4.22521-9.404499 9.404498-9.404499z" fill="#D7CFB5" p-id="2117"></path><path d="M192.457945 423.202449v422.384667H61.067555V423.202449h131.39039m0-9.404499H61.067555c-5.179289 0-9.404499 4.22521-9.404498 9.404499v422.384667c0 5.179289 4.22521 9.404499 9.404498 9.404499h131.39039c5.179289 0 9.404499-4.22521 9.404499-9.404499V423.202449c0-5.179289-4.22521-9.404499-9.404499-9.404499zM931.051849 277.773459H144.481371c-52.883269 0-107.5384 0.136297-141.340077-50.566218-5.724478-8.586716-3.407427-20.308266 5.17929-26.032743s20.308266-3.407427 26.032743 5.179289c21.534939 32.302409 55.881805 33.937974 110.128044 33.937974h780.982298c54.109943 0 88.456808-1.499268 110.128045-33.937974 5.724478-8.586716 17.446027-10.903767 26.032743-5.179289 8.586716 5.724478 10.903767 17.446027 5.179289 26.032743-32.7113 48.930654-84.64049 50.566219-135.751897 50.566218zM215.901044 995.786503h638.142952c5.179289 0 9.404499 4.22521 9.404499 9.404499v9.404499c0 5.179289-4.22521 9.404499-9.404499 9.404499H215.901044c-5.179289 0-9.404499-4.22521-9.404499-9.404499v-9.404499c0-5.315586 4.22521-9.404499 9.404499-9.404499zM28.219958 380.950353h1013.641421c5.179289 0 9.404499 4.22521 9.404499 9.404499v9.404498c0 5.179289-4.22521 9.404499-9.404499 9.404499H28.219958c-5.179289 0-9.404499-4.22521-9.404499-9.404499v-9.404498c0-5.179289 4.22521-9.404499 9.404499-9.404499z" fill="#5D4E44" p-id="2118"></path><path d="M215.901044 244.925862h9.404499c5.179289 0 9.404499 4.22521 9.404499 9.404499v760.128843c0 5.179289-4.22521 9.404499-9.404499 9.404499h-9.404499c-5.179289 0-9.404499-4.22521-9.404499-9.404499V254.330361c0-5.179289 4.22521-9.404499 9.404499-9.404499zM844.639497 244.925862h9.404499c5.179289 0 9.404499 4.22521 9.404499 9.404499v760.128843c0 5.179289-4.22521 9.404499-9.404499 9.404499h-9.404499c-5.179289 0-9.404499-4.22521-9.404498-9.404499V254.330361c0-5.179289 4.22521-9.404499 9.404498-9.404499zM1032.320584 380.950353h9.404498c5.179289 0 9.404499 4.22521 9.404499 9.404499v487.943564c0 5.179289-4.22521 9.404499-9.404499 9.404499h-9.404498c-5.179289 0-9.404499-4.22521-9.404499-9.404499v-487.943564c0-5.179289 4.22521-9.404499 9.404499-9.404499zM28.219958 380.950353h9.404499c5.179289 0 9.404499 4.22521 9.404499 9.404499v487.943564c0 5.179289-4.22521 9.404499-9.404499 9.404499h-9.404499c-5.179289 0-9.404499-4.22521-9.404499-9.404499v-487.943564c0-5.179289 4.22521-9.404499 9.404499-9.404499zM534.97252 380.950353c5.179289 0 9.404499 4.22521 9.404499 9.404499v487.943564c0 5.179289-4.22521 9.404499-9.404499 9.404499-5.179289 0-9.404499-4.22521-9.404499-9.404499v-487.943564c0-5.179289 4.22521-9.404499 9.404499-9.404499z" fill="#5D4E44" p-id="2119"></path><path d="M558.415619 413.79795h262.78078c5.179289 0 9.404499 4.22521 9.404499 9.404499v422.384667c0 5.179289-4.22521 9.404499-9.404499 9.404499H558.415619c-5.179289 0-9.404499-4.22521-9.404499-9.404499V423.202449c0-5.179289 4.22521-9.404499 9.404499-9.404499z" fill="#D7CFB5" p-id="2120"></path><path d="M821.196399 423.202449v422.384667H558.415619V423.202449h262.78078m0-9.404499H558.415619c-5.179289 0-9.404499 4.22521-9.404499 9.404499v422.384667c0 5.179289 4.22521 9.404499 9.404499 9.404499h262.78078c5.179289 0 9.404499-4.22521 9.404499-9.404499V423.202449c0-5.179289-4.22521-9.404499-9.404499-9.404499z" fill="#5D4E44" p-id="2121"></path><path d="M248.748642 413.79795h262.78078c5.179289 0 9.404499 4.22521 9.404498 9.404499v422.384667c0 5.179289-4.22521 9.404499-9.404498 9.404499H248.748642c-5.179289 0-9.404499-4.22521-9.404499-9.404499V423.202449c0-5.179289 4.22521-9.404499 9.404499-9.404499z" fill="#D7CFB5" p-id="2122"></path><path d="M511.529422 423.202449v422.384667H248.748642V423.202449h262.78078m0-9.404499H248.748642c-5.179289 0-9.404499 4.22521-9.404499 9.404499v422.384667c0 5.179289 4.22521 9.404499 9.404499 9.404499h262.78078c5.179289 0 9.404499-4.22521 9.404498-9.404499V423.202449c0-5.179289-4.22521-9.404499-9.404498-9.404499z" fill="#5D4E44" p-id="2123"></path><path d="M532.65547 634.462931m-117.351791 0a117.35179 117.35179 0 1 0 234.703581 0 117.35179 117.35179 0 1 0-234.703581 0Z" fill="#C7B299" p-id="2124"></path><path d="M532.65547 526.51564c59.561826 0 107.947291 48.385465 107.947291 107.947291s-48.385465 107.947291-107.947291 107.947291-107.947291-48.385465-107.947292-107.947291 48.385465-107.947291 107.947292-107.947291m0-9.404499c-64.741115 0-117.35179 52.474378-117.351791 117.35179 0 64.741115 52.474378 117.35179 117.351791 117.35179 64.741115 0 117.35179-52.474378 117.35179-117.35179-0.136297-64.877412-52.610675-117.35179-117.35179-117.35179zM28.219958 859.625715h1013.641421c5.179289 0 9.404499 4.22521 9.404499 9.404499v9.404499c0 5.179289-4.22521 9.404499-9.404499 9.404499H28.219958c-5.179289 0-9.404499-4.22521-9.404499-9.404499v-9.404499c0-5.179289 4.22521-9.404499 9.404499-9.404499z" fill="#5D4E44" p-id="2125"></path><path d="M366.100432 206.762678c-2.589645 0-4.634101-2.180753-4.634101-4.770398 0-0.681485 0.136297-1.499268 0.545188-2.044456l7.905231-15.265274c17.173433-33.256489 40.343937-63.241847 68.148543-88.320511L449.786842 85.867164c1.908159-1.771862 4.906695-1.635565 6.678557 0.408891 1.771862 1.908159 1.635565 4.906695-0.408891 6.678557L444.334959 103.585785c-26.986823 24.397178-49.339545 53.29216-66.104087 85.594569l-7.905231 15.265274c-0.817783 1.362971-2.453348 2.31705-4.225209 2.31705z" fill="#AA846B" p-id="2126"></path><path d="M389.54353 165.192067h-0.545188c-2.589645-0.272594-4.497804-2.589645-4.22521-5.179289l4.634101-46.886197c0.272594-2.589645 2.589645-4.497804 5.17929-4.22521 2.589645 0.272594 4.497804 2.589645 4.225209 5.179289l-4.634101 46.886197c-0.272594 2.453348-2.31705 4.22521-4.634101 4.22521z" fill="#AA846B" p-id="2127"></path><path d="M393.76874 157.968322c-2.589645 0-4.770398-2.044456-4.770398-4.634101 0-2.31705 1.635565-4.361507 3.952616-4.770398l66.104086-11.448955c2.589645-0.408891 5.042992 1.226674 5.451883 3.816318 0.408891 2.589645-1.226674 5.042992-3.816318 5.451883l-66.104086 11.448955c-0.272594 0-0.545188 0.136297-0.817783 0.136298zM382.456082 56.018102c-2.31705 0-4.22521-1.635565-4.634101-3.952616L370.598236 5.451883c-0.408891-2.589645 1.362971-4.906695 3.952615-5.315586s4.906695 1.362971 5.315586 3.952616l7.360043 46.613603c0.408891 2.589645-1.362971 5.042992-3.952615 5.451883-0.272594-0.136297-0.545188-0.136297-0.817783-0.136297zM365.964135 104.130973c-2.589645 0-4.634101-2.044456-4.634101-4.634101 0-1.771862 1.090377-3.543724 2.725942-4.22521l61.061094-27.804605c2.31705-1.090377 5.179289 0 6.269666 2.317051 1.090377 2.31705 0 5.179289-2.317051 6.269665L368.008591 103.858379c-0.681485 0.136297-1.362971 0.408891-2.044456 0.272594z" fill="#AA846B" p-id="2128"></path><path d="M406.989557 86.003461c-2.589645 0-4.634101-2.044456-4.634101-4.634101 0-0.681485 0.136297-1.362971 0.408892-2.044456l20.444562-42.524691c1.090377-2.31705 3.952615-3.27113 6.269666-2.180753s3.27113 3.952615 2.180754 6.269666l-20.444563 42.52469c-0.681485 1.635565-2.31705 2.589645-4.22521 2.589645zM427.161526 74.554506c-2.589645 0.136297-4.770398-1.908159-4.770398-4.497804-0.136297-2.589645 1.908159-4.770398 4.497804-4.770398l66.921868-4.088913c2.589645-0.136297 4.770398 1.771862 4.906696 4.361507 0.136297 2.589645-1.771862 4.770398-4.361507 4.906695l-66.921869 4.088913h-0.272594zM353.969991 203.355251c-2.725942 0-4.770398-2.180753-4.770398-4.770398l0.272594-17.991215c0.681485-39.25356 8.450419-77.961933 22.761614-114.489552l6.133368-15.40157c0.95408-2.453348 3.680021-3.543724 6.133369-2.589645s3.543724 3.680021 2.589645 6.133369L381.093111 69.511513c-14.0386 35.437242-21.534939 73.055238-22.080128 111.218422l-0.272594 17.991215c-0.136297 2.589645-2.180753 4.634101-4.770398 4.634101z" fill="#AA846B" p-id="2129"></path><path d="M356.559636 153.334221c-1.908159 0-3.680021-1.226674-4.361507-2.998536l-17.582324-46.204712c-0.95408-2.453348 0.272594-5.179289 2.725942-5.997072s5.179289 0.272594 5.997072 2.725942l17.446026 46.204712c0.95408 2.453348-0.272594 5.179289-2.725941 5.997072-0.408891 0.272594-0.95408 0.272594-1.499268 0.272594z" fill="#AA846B" p-id="2130"></path><path d="M295.634839 132.34447c14.0386 0 58.607747 61.061094 78.643418 56.290696s52.746972-32.847597 52.746972-9.404499v23.443098H239.344143s42.252096-70.329296 56.290696-70.329295z" fill="#72A48E" p-id="2131"></path><path d="M220.535145 202.673765H487.950026c5.179289 0 9.404499 4.22521 9.404499 9.404499v4.634101c0 12.948223-10.494876 23.443099-23.443099 23.443099h-243.971782c-12.948223 0-23.443099-10.494876-23.443099-23.443099 0-7.768934 6.269666-14.0386 14.0386-14.0386z" fill="#9E6C65" p-id="2132"></path></svg>