<?xml version="1.0" standalone="no"?><!DOCTYPE svg PUBLIC "-//W3C//DTD SVG 1.1//EN" "http://www.w3.org/Graphics/SVG/1.1/DTD/svg11.dtd"><svg t="1760777718973" class="icon" viewBox="0 0 1024 1024" version="1.1" xmlns="http://www.w3.org/2000/svg" p-id="2895" xmlns:xlink="http://www.w3.org/1999/xlink" width="200" height="200"><path d="M300.477528 274.820835h418.156363c5.366411 0 9.744272 4.377861 9.744272 9.744272V410.958199c0 5.366411-4.377861 9.744272-9.744272 9.744272H300.477528c-5.366411 0-9.744272-4.377861-9.744272-9.744272v-126.393092c0-5.366411 4.377861-9.744272 9.744272-9.744272zM315.023325 420.702471h388.923548v19.488544H315.023325z" fill="#493A31" p-id="2896"></path><path d="M324.767597 299.252126H694.343822c5.366411 0 9.744272 4.377861 9.744272 9.744271v77.812954c0 5.366411-4.377861 9.744272-9.744272 9.744272H324.767597c-5.366411 0-9.744272-4.377861-9.744272-9.744272v-77.812954c0-5.507632 4.377861-9.744272 9.744272-9.744271z" fill="#D7CFB5" p-id="2897"></path><path d="M694.343822 308.855176v77.812954H324.767597v-77.812954H694.343822m0-9.744272H324.767597c-5.366411 0-9.744272 4.377861-9.744272 9.744272v77.812954c0 5.366411 4.377861 9.744272 9.744272 9.744272H694.343822c5.366411 0 9.744272-4.377861 9.744272-9.744272v-77.812954c0-5.366411-4.377861-9.603051-9.744272-9.744272z" fill="#5D4E44" p-id="2898"></path><path d="M566.962181 107.897221l-16.381674 20.900757 27.679381 13.416027c18.782437 9.038165 43.49617 4.519083 55.076319-10.309158L650.423988 110.156762 623.733156 97.305621c-19.347322-9.461829-44.908383-4.660304-56.770975 10.5916zM501.294262 143.061333l29.656479 7.767173 10.309158-24.290069c6.919845-16.381674-4.519083-34.316784-25.41984-39.824416l-30.927472-8.049616-9.885493 23.30152c-7.202288 16.94656 4.660304 35.446554 26.267168 41.095408z" fill="#678A75" p-id="2899"></path><path d="M512.450747 217.484975l-9.461829-1.977099c0.141221-1.129771 23.019077-107.045769 115.942713-180.339641l6.072517 7.625952c-90.381652 71.175551-112.41218 173.702238-112.553401 174.690788z" fill="#B87D75" p-id="2900"></path><path d="M385.633991 197.149103H633.61865c14.82824 0 26.690832 12.003813 26.690831 26.690831v2.400763c0 26.832053-21.748085 48.580138-48.580138 48.580138H407.523298c-26.832053 0-48.580138-21.748085-48.580139-48.580138v-2.400763c-0.141221-14.82824 11.862592-26.690832 26.690832-26.690831z" fill="#9E6C65" p-id="2901"></path><path d="M599.301866 31.778923l1.412213 24.431291 26.549611 0.423664c17.935109 0.282443 31.7748-13.557248 30.645029-30.786251l-1.412214-25.419839-25.419839-0.423664c-18.499994-0.282443-32.763349 13.980912-31.7748 31.774799z" fill="#678A75" p-id="2902"></path><path d="M300.477528 401.213927h418.156363c5.366411 0 9.744272 4.377861 9.744272 9.744272 0 5.366411-4.377861 9.744272-9.744272 9.744272H300.477528c-5.366411 0-9.744272-4.377861-9.744272-9.744272 0-5.366411 4.377861-9.744272 9.744272-9.744272zM300.477528 440.191015h418.156363c5.366411 0 9.744272 4.377861 9.744272 9.744272v19.488543c0 5.366411-4.377861 9.744272-9.744272 9.744272H300.477528c-5.366411 0-9.744272-4.377861-9.744272-9.744272v-19.488543c0-5.366411 4.377861-9.744272 9.744272-9.744272zM251.89739 877.6947h515.316639c5.366411 0 9.744272 4.377861 9.744272 9.744272v9.744272c0 5.366411-4.377861 9.744272-9.744272 9.744272H251.89739c-5.366411 0-9.744272-4.377861-9.744272-9.744272v-9.744272c0-5.366411 4.377861-9.744272 9.744272-9.744272z" fill="#5D4E44" p-id="2903"></path><path d="M803.225469 1023.858779h-18.782437c-2.541984 0-4.801525-1.977099-5.083968-4.519083L706.771299 451.912385c-0.706107-5.366411 3.106869-10.167936 8.47328-10.874042l9.603051-1.129771c5.366411-0.706107 10.167936 3.106869 10.874042 8.47328L808.309437 1018.209925c0.282443 2.824427-1.694656 5.366411-4.519083 5.790075-0.141221-0.141221-0.282443-0.141221-0.564885-0.141221zM220.687476 1023.858779H239.611134c2.541984 0 4.801525-1.977099 5.083968-4.519083L317.282867 452.053607c0.706107-5.366411-3.106869-10.167936-8.47328-10.874043l-9.603051-1.129771c-5.366411-0.706107-10.167936 3.106869-10.874042 8.47328L215.603508 1018.209925c-0.423664 2.824427 1.694656 5.366411 4.377861 5.790075 0.282443-0.141221 0.564885-0.141221 0.706107-0.141221zM300.477528 274.820835h418.156363c5.366411 0 9.744272 4.377861 9.744272 9.744272 0 5.366411-4.377861 9.744272-9.744272 9.744272H300.477528c-5.366411 0-9.744272-4.377861-9.744272-9.744272 0-5.366411 4.377861-9.744272 9.744272-9.744272z" fill="#5D4E44" p-id="2904"></path><path d="M300.477528 274.820835c5.366411 0 9.744272 4.377861 9.744272 9.744272V410.958199c0 5.366411-4.377861 9.744272-9.744272 9.744272-5.366411 0-9.744272-4.377861-9.744272-9.744272v-126.393092c0-5.366411 4.377861-9.744272 9.744272-9.744272zM718.633891 274.820835c5.366411 0 9.744272 4.377861 9.744272 9.744272V410.958199c0 5.366411-4.377861 9.744272-9.744272 9.744272-5.366411 0-9.744272-4.377861-9.744272-9.744272v-126.393092c0-5.366411 4.377861-9.744272 9.744272-9.744272z" fill="#5D4E44" p-id="2905"></path><path d="M514.427846 347.832264m-14.545797 0a14.545797 14.545797 0 1 0 29.091594 0 14.545797 14.545797 0 1 0-29.091594 0Z" fill="#5D4E44" p-id="2906"></path></svg>