<?xml version="1.0" standalone="no"?><!DOCTYPE svg PUBLIC "-//W3C//DTD SVG 1.1//EN" "http://www.w3.org/Graphics/SVG/1.1/DTD/svg11.dtd"><svg t="1760777144440" class="icon" viewBox="0 0 1024 1024" version="1.1" xmlns="http://www.w3.org/2000/svg" p-id="1573" xmlns:xlink="http://www.w3.org/1999/xlink" width="200" height="200"><path d="M1024.148708 512c0-139.338949-100.22887-255.182109-232.429858-279.570142C767.330816 100.22887 651.487656 0 512.148708 0s-255.182109 100.080163-279.570143 232.429858C100.377578 256.817891 0.148708 372.661051 0.148708 512s100.22887 255.182109 232.429857 279.570142c24.536741 132.200988 140.231194 232.429858 279.570143 232.429858s255.182109-100.22887 279.570142-232.429858c132.349695-24.536741 232.429858-140.379901 232.429858-279.570142z" fill="#493A31" p-id="1574"></path><path d="M512.148708 20.521638c127.144932 0 236.296253 90.562881 259.494626 215.625908 1.487075 8.327621 8.030206 14.870752 16.357828 16.357827 143.354052 26.618647 237.783328 164.47052 211.164682 307.675864-19.926808 107.218124-103.946558 191.237874-211.164682 211.164682-8.327621 1.487075-14.870752 8.030206-16.357828 16.357828-26.618647 143.354052-164.47052 237.932036-307.675864 211.164682-107.218124-19.926808-191.237874-103.946558-211.164682-211.164682-1.487075-8.327621-8.030206-14.870752-16.357827-16.357828C93.090909 744.727273-1.487075 606.875399 25.131571 463.670055c19.926808-107.218124 103.946558-191.237874 211.164682-211.164682 8.327621-1.487075 14.870752-8.030206 16.357828-16.357827 23.347081-125.063026 132.349695-215.774615 259.494627-215.625908m0-20.521638c-139.338949 0-255.182109 100.22887-279.570143 232.429858C100.377578 256.817891 0.297415 372.661051 0.297415 512s100.22887 255.182109 232.429858 279.570142c24.536741 132.200988 140.231194 232.429858 279.570142 232.429858s255.182109-100.22887 279.570142-232.429858c132.200988-24.388034 232.429858-140.231194 232.429858-279.570142s-100.22887-255.182109-232.429858-279.570142C767.330816 100.22887 651.487656 0 512.148708 0z" fill="#5D4E44" p-id="1575"></path><path d="M240.608771 239.716526h542.63375v542.63375H240.608771z" fill="#493A31" p-id="1576"></path><path d="M783.391229 792.759802h-542.782458c-5.650886 0-10.260819-4.609933-10.260819-10.260819V239.865234c0-5.650886 4.609933-10.260819 10.260819-10.260819h542.63375c5.650886 0 10.260819 4.609933 10.260819 10.260819v542.633749c0 5.650886-4.461226 10.260819-10.112111 10.260819z m-532.521639-20.521638h522.26082V249.977345H250.86959v522.260819z" fill="#5D4E44" p-id="1577"></path><path d="M271.391229 260.238164h209.826314c5.650886 0 10.260819 4.609933 10.260819 10.260819V480.325298c0 5.650886-4.609933 10.260819-10.260819 10.260819H271.391229c-5.650886 0-10.260819-4.609933-10.260819-10.260819V270.498983c0-5.650886 4.609933-10.260819 10.260819-10.260819z" fill="#FFFFFF" p-id="1578"></path><path d="M481.217543 495.79088H271.391229c-8.476329 0-15.316875-6.840546-15.316875-15.316875V270.498983c0-8.476329 6.840546-15.316875 15.316875-15.316874h209.975021c8.476329 0 15.316875 6.840546 15.316875 15.316874V480.325298c0 8.625036-6.989254 15.465582-15.465582 15.465582zM271.391229 265.442928c-2.825443 0-5.056056 2.230613-5.056056 5.056055V480.325298c0 2.825443 2.230613 5.056056 5.056056 5.056055h209.975021c2.825443 0 5.056056-2.230613 5.056056-5.056055V270.498983c0-2.825443-2.230613-5.056056-5.056056-5.056055H271.391229z" fill="#5D4E44" p-id="1579"></path><path d="M542.782457 260.238164h209.826314c5.650886 0 10.260819 4.609933 10.260819 10.260819V480.325298c0 5.650886-4.609933 10.260819-10.260819 10.260819H542.782457c-5.650886 0-10.260819-4.609933-10.260819-10.260819V270.498983c0-5.650886 4.461226-10.260819 10.260819-10.260819z" fill="#FFFFFF" p-id="1580"></path><path d="M752.608771 495.79088H542.782457c-8.476329 0-15.316875-6.840546-15.316875-15.316875V270.498983c0-8.476329 6.840546-15.316875 15.316875-15.316874h209.826314c8.476329 0 15.316875 6.840546 15.316875 15.316874V480.325298c0 8.625036-6.840546 15.465582-15.316875 15.465582zM542.782457 265.442928c-2.825443 0-5.056056 2.230613-5.056056 5.056055V480.325298c0 2.825443 2.230613 5.056056 5.056056 5.056055h209.826314c2.825443 0 5.056056-2.230613 5.056056-5.056055V270.498983c0-2.825443-2.230613-5.056056-5.056056-5.056055H542.782457z" fill="#5D4E44" p-id="1581"></path><path d="M271.391229 531.629393h209.826314c5.650886 0 10.260819 4.609933 10.260819 10.260819v209.826314c0 5.650886-4.609933 10.260819-10.260819 10.260819H271.391229c-5.650886 0-10.260819-4.609933-10.260819-10.260819V541.890212c0-5.650886 4.609933-10.260819 10.260819-10.260819z" fill="#FFFFFF" p-id="1582"></path><path d="M481.217543 767.033401H271.391229c-8.476329 0-15.316875-6.840546-15.316875-15.316875V541.890212c0-8.476329 6.840546-15.316875 15.316875-15.316875h209.975021c8.476329 0 15.316875 6.840546 15.316875 15.316875v209.975022c0 8.327621-6.989254 15.168167-15.465582 15.168167zM271.391229 536.685449c-2.825443 0-5.056056 2.230613-5.056056 5.056056v209.975021c0 2.825443 2.230613 5.056056 5.056056 5.056056h209.975021c2.825443 0 5.056056-2.230613 5.056056-5.056056V541.890212c0-2.825443-2.230613-5.056056-5.056056-5.056056H271.391229z" fill="#5D4E44" p-id="1583"></path><path d="M542.782457 531.629393h209.826314c5.650886 0 10.260819 4.609933 10.260819 10.260819v209.826314c0 5.650886-4.609933 10.260819-10.260819 10.260819H542.782457c-5.650886 0-10.260819-4.609933-10.260819-10.260819V541.890212c0-5.650886 4.461226-10.260819 10.260819-10.260819z" fill="#FFFFFF" p-id="1584"></path><path d="M752.608771 767.033401H542.782457c-8.476329 0-15.316875-6.840546-15.316875-15.316875V541.890212c0-8.476329 6.840546-15.316875 15.316875-15.316875h209.826314c8.476329 0 15.316875 6.840546 15.316875 15.316875v209.975022c0 8.327621-6.840546 15.168167-15.316875 15.168167zM542.782457 536.685449c-2.825443 0-5.056056 2.230613-5.056056 5.056056v209.975021c0 2.825443 2.230613 5.056056 5.056056 5.056056h209.826314c2.825443 0 5.056056-2.230613 5.056056-5.056056V541.890212c0-2.825443-2.230613-5.056056-5.056056-5.056056H542.782457z" fill="#5D4E44" p-id="1585"></path><path d="M642.856672 668.829927l35.853383-71.688922 4.520709 2.261841-35.853384 71.688923z" fill="#9E6C65" p-id="1586"></path><path d="M678.403718 595.573628m-17.844903 0a17.844903 17.844903 0 1 0 35.689805 0 17.844903 17.844903 0 1 0-35.689805 0Z" fill="#9E6C65" p-id="1587"></path><path d="M657.88208 626.356085m-10.260819 0a10.260819 10.260819 0 1 0 20.521638 0 10.260819 10.260819 0 1 0-20.521638 0Z" fill="#9E6C65" p-id="1588"></path><path d="M693.720593 621.151322m-10.26082 0a10.260819 10.260819 0 1 0 20.521639 0 10.260819 10.260819 0 1 0-20.521639 0Z" fill="#9E6C65" p-id="1589"></path><path d="M658.951287 637.895789l29.537775-13.718269 2.129492 4.58614-29.537776 13.716781z" fill="#9E6C65" p-id="1590"></path><path d="M698.925356 705.617194c0-14.870752-6.543131-29.146674-17.844903-38.812663v-1.040953c0-6.245716-2.230613-11.450479-5.056056-11.450479h-56.360151c-2.825443 0-5.056056 5.056056-5.056055 11.450479v1.040953c-21.413883 18.291025-23.941911 50.560558-5.650886 71.974441 1.78449 2.081905 3.717688 4.015103 5.799593 5.799593v0.892245c0 6.245716 2.230613 11.450479 5.056056 11.45048h56.360151c2.825443 0 5.056056-5.056056 5.056056-11.45048v-0.892245c11.004357-9.665989 17.696195-23.941911 17.696195-38.961371z" fill="#72A48E" p-id="1591"></path><path d="M10.260819 500.846936h1003.478362c5.650886 0 10.260819 4.609933 10.260819 10.260819 0 5.650886-4.609933 10.260819-10.260819 10.260819H10.260819c-5.650886 0-10.260819-4.609933-10.260819-10.260819 0-5.650886 4.609933-10.260819 10.260819-10.260819z" fill="#5D4E44" p-id="1592"></path><path d="M225.291897 748.891083V536.685449c0-5.650886-4.609933-10.260819-10.260819-10.260819H37.325588c-5.650886 0-10.260819 4.609933-10.260819 10.409526v1.040953c10.558234 104.987511 84.168458 193.022364 185.140866 220.979378 5.502178 1.487075 11.153064-1.78449 12.640139-7.137961 0.297415-1.040953 0.446123-1.933198 0.446123-2.825443z" fill="#D7CFB5" p-id="1593"></path><path d="M215.031078 536.685449v212.205634C118.81731 722.421144 47.4377 637.063026 37.474296 536.685449h177.556782m0-10.260819H37.325588c-5.650886 0-10.260819 4.609933-10.260819 10.409526v1.040953c10.558234 104.987511 84.168458 193.022364 185.140866 220.979378 5.502178 1.487075 11.153064-1.635783 12.640139-7.137961 0.297415-0.892245 0.446123-1.78449 0.446123-2.825443V536.685449c0-5.650886-4.609933-10.260819-10.260819-10.260819z" fill="#5D4E44" p-id="1594"></path><path d="M212.205635 263.50973C111.828057 291.466744 38.515248 379.35289 27.362184 484.340401c-0.59483 5.650886 3.420273 10.706942 9.071159 11.301772H215.031078c5.650886 0 10.260819-4.609933 10.260819-10.26082V273.473134c0-5.650886-4.609933-10.260819-10.260819-10.260819-1.040953-0.148708-1.933198 0-2.825443 0.297415z" fill="#D7CFB5" p-id="1595"></path><path d="M215.031078 273.324426v212.205635l-177.556782-0.148708c5.204763-49.22219 24.834156-95.916352 56.657566-133.83677 31.377287-37.771711 73.610224-64.985187 120.899216-78.220157m0-10.260819c-0.892245 0-1.933198 0.148708-2.825443 0.446123C111.828057 291.466744 38.515248 379.35289 27.362184 484.340401c-0.59483 5.650886 3.420273 10.706942 9.071159 11.301772H215.031078c5.650886 0 10.260819-4.609933 10.260819-10.26082V273.473134c0-5.799593-4.609933-10.260819-10.260819-10.409527z" fill="#5D4E44" p-id="1596"></path><path d="M512 998.273599c117.330235 0 218.748766-77.774034 248.787685-187.520186 1.487075-5.502178-1.78449-11.153064-7.286668-12.64014-0.892245-0.297415-1.78449-0.297415-2.676736-0.297415H273.175719c-5.650886 0-10.260819 4.609933-10.260819 10.260819 0 0.892245 0.148708 1.78449 0.297415 2.676736 30.03892 109.894859 131.45745 187.520186 248.787685 187.520186z" fill="#D7CFB5" p-id="1597"></path><path d="M750.824281 808.076677c-28.849259 106.028464-127.144932 180.08481-238.824281 180.08481s-209.975022-74.056346-238.824281-180.08481h477.648562m0-10.260819H273.175719c-5.650886 0-10.260819 4.609933-10.260819 10.260819 0 0.892245 0.148708 1.78449 0.297415 2.676736 29.890212 109.746152 131.308742 187.520186 248.787685 187.520186S730.748766 920.499564 760.787685 810.753413c1.487075-5.502178-1.78449-11.153064-7.286668-12.64014-0.892245-0.148708-1.78449-0.297415-2.676736-0.297415z" fill="#5D4E44" p-id="1598"></path><path d="M512 25.875109c-116.43799 0-217.112983 76.733082-247.598025 185.140865-1.487075 5.502178 1.635783 11.153064 7.137961 12.64014 0.892245 0.297415 1.78449 0.297415 2.676736 0.297415h475.417949c5.650886 0 10.260819-4.609933 10.260819-10.260819 0-0.892245-0.148708-1.78449-0.297415-2.676736C729.112983 102.608191 628.289283 25.875109 512 25.875109z" fill="#D7CFB5" p-id="1599"></path><path d="M512 36.135928c110.638397 0 208.339239 73.164101 237.634621 177.705489H274.216672c29.444089-104.690096 127.144932-177.705489 237.783328-177.705489m0-10.260819c-116.43799 0-217.112983 76.733082-247.598025 185.140865-1.487075 5.502178 1.635783 11.153064 7.137961 12.64014 0.892245 0.297415 1.78449 0.297415 2.676736 0.297415h475.417949c5.650886 0 10.260819-4.609933 10.260819-10.260819 0-0.892245-0.148708-1.78449-0.297415-2.676736-30.485042-108.556491-131.308742-185.140866-247.598025-185.140865z" fill="#5D4E44" p-id="1600"></path><path d="M798.708103 273.324426v212.205635c0 5.650886 4.609933 10.260819 10.260819 10.260819h177.854197c5.650886 0 10.260819-4.609933 10.260819-10.409527v-1.040952c-11.153064-105.136218-84.763288-193.022364-185.289573-220.830671-5.502178-1.487075-11.153064 1.78449-12.640139 7.137961-0.297415 0.892245-0.446123 1.78449-0.446123 2.676735z" fill="#D7CFB5" p-id="1601"></path><path d="M808.968922 273.324426c47.4377 13.086262 89.670636 40.299739 121.047924 78.07145 31.82341 38.069126 51.60151 84.763288 56.806273 133.985477H808.968922V273.324426m0-10.260819c-5.650886 0-10.260819 4.609933-10.260819 10.260819v212.205635c0 5.650886 4.609933 10.260819 10.260819 10.260819h178.002905c5.650886 0 10.260819-4.609933 10.260819-10.409527v-1.040952c-11.153064-105.136218-84.763288-193.022364-185.289573-220.830671-1.18966-0.297415-2.081905-0.446123-2.974151-0.446123z" fill="#5D4E44" p-id="1602"></path><path d="M811.645658 758.854487c101.121115-27.659599 175.028754-115.84316 185.586988-220.979378 0.59483-5.650886-3.568981-10.706942-9.219866-11.301772H808.968922c-5.650886 0-10.260819 4.609933-10.260819 10.260819v212.205635c0 5.650886 4.609933 10.260819 10.260819 10.260819l2.676736-0.446123z" fill="#D7CFB5" p-id="1603"></path><path d="M986.971827 536.685449c-10.112112 100.526285-81.64043 185.735696-178.151612 212.205634V536.685449h178.151612m0-10.260819H808.968922c-5.650886 0-10.260819 4.609933-10.260819 10.260819v212.205634c0 5.650886 4.609933 10.260819 10.260819 10.260819 0.892245 0 1.78449-0.148708 2.676736-0.297415 101.121115-27.659599 175.028754-115.84316 185.586988-220.979378 0.59483-5.650886-3.568981-10.706942-9.219866-11.301772-0.297415 0-0.59483-0.148708-1.040953-0.148707zM512 229.604415c5.650886 0 10.260819 4.609933 10.260819 10.260819v542.633749c0 5.650886-4.609933 10.260819-10.260819 10.260819-5.650886 0-10.260819-4.609933-10.260819-10.260819v-542.782457c0-5.650886 4.609933-10.112112 10.260819-10.112111z" fill="#5D4E44" p-id="1604"></path></svg>