<?xml version="1.0" standalone="no"?><!DOCTYPE svg PUBLIC "-//W3C//DTD SVG 1.1//EN" "http://www.w3.org/Graphics/SVG/1.1/DTD/svg11.dtd"><svg t="1760777416975" class="icon" viewBox="0 0 1125 1024" version="1.1" xmlns="http://www.w3.org/2000/svg" p-id="26495" xmlns:xlink="http://www.w3.org/1999/xlink" width="219.7265625" height="200"><path d="M497.838543 86.580616c0-35.230942 29.70452-63.784124 66.547335-63.784124s66.777603 28.553182 66.777603 63.784124-29.934787 63.784124-66.777603 63.784124-66.547335-28.553182-66.547335-63.784124z m527.312795 135.627614l-1.151338-12.664718v-10.822577c-2.763211-25.099168-17.960872-49.046998-35.921745-67.238138l-9.440971-7.59883-9.901507-6.447493-8.059366-4.144817-8.519901-2.993478c-29.934787-7.829098-61.251181-11.51338-92.337306-5.296155l-24.178098 6.67776-20.724083 6.217225-10.822577 5.065887-18.651676 10.59231-5.986957 4.144816c-16.118732 9.671239-25.099168 24.178098-34.309872 38.915224l-3.914549 6.447493c-11.51338 14.737126-19.342478 32.928266-28.322914 49.507533l-4.144817 7.138296-29.474252 47.204857-4.605352 6.67776-4.83562 6.67776-4.835619 6.677761-14.967394 20.033281-5.296155 6.447492-22.566224 26.250506h134.936811l1.611873-10.822577 6.447493-12.664718 10.131774-11.052844c-19.11221-11.51338-21.645154-35.691477-10.822577-52.961547l11.052845-9.671239 6.908028-2.763212c7.138295-2.532944 13.125253-2.532944 20.263548-1.381605-5.986957-21.875422 8.289633-45.823252 31.776928-52.040477l5.065887-1.381605 5.296155-0.690803c8.750169 0.92107 16.348999 4.605352 23.257027 9.901506l5.065888 4.144817 4.835619 4.375084c-7.598831 2.763211-13.125253 8.059366-17.27007 14.737127l-3.684281 6.908027-3.223747 7.829099-1.381605 8.059366c-1.151338 9.440971 0 19.11221 2.993479 27.862379l5.986957 12.894985 8.980436 11.283112 11.052845 8.980437 12.204183 6.447492 13.35552 4.144817 15.427929 1.611873c10.131774 0 20.033281-1.381606 29.70452-3.914549l7.138295-2.072408 25.329436-12.894986 5.526422-4.144816c10.362042-6.908028 16.348999-17.27007 22.566225-27.632112l2.072408-4.605352 1.611873-4.605352 2.072409-7.829098 1.84214-7.829098 1.611874-5.526423 1.151338-5.75669 1.151338-11.743647 0.690802-12.43445z m-521.556105 137.700023l-22.796492-26.250506-5.296155-6.447493-14.967394-20.033281-4.835619-6.67776-4.83562-6.67776-4.605352-6.677761-29.474252-47.204857-4.144817-7.138295c-9.210704-16.579267-17.039802-34.540139-28.322914-49.507533l-4.144817-6.447493c-8.980436-14.737126-18.19114-29.243985-34.309872-38.915224l-5.986957-4.144817-18.651675-10.592309-10.822577-5.065887-20.724084-6.217225-24.408365-6.677761c-31.316393-5.986957-62.402519-2.532944-92.337306 5.296155l-8.519901 2.993479-8.059366 4.144817-9.901507 6.447492-9.210704 7.598831c-17.730605 18.19114-33.158534 42.13897-35.46121 67.238138v10.822577l-1.381605 12.664718 0.460535 12.43445 1.151338 11.743647 1.151338 5.75669 1.611873 5.526423 1.842141 7.829098 2.072408 7.829098 1.842141 4.605352 2.072409 4.605352c6.217225 10.592309 12.204183 20.954351 22.566224 27.632112l5.526422 4.144816 25.329436 12.894986 7.138295 2.072408c9.440971 2.532944 19.572746 3.914549 29.474253 3.914549l15.427929-1.611873 13.125253-4.144817 12.43445-6.447492 11.052844-8.980437 8.980437-11.283112 5.986957-12.894985c2.993479-8.750169 4.144817-18.421408 2.763211-27.862379l-1.151338-8.059366-3.223746-7.829099-3.684282-6.908027c-4.144817-6.67776-9.671239-11.973915-17.270069-14.737127l5.065887-4.375084 5.065887-4.144817c6.908028-5.065887 14.737126-8.980436 23.487295-9.901506l5.296154 0.690803 5.065888 1.381605c23.257027 6.217225 37.763886 30.165055 31.776928 52.040477 7.138295-1.151338 13.125253-1.151338 20.263548 1.381605l6.908028 2.763212 11.052845 9.671239c10.822577 17.27007 8.519901 41.448167-10.822577 52.961547l10.131774 11.052844 6.447493 12.664718 1.611873 10.822577h134.936811z m621.722509 0h-22.105689c-0.690803-20.493816-11.052845-39.836294-20.033281-59.178772l1.151338-6.908028 4.144817-20.033281 1.842141-7.829098c5.986957-29.013717 5.526422-59.178772 2.302676-89.11356l-1.151338-8.519901-4.83562-24.868901-1.381605-5.526422c-1.611873-11.51338-8.750169-20.493816-8.059366-32.697999l3.914549-2.763211 7.598831-18.881943 2.072408-6.67776 3.223746-13.816056 0.460535-5.986957v-5.986958l-0.460535-7.829098-0.92107-7.368563-0.460535-4.83562-6.217225-23.487294-2.993479-7.368563-3.684282 7.368563c-6.908028 13.355521-20.263548 24.8689-34.770407 32.007196l-5.296154 2.532943-17.039803 5.526422-11.513379 2.072409c-9.440971 0-18.881943 0.92107-29.70452-1.381606-33.619069-6.908028-64.935462-14.967394-98.324264-12.43445l-11.973915 1.151338c-15.888464 1.842141-31.316393 5.526422-46.974589 10.131774l-9.671239 2.072409h-9.67124a19.618799 19.618799 0 0 1-14.506858-5.526423c-15.427929-17.27007-32.467731-32.237463-56.876096-32.697998l-7.829099-0.460536-15.888464 1.151338-7.59883 0.690803-15.197662 2.532944 13.355521 2.072408 5.75669 2.993479c11.973915 7.598831 16.809535 21.414886 18.651675 35.000674v8.289634l-1.381606 5.75669c-4.605352 12.894985-16.579267 24.178098-23.94783 36.612548l-3.223746 6.67776c-10.592309 24.8689-15.427929 51.349674-26.941309 75.067236l-2.763211 6.447493-9.210704 18.651675-3.684281 6.908028-3.684282 6.217225-3.684281 5.986958-23.94783 33.388801-5.065887 6.217225-22.566225 23.717563-5.986957 5.526422-24.868901 20.033281-24.8689-20.033281-5.986958-5.526422-22.566224-23.717563-5.296155-6.217225-23.717562-33.388801-3.684282-5.986958-3.684281-6.217225-3.684282-6.908028-9.210704-18.651675-2.763211-6.447493c-11.743647-23.717562-16.348999-50.198336-26.941308-75.067236l-3.223747-6.67776c-7.368563-12.43445-19.11221-23.487295-23.717562-36.612548l-1.611873-5.75669v-8.289634c2.072408-13.585788 6.908028-27.401844 18.881943-35.000674l5.756689-2.993479 13.355521-2.072408-15.197661-2.532944-7.598831-0.690803-15.888464-1.151338-7.829098 0.460536c-24.638633 0.460535-41.2179 15.658197-57.106364 32.697998-3.454014 3.454014-8.289633 5.75669-14.276591 5.75669h-9.671239l-9.671239-2.302676c-15.658197-4.605352-31.086125-8.289633-46.97459-10.131774l-11.973915-1.151338c-33.619069-2.532944-64.705195 5.526422-98.324263 12.43445-10.822577 2.302676-20.493816 1.151338-29.70452 1.381606l-11.51338-2.072409-17.039802-5.526422-5.296155-2.532943c-14.276591-7.138295-27.632112-18.651675-34.540139-32.007196L44.441646 0.230268 41.448167 7.598831l-6.447492 23.487294-0.460536 4.83562-0.92107 7.368563-0.460535 7.829098v5.986958l0.460535 5.986957 3.223746 13.816056 1.842141 6.67776 7.598831 18.881943 3.914549 2.763211c0.690803 11.973915-6.447493 21.184619-8.059366 32.697999l-1.381605 5.526422-4.83562 24.868901-1.151338 8.519901c-3.454014 29.934787-3.684282 60.099843 2.072408 89.11356l1.842141 7.829098 4.144817 20.033281 1.151338 6.908028c-9.210704 19.342478-19.572746 38.454689-20.263549 59.178772H0v66.317067h1125.087475v-66.317067zM0 957.682932h1125.087475v66.317068H0v-66.317068z m595.241736-448.100742v341.486845h396.290533V543.431527H748.599955v165.332134h89.343827v-90.264898h64.014392v151.516078h-217.372611v-287.834495h370.961098v430.13987H529.845739V540.438048H133.555206v307.867776h242.932314v-165.332134h-89.574095v90.264898H222.899033V621.72251h217.372611v287.834495H69.540814V478.9566h525.700922v30.62559z" fill="#BE9C78" p-id="26496"></path></svg>