<?xml version="1.0" standalone="no"?><!DOCTYPE svg PUBLIC "-//W3C//DTD SVG 1.1//EN" "http://www.w3.org/Graphics/SVG/1.1/DTD/svg11.dtd"><svg t="1760777076024" class="icon" viewBox="0 0 1024 1024" version="1.1" xmlns="http://www.w3.org/2000/svg" p-id="2026" xmlns:xlink="http://www.w3.org/1999/xlink" width="200" height="200"><path d="M512 512m-512 0a512 512 0 1 0 1024 0 512 512 0 1 0-1024 0Z" fill="#EEE5D9" p-id="2027"></path><path d="M495.224471 387.885176v51.892706h35.026823v21.082353h-96.165647v50.206118h89.027765v21.504h-89.027765v112.64c0 26.985412-22.799059 49.784471-49.784471 49.784471h-12.227764v-21.112471h12.227764a28.973176 28.973176 0 0 0 28.702118-28.672v-112.64h-89.449412v-21.504h89.449412v-50.206118h-96.617412v-21.082353h35.026824v-51.892706h21.082353v51.892706h101.677176v-51.892706h21.052236z m-124.024471 164.532706c-2.108235 55.717647-13.071059 102.128941-32.045176 143.872l-19.817412-8.884706c18.130824-38.791529 28.672-83.094588 30.780235-135.830588l21.082353 0.843294z m-47.676235-206.305882h89.449411v-37.556706h21.112471v37.556706h89.027765v21.112471h-199.55953v-21.112471z m170.014117 204.197647l26.593883 139.625412-21.504 3.824941-26.172236-139.655529 21.082353-3.794824z m51.892706 146.793412l6.746353-325.692235c0-26.985412 22.799059-49.784471 49.784471-49.784471h104.628706v21.504h-104.628706a28.912941 28.912941 0 0 0-28.702118 28.250353l-1.264941 66.228706h135.860706v21.11247h-32.466824v238.351059h-21.11247v-238.351059h-82.672941c-1.686588 79.721412-3.794824 159.051294-5.059765 238.351059h-21.112471z" fill="#B5A28A" p-id="2028"></path></svg>