<?xml version="1.0" standalone="no"?><!DOCTYPE svg PUBLIC "-//W3C//DTD SVG 1.1//EN" "http://www.w3.org/Graphics/SVG/1.1/DTD/svg11.dtd"><svg t="1760777297524" class="icon" viewBox="0 0 1024 1024" version="1.1" xmlns="http://www.w3.org/2000/svg" p-id="16181" xmlns:xlink="http://www.w3.org/1999/xlink" width="200" height="200"><path d="M0 512c0 282.76736 229.23264 512 512 512s512-229.23264 512-512S794.76736 0 512 0 0 229.23264 0 512z" fill="#EEE5D9" p-id="16182"></path><path d="M497.62304 706.46784v-58.19904H370.60608c-30.48448 0-54.9632-24.93952-54.9632-54.5024V416.4096c0-29.55776 24.47872-54.5024 54.9632-54.5024h127.01696V304.17408h23.0912v57.73312h127.01696c29.55776 0 54.50752 24.93952 54.50752 54.5024v177.36192c0 29.55776-24.94464 54.5024-54.50752 54.5024h-127.01696v58.19904h-23.0912z m0-81.29024v-239.7184H370.60608c-18.01216 0-31.40608 13.85472-31.40608 30.94528v177.36192c0 17.09056 13.39392 31.4112 31.40608 31.4112h127.01696z m23.0912-239.71328v239.7184h127.01696c18.01728 0 31.4112-14.32064 31.4112-31.4112V416.4096c0-17.09056-13.39392-30.94528-31.4112-30.94528h-127.01696z" fill="#B5A28A" p-id="16183"></path></svg>