<?xml version="1.0" standalone="no"?><!DOCTYPE svg PUBLIC "-//W3C//DTD SVG 1.1//EN" "http://www.w3.org/Graphics/SVG/1.1/DTD/svg11.dtd"><svg t="1760777701426" class="icon" viewBox="0 0 1024 1024" version="1.1" xmlns="http://www.w3.org/2000/svg" p-id="2530" xmlns:xlink="http://www.w3.org/1999/xlink" width="200" height="200"><path d="M204.8 0h614.4c5.382019 0 9.772614 4.390595 9.772614 9.772614v1004.454772c0 5.382019-4.390595 9.772614-9.772614 9.772614H204.8c-5.382019 0-9.772614-4.390595-9.772614-9.772614V9.772614C195.027386 4.390595 199.417981 0 204.8 0z" fill="#493A31" p-id="2531"></path><path d="M497.270263 24.360719h29.317842v965.505948h-29.317842z" fill="#FFFFFF" p-id="2532"></path><path d="M199.842877 14.588105h4.815491V1024H195.027386V19.545228c0-2.69101 2.124481-4.957123 4.815491-4.957123zM824.015491 14.588105h4.815491V1024h-9.772614V19.545228c0.141632-2.69101 2.266113-4.957123 4.957123-4.957123z" fill="#5D4E44" p-id="2533"></path><path d="M365.694053 512c0-63.876072 41.498202-120.387275 102.4-139.507607V24.360719H209.615491v965.505948h258.478562V651.507607c-61.04343-19.120332-102.4-75.631535-102.4-139.507607z" fill="#D7CFB5" p-id="2534"></path><path d="M458.321438 34.133333V365.410788c-81.013555 29.601107-122.511757 119.254219-92.91065 200.267774 15.721162 43.197787 49.854495 77.189488 92.91065 92.91065v321.504841H219.388105V34.133333h238.933333m9.772615-9.772614H209.615491v965.505948h258.478562V651.507607c-77.047856-24.219087-119.962379-106.507331-95.60166-183.555187 14.304841-45.605533 49.996127-81.296819 95.60166-95.601659V24.360719z" fill="#5D4E44" p-id="2535"></path><path d="M555.905947 24.360719V372.492393c77.047856 24.219087 119.962379 106.507331 95.60166 183.555187-14.304841 45.605533-49.996127 81.296819-95.60166 95.601659v338.217428h258.478562V24.360719H555.905947z" fill="#D7CFB5" p-id="2536"></path><path d="M804.470263 34.133333V980.094053H565.536929V658.589212c81.013555-29.601107 122.511757-119.254219 92.910651-200.267774-15.721162-43.197787-49.854495-77.189488-92.910651-92.91065V34.133333h238.933334m9.772614-9.772614H555.905947V372.492393c77.047856 24.219087 119.962379 106.507331 95.60166 183.555187-14.304841 45.605533-49.996127 81.296819-95.60166 95.601659v338.217428h258.478562V24.360719h-0.141632z" fill="#5D4E44" p-id="2537"></path><path d="M531.403596 24.360719v342.749654c77.33112 10.764039 131.292946 82.146611 120.528907 159.619364-8.781189 62.601383-57.927524 111.747718-120.528907 120.528908v342.749654h282.839281V24.360719H531.403596z" fill="#D7CFB5" p-id="2538"></path><path d="M804.470263 34.133333V980.094053H541.17621V655.473306c81.863347-16.146058 135.117012-95.60166 118.970955-177.606639-11.897095-60.193638-58.918949-107.215491-118.970955-118.970955V34.133333h263.294053m9.772614-9.772614H531.403596v342.749654c77.33112 10.764039 131.292946 82.146611 120.528907 159.619364-8.781189 62.601383-57.927524 111.747718-120.528907 120.528908v342.749654h282.839281V24.360719z" fill="#5D4E44" p-id="2539"></path><path d="M370.509544 507.184509c0-70.53278 51.978976-130.301521 121.945228-140.074136v-342.749654H209.615491v965.505948H492.454772v-342.749655c-69.82462-9.772614-121.803596-69.399723-121.945228-139.932503z" fill="#D7CFB5" p-id="2540"></path><path d="M482.682158 34.133333v324.762379c-81.863347 16.146058-135.117012 95.60166-118.970955 177.606639 11.897095 60.193638 58.918949 107.215491 118.970955 118.970955V980.094053H219.388105V34.133333h263.294053m9.772614-9.772614H209.615491v965.505948H492.454772v-342.749655c-77.33112-10.764039-131.292946-82.146611-120.528908-159.619363 8.781189-62.601383 57.927524-111.747718 120.528908-120.528908V24.360719z" fill="#5D4E44" p-id="2541"></path><path d="M512 507.184509m-136.533333 0a136.533333 136.533333 0 1 0 273.066666 0 136.533333 136.533333 0 1 0-273.066666 0Z" fill="#FFFFFF" p-id="2542"></path><path d="M448.548824 560.721438c24.360719-4.815491 29.317842 53.678562 43.905948 48.721439 35.26639-11.755463 58.494053-126.760719 92.627386-126.760719 19.545228 0 30.450899 38.66556 36.541079 77.472752 29.317842-60.618534 4.107331-133.559059-56.511204-162.876902-60.618534-29.317842-133.559059-4.107331-162.876902 56.511204-21.103181 43.481051-14.446473 95.176763 16.712587 132.001106 6.515076-12.038728 16.004426-22.236238 29.601106-25.06888z" fill="#FFFFFF" p-id="2543"></path><path d="M512 628.988105c46.738589 0 89.369848-26.768465 109.764869-68.833195-6.09018-38.807192-16.995851-77.472752-36.541079-77.472752-34.133333 0-57.360996 115.005256-92.627386 126.760719-14.588105 4.815491-19.545228-53.678562-43.905948-48.721439-13.59668 2.69101-23.08603 12.88852-29.601106 25.06888 22.944398 27.476625 56.9361 43.339419 92.91065 43.197787z" fill="#678A75" p-id="2544"></path><path d="M555.905947 443.733333m-9.772614 0a9.772614 9.772614 0 1 0 19.545229 0 9.772614 9.772614 0 1 0-19.545229 0Z" fill="#B87D75" p-id="2545"></path><path d="M420.505671 494.154357c2.266113-2.407746 4.815491-4.532227 7.648133-6.231812 2.832642-1.841217 5.806916-3.257538 9.064453-4.248963 3.39917-1.133057 6.79834-1.557953 10.339143-1.416321 3.965698 0.283264 7.789765 1.557953 11.188935 3.682435l-2.69101 0.991424c0.566528-3.824066 1.841217-7.506501 3.682434-10.764038 1.841217-3.115906 4.248963-5.806916 7.081605-7.931397 2.69101-1.982849 5.806916-3.682434 9.064453-4.815491 3.257538-1.133057 6.515076-1.982849 9.914247-2.407746-3.115906 1.274689-6.09018 2.69101-8.922822 4.248963s-5.523651 3.540802-7.931397 5.665283c-2.407746 2.124481-4.390595 4.815491-5.806916 7.648133-1.557953 2.974274-2.69101 6.231812-3.115905 9.630982l-0.283265 2.549378-2.266113-1.416321c-2.832642-1.699585-5.948548-2.832642-9.347718-3.257538-3.257538-0.283264-6.515076-0.141632-9.630982 0.70816-3.115906 0.70816-6.231812 1.699585-9.206086 2.974274-3.115906 1.274689-6.09018 2.69101-8.781189 4.390595z" fill="#5D4E44" p-id="2546"></path><path d="M204.8 0h614.4c5.382019 0 9.772614 4.390595 9.772614 9.772614v9.772614H195.027386V9.772614C195.027386 4.390595 199.417981 0 204.8 0zM160.894053 994.682158h702.211894c5.382019 0 9.772614 4.390595 9.772615 9.772614v9.772614c0 5.382019-4.390595 9.772614-9.772615 9.772614H160.894053c-5.382019 0-9.772614-4.390595-9.772615-9.772614v-9.772614c0-5.382019 4.390595-9.772614 9.772615-9.772614z" fill="#5D4E44" p-id="2547"></path><path d="M180.439281 731.388105H195.027386v263.294053H180.439281z" fill="#493A31" p-id="2548"></path><path d="M160.894053 731.388105h29.317842V1024H160.894053c-5.382019 0-9.772614-4.390595-9.772615-9.772614V741.160719c0-5.382019 4.390595-9.772614 9.772615-9.772614z" fill="#5D4E44" p-id="2549"></path><path d="M828.972614 731.388105h14.588105v263.294053h-14.588105z" fill="#493A31" p-id="2550"></path><path d="M863.105947 1024H833.788105V731.388105h29.317842c5.382019 0 9.772614 4.390595 9.772615 9.772614v273.066667c0 5.382019-4.390595 9.772614-9.772615 9.772614z" fill="#5D4E44" p-id="2551"></path></svg>