<?xml version="1.0" standalone="no"?><!DOCTYPE svg PUBLIC "-//W3C//DTD SVG 1.1//EN" "http://www.w3.org/Graphics/SVG/1.1/DTD/svg11.dtd"><svg t="1760777690194" class="icon" viewBox="0 0 1024 1024" version="1.1" xmlns="http://www.w3.org/2000/svg" p-id="1795" xmlns:xlink="http://www.w3.org/1999/xlink" width="200" height="200"><path d="M269.292562 668.984881l26.43355-504.358009 27.568513 1.445709-26.433551 504.35801zM700.880954 166.037906l27.568513-1.444376 26.43355 504.358009-27.568512 1.444377z" fill="#5D4E44" p-id="1796"></path><path d="M236.501356 518.801771h41.3441v146.971607h-41.3441z" fill="#493A31" p-id="1797"></path><path d="M236.501356 661.238864h550.943474v82.6882H236.501356z" fill="#493A31" p-id="1798"></path><path d="M548.449259 101.359729c0-5.334723-3.334202-9.602501-7.468612-9.602501h-59.615525c-4.13441 0-7.468612 4.267778-7.468611 9.602501l-18.671529 490.66111c0 5.334723 3.334202 9.602501 7.468611 9.6025h96.958583c4.13441 0 7.468612-4.267778 7.468612-9.6025L548.449259 101.359729z m-37.343058 240.195884c-15.203959 0-27.607189-12.40323-27.473822-27.607189 0-15.203959 12.40323-27.607189 27.60719-27.473821 15.203959 0 27.473821 12.40323 27.473821 27.607189 0 15.203959-12.269862 27.473821-27.607189 27.473821z" fill="#5D4E44" p-id="1799"></path><path d="M733.297396 169.910914h-28.94087c-19.471737 0-38.143266-7.468612-52.013545-21.072154-44.544934-43.211253-61.882782-47.879135-67.350873-47.879135h-150.705913c-7.468612 0-24.406356 8.002084-61.882782 46.412086-14.137015 14.403751-33.342016 22.405835-53.480594 22.539203H290.782158c-35.609273 0-68.951289-17.737953-88.689763-47.479031-4.267778-6.268299-2.533993-14.937223 3.734306-19.071633 6.268299-4.267778 14.937223-2.533993 19.071633 3.734306v0.133368c14.670487 22.005731 39.343579 35.209169 65.750456 35.209169h28.274029c12.669966 0 24.80646-5.201355 33.742121-14.270383 27.740557-28.407398 56.948164-54.680906 81.621255-54.680906h150.705913c20.138578 0 46.812191 17.20448 86.422506 55.614483 8.802292 8.535556 20.538682 13.336806 32.808544 13.336806H733.297396c26.406877 0 51.079969-13.203438 65.750456-35.209169 4.267778-6.268299 12.803334-8.002084 19.071633-3.734306 6.268299 4.267778 8.002084 12.669966 3.867674 19.071633-19.738474 29.60771-53.08049 47.345663-88.689763 47.345663z" fill="#5D4E44" p-id="1800"></path><path d="M287.047852 596.955457h449.98385c5.067986 0 9.202396 4.13441 9.202396 9.202397v45.878614c0 5.067986-4.13441 9.202396-9.202396 9.202396H287.047852c-5.067986 0-9.202396-4.13441-9.202396-9.202396v-45.878614c0-5.067986 4.13441-9.202396 9.202396-9.202397z" fill="#D7CFB5" p-id="1801"></path><path d="M595.661554 433.179474l-4.534515-1.066945 26.806981-123.232091 45.611878-95.758271L645.274474 39.343579l4.534514-0.533472 18.404793 175.112269-46.011983 96.691846z" fill="#9E6C65" p-id="1802"></path><path d="M595.128081 435.980203l-3.867674-2.533993 106.961188-163.509247 32.541808-147.771816 50.146392-109.361813 4.13441 1.867153-50.013024 109.228445-32.808544 148.305288zM603.663637 375.297734l-31.874967-134.168273v-64.283407h4.534514v64.016671l31.7416 133.368064z" fill="#9E6C65" p-id="1803"></path><path d="M715.895531 192.680844l63.536546-40.755947 2.448638 3.816994-63.536546 40.754613z" fill="#9E6C65" p-id="1804"></path><path d="M787.578198 13.736911m-13.73691 0a13.736911 13.736911 0 1 0 27.473821 0 13.736911 13.736911 0 1 0-27.473821 0Z" fill="#9E6C65" p-id="1805"></path><path d="M792.112713 151.506121m-18.404793 0a18.404793 18.404793 0 1 0 36.809586 0 18.404793 18.404793 0 1 0-36.809586 0Z" fill="#9E6C65" p-id="1806"></path><path d="M571.78867 179.113311m-18.404793 0a18.404793 18.404793 0 1 0 36.809586 0 18.404793 18.404793 0 1 0-36.809586 0Z" fill="#9E6C65" p-id="1807"></path><path d="M659.011384 211.255014m-18.404793 0a18.404793 18.404793 0 1 0 36.809586 0 18.404793 18.404793 0 1 0-36.809586 0Z" fill="#9E6C65" p-id="1808"></path><path d="M649.808988 36.676218m-13.736911 0a13.736911 13.736911 0 1 0 27.473821 0 13.736911 13.736911 0 1 0-27.473821 0Z" fill="#9E6C65" p-id="1809"></path><path d="M672.748295 312.214639m-9.202397 0a9.202396 9.202396 0 1 0 18.404793 0 9.202396 9.202396 0 1 0-18.404793 0Z" fill="#9E6C65" p-id="1810"></path><path d="M645.274474 243.396718m-9.202397 0a9.202396 9.202396 0 1 0 18.404793 0 9.202396 9.202396 0 1 0-18.404793 0Z" fill="#9E6C65" p-id="1811"></path><path d="M759.971009 50.546496m-18.404793 0a18.404793 18.404793 0 1 0 36.809586 0 18.404793 18.404793 0 1 0-36.809586 0Z" fill="#9E6C65" p-id="1812"></path><path d="M659.011384 498.263089c0-24.939828-18.271425-46.011982-43.744725-53.880698 2.267257-2.533993 3.067465-6.001563 2.267257-9.202396-1.333681-4.80125-5.601459-8.002084-10.536077-7.868716h-26.806981c-4.934618-0.133368-9.335765 3.200834-10.536077 7.868716-0.800208 3.200834 0 6.668403 2.267257 9.202396-25.4733 7.868716-43.744725 28.94087-43.744725 53.880698 0 16.804376 8.402188 31.874967 21.605626 42.411045 3.867674 2.934097 6.401667 7.201875 7.335244 11.869758l6.935139 37.476426c0 3.867674 3.067465 6.935139 6.93514 6.935139H615.933499c3.867674 0 6.935139-3.067465 6.93514-6.935139l6.935139-37.476426c0.933576-4.667882 3.600938-8.93566 7.335244-11.869758 13.470175-10.536077 21.872363-25.606668 21.872362-42.411045z" fill="#72A48E" p-id="1813"></path><path d="M236.501356 665.773378h550.943474V684.178171H236.501356zM287.047852 688.712686h449.98385c5.067986 0 9.202396 4.13441 9.202396 9.202396v36.676218c0 5.067986-4.13441 9.202396-9.202396 9.202396H287.047852c-5.067986 0-9.202396-4.13441-9.202396-9.202396v-36.676218c0-5.067986 4.13441-9.202396 9.202396-9.202396zM264.108545 913.704611H759.971009v27.607189H264.108545zM218.229931 518.801771h45.878614c5.067986 0 9.202396 4.13441 9.202396 9.202397v27.607189H218.229931c-5.067986 0-9.202396-4.13441-9.202397-9.202396V528.137536c0-5.201355 4.001042-9.335765 9.202397-9.335765-0.133368 0 0 0 0 0z" fill="#5D4E44" p-id="1814"></path><path d="M746.234098 518.935139h41.3441v146.971608h-41.3441z" fill="#493A31" p-id="1815"></path><path d="M778.375802 1024H759.971009c-5.067986 0-9.202396-4.13441-9.202396-9.202396v-445.449336c0-5.067986 4.13441-9.202396 9.202396-9.202397h18.404793c5.067986 0 9.202396 4.13441 9.202396 9.202397v445.315967c0 5.201355-4.13441 9.335765-9.202396 9.335765zM245.703752 560.145871h18.404793c5.067986 0 9.202396 4.13441 9.202396 9.202397v445.315967c0 5.067986-4.13441 9.202396-9.202396 9.202397H245.703752c-5.067986 0-9.202396-4.13441-9.202396-9.202397V569.348268c0-5.067986 4.13441-9.202396 9.202396-9.202397zM805.982991 555.611357h-55.08101v-27.607189c0-5.067986 4.13441-9.202396 9.202396-9.202397h45.878614c5.067986 0 9.202396 4.13441 9.202397 9.202397v18.404793c0 5.201355-4.13441 9.202396-9.202397 9.202396z" fill="#5D4E44" p-id="1816"></path></svg>