<?xml version="1.0" standalone="no"?><!DOCTYPE svg PUBLIC "-//W3C//DTD SVG 1.1//EN" "http://www.w3.org/Graphics/SVG/1.1/DTD/svg11.dtd"><svg t="1760777139193" class="icon" viewBox="0 0 1024 1024" version="1.1" xmlns="http://www.w3.org/2000/svg" p-id="1401" xmlns:xlink="http://www.w3.org/1999/xlink" width="200" height="200"><path d="M425.094212 473.596678h9.16896c5.049572 0 9.168959 4.119387 9.168959 9.168959v530.736569c0 5.049572-4.119387 9.168959-9.168959 9.168959h-9.16896c-5.049572 0-9.168959-4.119387-9.168959-9.168959V482.765637c0-5.049572 4.119387-9.168959 9.168959-9.168959zM361.044381 473.596678h9.168959c5.049572 0 9.168959 4.119387 9.16896 9.168959v530.736569c0 5.049572-4.119387 9.168959-9.16896 9.168959h-9.168959c-5.049572 0-9.168959-4.119387-9.168959-9.168959V482.765637c0-5.049572 4.119387-9.168959 9.168959-9.168959zM296.99455 473.596678h9.168959c5.049572 0 9.168959 4.119387 9.168959 9.168959v530.736569c0 5.049572-4.119387 9.168959-9.168959 9.168959h-9.168959c-5.049572 0-9.168959-4.119387-9.16896-9.168959V482.765637c0-5.049572 4.119387-9.168959 9.16896-9.168959zM232.944718 473.596678h9.16896c5.049572 0 9.168959 4.119387 9.168959 9.168959v530.736569c0 5.049572-4.119387 9.168959-9.168959 9.168959h-9.16896c-5.049572 0-9.168959-4.119387-9.168959-9.168959V482.765637c0-5.049572 4.119387-9.168959 9.168959-9.168959zM168.894887 473.596678h9.168959c5.049572 0 9.168959 4.119387 9.16896 9.168959v530.736569c0 5.049572-4.119387 9.168959-9.16896 9.168959H168.894887c-5.049572 0-9.168959-4.119387-9.168959-9.168959V482.765637c0-5.049572 4.119387-9.168959 9.168959-9.168959zM681.293538 473.596678h9.168959c5.049572 0 9.168959 4.119387 9.168959 9.168959v530.736569c0 5.049572-4.119387 9.168959-9.168959 9.168959h-9.168959c-5.049572 0-9.168959-4.119387-9.16896-9.168959V482.765637c0-5.049572 4.119387-9.168959 9.16896-9.168959zM617.243706 473.596678h9.168959c5.049572 0 9.168959 4.119387 9.16896 9.168959v530.736569c0 5.049572-4.119387 9.168959-9.16896 9.168959h-9.168959c-5.049572 0-9.168959-4.119387-9.168959-9.168959V482.765637c0-5.049572 4.119387-9.168959 9.168959-9.168959zM553.193875 473.596678h9.168959c5.049572 0 9.168959 4.119387 9.168959 9.168959v530.736569c0 5.049572-4.119387 9.168959-9.168959 9.168959h-9.168959c-5.049572 0-9.168959-4.119387-9.168959-9.168959V482.765637c0-5.049572 4.119387-9.168959 9.168959-9.168959zM489.144044 473.596678h9.168959c5.049572 0 9.168959 4.119387 9.168959 9.168959v530.736569c0 5.049572-4.119387 9.168959-9.168959 9.168959H489.144044c-5.049572 0-9.168959-4.119387-9.16896-9.168959V482.765637c0-5.049572 4.119387-9.168959 9.16896-9.168959z" fill="#5D4E44" p-id="1402"></path><path d="M141.388009 473.596678h576.448482c5.049572 0 9.168959 4.119387 9.168959 9.168959v54.880872c0 5.049572-4.119387 9.168959-9.168959 9.168959H141.388009c-5.049572 0-9.168959-4.119387-9.168959-9.168959v-54.880872c0-5.049572 4.119387-9.168959 9.168959-9.168959z" fill="#493A31" p-id="1403"></path><path d="M141.388009 473.596678v9.168959h576.448482v54.880872H141.388009V473.596678m0 0c-5.049572 0-9.168959 4.119387-9.168959 9.168959v54.880872c0 5.049572 4.119387 9.168959 9.168959 9.168959h576.448482c5.049572 0 9.168959-4.119387 9.168959-9.168959v-54.880872c0-5.049572-4.119387-9.168959-9.168959-9.168959H141.388009z" fill="#5D4E44" p-id="1404"></path><path d="M132.21905 487.283675H727.00545c2.524786 0 4.518038 1.993252 4.518038 4.518038v36.542953c0 2.524786-1.993252 4.518038-4.518038 4.518038H132.21905c-2.524786 0-4.518038-1.993252-4.518038-4.518038v-36.542953c0-2.391902 1.993252-4.518038 4.518038-4.518038z" fill="#5D4E44" p-id="1405"></path><path d="M206.368025 400.377887h445.159616c24.982092 0 45.180379 20.198287 45.180379 45.180379v28.038412h-535.520374v-28.038412c0-24.982092 20.198287-45.180379 45.180379-45.180379z" fill="#493A31" p-id="1406"></path><path d="M200.919803 395.859849h457.517778c25.247859 0 45.711913 20.464054 45.711913 45.711913V459.776797c0 5.049572-4.119387 9.168959-9.168959 9.16896H164.243966c-5.049572 0-9.168959-4.119387-9.16896-9.16896v-18.337918c0.132883-25.114975 20.596937-45.579029 45.844797-45.57903z" fill="#D7CFB5" p-id="1407"></path><path d="M164.243966 423.233844h530.736569c2.524786 0 4.518038 1.993252 4.518038 4.518038s-1.993252 4.518038-4.518038 4.518038H164.243966c-2.524786 0-4.518038-1.993252-4.518038-4.518038 0-2.391902 1.993252-4.518038 4.518038-4.518038z" fill="#C7B299" p-id="1408"></path><path d="M165.041267 996.493122h530.736568c5.049572 0 9.168959 4.119387 9.16896 9.168959v9.16896c0 5.049572-4.119387 9.168959-9.16896 9.168959H165.041267c-5.049572 0-9.168959-4.119387-9.16896-9.168959v-9.16896c0-5.049572 4.119387-9.168959 9.16896-9.168959z" fill="#5D4E44" p-id="1409"></path><path d="M823.213081 824.940566L785.474176 589.072411l-60.993512-185.50532 15.946017-338.321308 9.168959 0.531533-15.946016 336.46094 60.727744 184.973787 37.871789 236.266805z" fill="#9E6C65" p-id="1410"></path><path d="M830.787438 847.397872l-116.538801-335.530755L688.469245 221.383857l-51.027252-219.257722 8.903193-2.126135 51.293018 220.320789 25.646509 289.553076 116.140151 334.467687z" fill="#9E6C65" p-id="1411"></path><path d="M814.442772 713.318453l-9.168959-1.195951 34.283934-258.591228-2.524786-123.847391 9.16896-0.132884 2.524785 124.378926v0.39865zM627.322917 273.593771l7.068072-5.840228 74.574202 90.238505-7.068072 5.840228z" fill="#9E6C65" p-id="1412"></path><path d="M794.608586 203.969478l8.735759-2.786566 41.918089 131.408461-8.735759 2.786566z" fill="#9E6C65" p-id="1413"></path><path d="M822.732043 283.373994L845.56408 104.904853l9.095873 1.16406-22.833366 178.466483zM833.179341 570.335842l-8.371659-3.85362 46.37633-99.795484 16.0789-106.439658 9.036076 1.328835-16.610434 108.300026z" fill="#9E6C65" p-id="1414"></path><path d="M785.474176 749.196989h45.711913c12.623929 0 22.855956 10.232027 22.855956 22.855957v228.692447c0 12.623929-10.232027 22.855956-22.855956 22.855957H785.474176c-12.623929 0-22.855956-10.232027-22.855956-22.855957V772.052946c0-12.623929 10.232027-22.855956 22.855956-22.855957z" fill="#D7CFB5" p-id="1415"></path></svg>