<?xml version="1.0" standalone="no"?><!DOCTYPE svg PUBLIC "-//W3C//DTD SVG 1.1//EN" "http://www.w3.org/Graphics/SVG/1.1/DTD/svg11.dtd"><svg t="1760777695843" class="icon" viewBox="0 0 1024 1024" version="1.1" xmlns="http://www.w3.org/2000/svg" p-id="2164" xmlns:xlink="http://www.w3.org/1999/xlink" width="200" height="200"><path d="M362.128648 973.220742h299.742704v39.897989H362.128648z" fill="#493A31" p-id="2165"></path><path d="M771.699632 799.265514H332.096345c-24.809294 0-44.975914-20.166619-44.975914-44.975914s20.166619-44.975914 44.975914-44.975913h119.839047c19.296118 0 34.965146-15.669028 34.965146-34.965146s-15.669028-34.965146-34.965146-34.965146H242.2896c-2.756588 0-4.932842-2.176254-4.932842-4.932842s2.176254-4.932842 4.932842-4.932843h209.790876c24.809294 0 44.975914 20.166619 44.975914 44.975914s-20.166619 44.975914-44.975914 44.975914h-119.839048c-19.296118 0-34.965146 15.669028-34.965146 34.965146s15.669028 34.965146 34.965146 34.965146H771.699632c2.756588 0 4.932842 2.176254 4.932842 4.932842s-2.176254 4.932842-4.932842 4.932842z" fill="#5D4E44" p-id="2166"></path><path d="M646.927742 979.024086H377.072258c-37.721734 0-69.495041-28.146217-74.282799-65.577784-37.431567-4.787759-65.4327-36.561065-65.577784-74.2828v-699.302918c0-37.721734 28.146217-69.495041 65.577784-74.2828C307.577217 28.146217 339.350524 0 377.072258 0h269.855484c37.721734 0 69.495041 28.146217 74.282799 65.577784 37.431567 4.787759 65.4327 36.561065 65.577784 74.2828v699.302918c0 37.721734-28.146217 69.495041-65.577784 74.2828-4.787759 37.431567-36.561065 65.577784-74.282799 65.577784zM312.219892 94.88467c-24.809294 0-44.975914 20.166619-44.975914 44.975914v699.302918c0 24.809294 20.166619 44.975914 44.975914 44.975914h4.932842c8.269765 0 14.94361 6.673845 14.943611 14.94361v4.932843c0 24.809294 20.166619 44.975914 44.975913 44.975913h269.855484c24.809294 0 44.975914-20.166619 44.975913-44.975913v-4.932843c0-8.269765 6.673845-14.94361 14.943611-14.94361h4.932842c24.809294 0 44.975914-20.166619 44.975914-44.975914v-699.302918c0-24.809294-20.166619-44.975914-44.975914-44.975914h-4.932842c-8.269765 0-14.94361-6.673845-14.943611-14.94361v-4.932842c0-24.809294-20.166619-44.975914-44.975913-44.975914H377.072258c-24.809294 0-44.975914 20.166619-44.975913 44.975914v4.932842c0 8.269765-6.673845 14.94361-14.943611 14.94361h-4.932842z" fill="#5D4E44" p-id="2167"></path><path d="M508.517994 0h6.964012c5.513177 0 10.010768 4.497591 10.010768 10.010768v104.895438c0 5.513177-4.497591 10.010768-10.010768 10.010768h-6.964012c-5.513177 0-10.010768-4.497591-10.010768-10.010768V10.010768c0-5.513177 4.497591-10.010768 10.010768-10.010768z" fill="#5D4E44" p-id="2168"></path><path d="M447.147634 74.863134h129.849816c5.513177 0 10.010768 4.497591 10.010768 10.010768v30.032304c0 5.513177-4.497591 10.010768-10.010768 10.010768h-129.849816c-5.513177 0-10.010768-4.497591-10.010768-10.010768V84.873902c0-5.513177 4.352508-10.010768 10.010768-10.010768z" fill="#9E6C65" p-id="2169"></path><path d="M447.00255 124.916974h129.849816c41.348824 0 74.863134 33.51431 74.863134 74.863134v249.688863c0 41.348824-33.51431 74.863134-74.863134 74.863134h-129.849816c-41.348824 0-74.863134-33.51431-74.863134-74.863134V199.780108c0-41.348824 33.51431-74.863134 74.863134-74.863134z" fill="#D7CFB5" p-id="2170"></path><path d="M172.359309 983.956928h679.281382c5.513177 0 10.010768 4.497591 10.010768 10.010768v20.021536c0 5.513177-4.497591 10.010768-10.010768 10.010768H172.359309c-5.513177 0-10.010768-4.497591-10.010768-10.010768v-20.021536c0-5.513177 4.497591-10.010768 10.010768-10.010768z" fill="#5D4E44" p-id="2171"></path><path d="M628.141176 787.656235a42.219326 40.478322 12.093 1 0 16.960345-79.160123 42.219326 40.478322 12.093 1 0-16.960345 79.160123Z" fill="#72A48E" p-id="2172"></path><path d="M583.816379 735.863984c-0.725418 4.352508 11.026353 9.430434 26.115046 11.31652s27.85605-0.290167 28.581468-4.787758-11.026353-9.430434-26.115047-11.31652-27.85605 0.435251-28.581467 4.787758zM640.108813 767.347124c0.580334 4.352508-14.218192 22.633041 6.383678 16.249362s68.914707-35.11023 68.189289-39.462737-40.043072-2.176254-60.644942 4.207424c-5.948427 1.886087-14.363276 15.959195-13.928025 19.005951z" fill="#72A48E" p-id="2173"></path></svg>