<?xml version="1.0" standalone="no"?><!DOCTYPE svg PUBLIC "-//W3C//DTD SVG 1.1//EN" "http://www.w3.org/Graphics/SVG/1.1/DTD/svg11.dtd"><svg t="1760777711009" class="icon" viewBox="0 0 1363 1024" version="1.1" xmlns="http://www.w3.org/2000/svg" p-id="2715" xmlns:xlink="http://www.w3.org/1999/xlink" width="266.2109375" height="200"><path d="M439.988748 410.824191h68.230661v148.703235h-68.230661zM867.735584 410.824191h68.230661v148.703235H867.735584z" fill="#493A31" p-id="2716"></path><path d="M495.797468 35.825598c6.841069 0 12.421941 5.580872 12.421941 12.421941v458.711673h-24.843882V48.247539c0-6.841069 5.580872-12.421941 12.421941-12.421941zM880.157525 35.825598c6.841069 0 12.421941 5.580872 12.421941 12.421941v458.711673H867.735584V48.247539c0-6.841069 5.580872-12.421941 12.421941-12.421941zM650.801688 10.981716h74.351617c6.841069 0 12.421941 5.580872 12.421941 12.421941v483.375527h-99.195499V23.403657c0-6.841069 5.580872-12.421941 12.421941-12.421941z" fill="#5D4E44" p-id="2717"></path><path d="M471.133615 550.52602h433.867791v37.265822h-433.867791z" fill="#493A31" p-id="2718"></path><path d="M495.797468 491.296765h384.180028c6.841069 0 12.421941 5.580872 12.421941 12.421941v37.085795c0 6.841069-5.580872 12.421941-12.421941 12.421941H495.797468c-6.841069 0-12.421941-5.580872-12.421941-12.421941v-37.085795c0-6.841069 5.580872-12.421941 12.421941-12.421941z" fill="#D7CFB5" p-id="2719"></path><path d="M471.133615 559.527426h433.867791v37.265823h-433.867791zM922.824191 57.428973l-74.351617-9.721519c-106.936709-14.042194-215.313643-14.042194-322.250352 0.180028L453.130802 57.609001c-7.021097 0.180028-12.781997-5.400844-12.962026-12.421941v-12.42194c0.180028-7.021097 5.940928-12.601969 12.962026-12.421941l73.811533-9.721519c106.936709-14.042194 215.313643-14.042194 322.250351 0l73.811533 9.721519c7.021097-0.180028 12.781997 5.400844 12.962026 12.421941V45.007032c0 7.201125-5.940928 12.601969-13.142054 12.421941 0.180028 0 0.180028 0 0 0zM427.746835 410.824191h37.265823c6.841069 0 12.421941 5.580872 12.421941 12.421941v24.843882h-49.687764c-6.841069 0-12.421941-5.580872-12.42194-12.421941v-12.421941c0-6.841069 5.580872-12.421941 12.42194-12.421941z" fill="#5D4E44" p-id="2720"></path><path d="M452.410689 454.21097h12.421941c6.841069 0 12.421941 5.580872 12.421941 12.421941v470.953587c0 6.841069-5.580872 12.421941-12.421941 12.421941h-12.421941c-6.841069 0-12.421941-5.580872-12.421941-12.421941V466.632911c0-6.841069 5.580872-12.421941 12.421941-12.421941zM948.388186 447.909986h-49.507736V423.066104c0-6.841069 5.580872-12.421941 12.421941-12.421941h37.085795c6.841069 0 12.421941 5.580872 12.421941 12.421941v12.421941c-0.180028 7.021097-5.580872 12.421941-12.421941 12.421941zM923.544304 950.008439h-12.421941c-6.841069 0-12.421941-5.580872-12.421941-12.421941V466.632911c0-6.841069 5.580872-12.421941 12.421941-12.421941h12.421941c6.841069 0 12.421941 5.580872 12.421941 12.421941v470.953587c0 6.841069-5.580872 12.421941-12.421941 12.421941z" fill="#5D4E44" p-id="2721"></path><path d="M12.421941 441.78903h1338.68917c6.841069 0 12.421941 5.580872 12.421941 12.42194v37.085795c0 6.841069-5.580872 12.421941-12.421941 12.421941H12.421941c-6.841069 0-12.421941-5.580872-12.421941-12.421941v-37.085795c0-6.841069 5.580872-12.421941 12.421941-12.42194z" fill="#5D4E44" p-id="2722"></path><path d="M37.265823 466.632911h12.421941c6.841069 0 12.421941 5.580872 12.421941 12.421941v470.953587c0 6.841069-5.580872 12.421941-12.421941 12.421941h-12.421941c-6.841069 0-12.421941-5.580872-12.421941-12.421941V479.054852c0-6.841069 5.580872-12.421941 12.421941-12.421941zM1314.025316 460.331927h12.421941c6.841069 0 12.421941 5.580872 12.421941 12.421941v470.953586c0 6.841069-5.580872 12.421941-12.421941 12.421941h-12.421941c-6.841069 0-12.421941-5.580872-12.42194-12.421941V472.753868c0-6.841069 5.580872-12.421941 12.42194-12.421941z" fill="#5D4E44" p-id="2723"></path><path d="M254.199719 416.945148h855.313642c3.420534 0 6.120956 2.700422 6.120957 6.120956v12.421941c0 3.420534-2.700422 6.120956-6.120957 6.120956H254.199719c-3.420534 0-6.120956-2.700422-6.120957-6.120956V423.066104c-0.180028-3.240506 2.700422-6.120956 6.120957-6.120956zM450.970464 329.091421c-25.203938 0-45.727145-20.523207-45.727145-45.727145v-30.964839c0-25.203938 20.523207-45.727145 45.727145-45.727144 25.203938 0 45.727145 20.523207 45.727145 45.727144v30.964839c-0.180028 25.383966-20.523207 45.727145-45.727145 45.727145z m0-116.118144c-21.783404 0-39.42616 17.642757-39.606188 39.606189v30.964838c0 21.783404 17.642757 39.606188 39.42616 39.606188 21.783404 0 39.606188-17.642757 39.606188-39.42616v-30.964838c0-22.14346-17.642757-39.786217-39.42616-39.786217z" fill="#C7B299" p-id="2724"></path><path d="M547.825598 349.254571c0-32.045007-38.165963-58.509142-87.133615-61.749648 6.661041-5.400844 7.74121-15.122363 2.340366-21.783404-5.400844-6.661041-15.122363-7.74121-21.783404-2.340366s-7.74121 15.122363-2.340366 21.783404c0.720113 0.900141 1.440225 1.620253 2.340366 2.340366-48.967651 3.060478-86.953586 29.524613-86.953586 61.749648 0 18.542897 12.781997 35.285513 33.125175 46.627286-1.440225 2.340366-2.160338 5.040788-2.160337 7.741209 0 8.64135 7.021097 15.482419 15.482419 15.482419h100.635724c8.64135 0 15.482419-7.021097 15.482419-15.482419 0-2.700422-0.720113-5.400844-2.160337-7.741209 20.16315-11.341772 33.125176-27.90436 33.125176-46.627286z" fill="#72A48E" p-id="2725"></path><path d="M501.198312 326.030942l54.188467-30.964838h30.964838s-36.005626 17.642757-37.44585 51.488045c-1.440225 33.845288-24.483826 33.845288-24.483826 33.845288l-23.223629-54.368495" fill="#72A48E" p-id="2726"></path><path d="M699.229255 380.399437h-70.390999c-1.980309 0-3.600563 5.940928-3.600563 13.322082s15.302391 25.383966 18.542898 25.383966H684.106892c2.520394 0 18.542897-18.182841 18.542897-25.383966s-1.440225-13.322082-3.420534-13.322082zM846.312236 380.399437H775.921238c-1.980309 0-3.600563 5.940928-3.600563 13.322082s15.302391 25.383966 18.542897 25.383966h40.50633c2.520394 0 18.542897-18.182841 18.542897-25.383966s-1.620253-13.322082-3.600563-13.322082zM993.575246 380.399437h-70.390998c-1.980309 0-3.600563 5.940928-3.600563 13.322082s15.302391 25.383966 18.542897 25.383966h40.506329c2.520394 0 18.542897-18.182841 18.542898-25.383966s-1.620253-13.322082-3.600563-13.322082z" fill="#9E6C65" p-id="2727"></path><path d="M120.798875 715.07173h1115.634318v48.967651H120.798875z" fill="#493A31" p-id="2728"></path><path d="M124.039381 727.493671h1109.513362c6.841069 0 12.421941 5.580872 12.421941 12.421941v24.303797c0 6.841069-5.580872 12.421941-12.421941 12.421941H124.039381c-6.841069 0-12.421941-5.580872-12.421941-12.421941V739.915612c0-7.021097 5.580872-12.421941 12.421941-12.421941z" fill="#5D4E44" p-id="2729"></path><path d="M105.316456 652.601969h1152.90014c6.841069 0 12.421941 5.580872 12.421941 12.421941V702.109705c0 6.841069-5.580872 12.421941-12.421941 12.421941H105.316456c-6.841069 0-12.421941-5.580872-12.421941-12.421941v-37.085795c0-7.021097 5.580872-12.421941 12.421941-12.421941z" fill="#D7CFB5" p-id="2730"></path><path d="M114.677918 727.493671h12.421941c6.841069 0 12.421941 5.580872 12.421941 12.421941v271.662447c0 6.841069-5.580872 12.421941-12.421941 12.421941h-12.421941c-6.841069 0-12.421941-5.580872-12.421941-12.421941V739.915612c0-7.021097 5.580872-12.421941 12.421941-12.421941zM1230.312236 727.493671h12.421941c6.841069 0 12.421941 5.580872 12.421941 12.421941v271.662447c0 6.841069-5.580872 12.421941-12.421941 12.421941h-12.421941c-6.841069 0-12.421941-5.580872-12.421941-12.421941V739.915612c0-7.021097 5.580872-12.421941 12.421941-12.421941z" fill="#5D4E44" p-id="2731"></path></svg>