<?xml version="1.0" standalone="no"?><!DOCTYPE svg PUBLIC "-//W3C//DTD SVG 1.1//EN" "http://www.w3.org/Graphics/SVG/1.1/DTD/svg11.dtd"><svg t="1760777159381" class="icon" viewBox="0 0 1024 1024" version="1.1" xmlns="http://www.w3.org/2000/svg" p-id="1762" xmlns:xlink="http://www.w3.org/1999/xlink" width="200" height="200"><path d="M221.096583 344.139738v-43.271014h587.159223v43.271014l-582.263597 0.315846" fill="#493A31" p-id="1763"></path><path d="M168.823936 250.649081h686.335122c5.685243 0 10.265021 4.579779 10.265021 10.265022v33.005991c0 12.160102-9.791251 21.951353-21.951353 21.951354H180.510268C168.350165 315.871448 158.558914 306.080197 158.558914 293.920094v-33.005991c0-5.843166 4.579779-10.265021 10.265022-10.265022z" fill="#5D4E44" p-id="1764"></path><path d="M585.42588 254.123396h-146.710844v-142.131065h146.552921l0.157923 142.131065z m-142.288988-4.421855h137.867133V116.256263h-137.867133v133.445278z" fill="#5D4E44" p-id="1765"></path><path d="M384.231461 100.779769h255.835918c3.000545 0 5.369396 2.368851 5.369396 5.369396v15.79234c0 3.000545-2.368851 5.369396-5.369396 5.369396h-255.835918c-3.000545 0-5.369396-2.368851-5.369395-5.369396v-15.79234c-0.157923-2.842621 2.368851-5.369396 5.369395-5.369396zM389.600857 234.225047h244.939203c6.001089 0 10.896715 4.895626 10.896715 10.896715v6.94863H378.704142v-6.94863c0-6.159013 4.895626-10.896715 10.896715-10.896715z" fill="#C7B299" p-id="1766"></path><path d="M571.370697 36.031173c5.527319 26.689056-15.160647 54.641498-46.429481 62.537668s-61.116358-7.264477-66.643677-33.953532 15.160647-54.641498 46.429481-62.537669c31.268834-7.89617 61.116358 7.4224 66.643677 33.953533z" fill="#9E6C65" p-id="1767"></path><path d="M583.214953 30.34593c0.789617 5.369396-15.31857 12.633872-36.006537 16.108187s-38.059541 1.895081-38.849158-3.632238 15.31857-12.633872 36.006537-16.108187 38.059541-1.737157 38.849158 3.632238zM505.20079 73.93279c-0.94754 5.369396 18.634962 27.004902-9.317481 20.687966s-92.701039-38.059541-91.753499-43.428936 54.799422-6.001089 82.751865 0.157923c8.054094 2.053004 19.108732 18.792885 18.319115 22.583047z" fill="#9E6C65" p-id="1768"></path><path d="M180.352344 338.928265h663.278305c6.001089 0 10.896715 4.895626 10.896715 10.896715v663.278305c0 6.001089-4.895626 10.896715-10.896715 10.896715h-663.278305c-6.001089 0-10.896715-4.895626-10.896715-10.896715v-663.278305c0-6.001089 4.895626-10.896715 10.896715-10.896715z" fill="#493A31" p-id="1769"></path><path d="M218.411885 376.987806h587.159223c6.001089 0 10.896715 4.895626 10.896715 10.896715v587.159223c0 6.001089-4.895626 10.896715-10.896715 10.896715H218.411885c-6.001089 0-10.896715-4.895626-10.896715-10.896715V387.884521c0-6.001089 4.895626-10.896715 10.896715-10.896715z" fill="#736357" p-id="1770"></path><path d="M180.352344 338.928265h10.896715c6.001089 0 10.896715 4.895626 10.896715 10.896715v663.278305c0 6.001089-4.895626 10.896715-10.896715 10.896715h-10.896715c-6.001089 0-10.896715-4.895626-10.896715-10.896715v-663.278305c0-6.001089 4.895626-10.896715 10.896715-10.896715zM832.733934 338.928265h10.896715c6.001089 0 10.896715 4.895626 10.896715 10.896715v663.278305c0 6.001089-4.895626 10.896715-10.896715 10.896715h-10.896715c-6.001089 0-10.896715-4.895626-10.896715-10.896715v-663.278305c0-6.001089 4.895626-10.896715 10.896715-10.896715z" fill="#5D4E44" p-id="1771"></path><path d="M180.352344 338.928265h663.278305c6.001089 0 10.896715 4.895626 10.896715 10.896715v10.896715c0 6.001089-4.895626 10.896715-10.896715 10.896715h-663.278305c-6.001089 0-10.896715-4.895626-10.896715-10.896715v-10.896715c0-6.001089 4.895626-10.896715 10.896715-10.896715zM180.352344 991.309855h663.278305c6.001089 0 10.896715 4.895626 10.896715 10.896715v10.896715c0 6.001089-4.895626 10.896715-10.896715 10.896715h-663.278305c-6.001089 0-10.896715-4.895626-10.896715-10.896715v-10.896715c0-6.001089 4.895626-10.896715 10.896715-10.896715z" fill="#5D4E44" p-id="1772"></path><path d="M514.676195 676.094737m-239.25396 0a239.25396 239.25396 0 1 0 478.50792 0 239.25396 239.25396 0 1 0-478.50792 0Z" fill="#493A31" p-id="1773"></path><path d="M514.676195 676.094737m-228.357245 0a228.357245 228.357245 0 1 0 456.71449 0 228.357245 228.357245 0 1 0-456.71449 0Z" fill="#FFFFFF" p-id="1774"></path><path d="M514.676195 469.372998c113.862776 0 206.563815 92.701039 206.563815 206.563815s-92.701039 206.721738-206.563815 206.721739S308.11238 789.957512 308.11238 676.094737s92.701039-206.721738 206.563815-206.721739m0-21.79343c-126.180801 0-228.357245 102.176444-228.357245 228.357245s102.176444 228.357245 228.357245 228.357245S743.03344 802.117615 743.03344 675.936813c0-126.022878-102.176444-228.357245-228.357245-228.357245z" fill="#5D4E44" p-id="1775"></path><path d="M408.393742 486.270803v379.489944c3.632238 2.053004 7.106553 3.948085 10.896715 5.685243V480.58556c-3.790162 1.895081-7.4224 3.790162-10.896715 5.685243zM369.070814 514.539093v323.111288c3.474315 3.158468 7.106553 6.159013 10.896715 9.159558V505.379535c-3.790162 2.842621-7.4224 6.001089-10.896715 9.159558zM329.747886 561.442344v229.146862c3.316392 5.527319 6.94863 10.738792 10.896715 15.950264V545.49208c-3.790162 5.211472-7.4224 10.580868-10.896715 15.950264zM447.558747 469.057152v413.759323c3.632238 1.105464 7.264477 2.210928 10.896715 3.158468V465.898683c-3.632238 0.94754-7.264477 2.053004-10.896715 3.158469zM486.881675 460.371364v431.288822c3.632238 0.47377 7.264477 0.789617 10.896715 1.105464V459.2659c-3.632238 0.315847-7.264477 0.631694-10.896715 1.105464zM604.692536 478.058786v395.913978c3.632238-1.737157 7.264477-3.474315 10.896715-5.369395V483.270258l-10.896715-5.211472zM565.369608 464.635296V887.554177l10.896715-2.842621V467.477918c-3.632238-1.105464-7.264477-2.053004-10.896715-2.842622zM526.204603 458.79213v434.289366c3.632238-0.157923 7.264477-0.47377 10.896715-0.789617V459.581747c-3.632238-0.315847-7.264477-0.47377-10.896715-0.789617zM644.015464 501.115603v349.800344c3.790162-2.842621 7.4224-5.685243 10.896715-8.685787V509.80139c-3.632238-3.000545-7.264477-5.843166-10.896715-8.685787zM694.077184 553.072404c-3.474315-5.053549-7.106553-9.791251-10.896715-14.528954v274.786727c3.790162-4.737702 7.4224-9.475404 10.896715-14.528954V553.072404z" fill="#5D4E44" p-id="1776"></path></svg>