<?xml version="1.0" standalone="no"?><!DOCTYPE svg PUBLIC "-//W3C//DTD SVG 1.1//EN" "http://www.w3.org/Graphics/SVG/1.1/DTD/svg11.dtd"><svg t="1760777273087" class="icon" viewBox="0 0 1070 1024" version="1.1" xmlns="http://www.w3.org/2000/svg" p-id="14769" xmlns:xlink="http://www.w3.org/1999/xlink" width="208.984375" height="200"><path d="M581.531418 143.657939c0.548313-1.218473 1.218473-2.376022 1.705862-3.594495a17.606931 17.606931 0 0 0-7.85915-5.726822c-0.365542-0.121847-0.67016-0.121847-1.035701-0.243695-2.924335-0.792007-6.396982-0.67016-10.113324 0.243695-0.121847 0.548313-0.426465 0.913855-0.548313 1.34032 3.716342 0.365542 7.310837 1.462167 10.661637 3.168029 2.558793 1.218473 4.934815 2.802487 7.188989 4.812968z" fill="#C09968" p-id="14770"></path><path d="M587.867476 130.742127c-4.386502-2.132327-8.894851-2.924335-13.585971-2.376022-2.802487 0.243695-5.726822 1.218473-8.651157 2.68064-0.121847 0.121847-0.121847 0.243695-0.243694 0.365542 3.3508-0.67016 6.275135-0.67016 8.894851 0 0.67016 0.121847 1.218473 0.304618 1.888633 0.426466 3.228953 1.096625 5.848669 2.924335 8.407462 5.726822 1.035702-2.254175 2.254175-4.508349 3.3508-6.823448zM957.308417 589.923587c-1.218473 0-2.254175-0.121847-3.3508-0.426465-9.077622 8.163767-11.697339 17.302313-7.859149 27.598408 3.046182-6.03144 7.188989-9.869629 11.209949-13.464124 4.934815-4.386502 9.747782-8.407462 12.915812-15.352757-2.558793 0.792007-5.056662 1.34032-7.432684 1.462167-1.888633 0.243695-3.716342 0.243695-5.483128 0.121848zM796.835555 127.817793c12.550269 2.802487 14.804444-17.058619 0.243694-15.169986 4.02096-9.199469 11.331797-13.342277 22.115281-12.001957 2.802487 0.304618 5.848669 0.913855 9.199469 2.01048 6.153287 5.483127 10.417942 11.575491 13.464124 18.155244 6.396982 13.829666 6.762524 29.730735 6.51883 45.449034 0 5.36128-0.548313 10.661637-1.218473 15.840146-1.584015 12.245651-2.132327 22.419899-0.792008 34.787397 0.913855 7.493607 2.254175 14.682597 4.142808 21.445121 3.716342 13.464124 9.443164 25.587928 18.398939 36.00587-9.199469-26.258088-9.321317-52.516176-0.426466-78.774264 0.426465-1.34032 2.68064-0.792007 2.558793 0.548313-1.584015 16.936771-0.243695 32.228605 4.508349 45.997347 4.142807 11.575491 10.783484 22.115281 19.982953 31.31475 0.426465 0.243695 0.792007 0.67016 1.218473 1.035701-0.365542-1.462167-0.792007-2.802487-1.218473-4.264654-1.462167-6.275135-2.254175-12.550269-2.132327-18.947252 0.121847-5.483127 0.792007-11.088102 2.132327-16.814924 1.035702-4.081884 2.436946-8.285615 4.142808-12.367498 0.548313-1.218473 2.68064-0.548313 2.497869 0.67016-1.34032 10.113324-0.426465 19.982953 2.68064 29.852582 0.121847 0.365542 0.304618 0.792007 0.426465 1.218473 2.254175 7.067142 5.726822 14.256131 9.991477 21.323273 0.792007 1.218473 1.584015 2.497869 2.558793 3.716342 0.67016-6.945295 2.436946-13.342277 5.178509-19.312793 2.436946-5.056662 5.604975-9.869629 9.443164-14.256131 1.462167-1.584015 2.924335-3.046182 4.508349-4.508349 0.913855-0.913855 2.619716 0.365542 2.132328 1.462167-3.960036 7.980997-5.970517 16.510306-6.396982 25.344233-0.426465 7.067142 0 14.256131 1.218472 21.688815 1.888633-5.726822 4.508349-11.331797 8.102844-16.632153 0.792007-1.34032 1.827709-2.68064 2.802488-4.02096 1.035702-1.34032 2.132327-2.558793 3.228952-3.899113 0.792007-0.913855 2.68064 0.121847 2.254175 1.34032-2.924335 8.407462-4.142807 16.936771-3.594495 25.28331 0.426465 8.285615 2.254175 16.388459 5.483128 24.674074 0.913855-0.304618 1.888633-0.548313 2.924334-0.67016 0.67016 0 1.462167-0.121847 2.132328-0.121848 1.462167-0.121847 2.924335-0.121847 4.386502 0 2.132327 0.304618 4.386502 0.67016 6.823447 1.34032 6.640677-2.376022 13.707819-4.386502 20.896808-5.848669 1.218473-0.304618 2.436946-0.548313 3.716342-0.792007 1.705862-0.243695 3.594495-0.548313 5.483127-0.913855 2.254175-0.304618 4.386502-0.548313 6.640677-0.792007 1.584015-0.243695 3.3508-0.426465 4.934815-0.548313 1.766786-5.056662 0.67016-9.747782-3.046182-14.012437 6.518829-8.407462 5.604975-18.094321-1.888633-22.237127-1.827709-1.035702-4.02096-1.705862-6.640677-2.010481-0.365542-0.121847-1.096625-0.121847-1.584014-0.121847-0.67016-3.838189-2.01048-6.762524-3.838189-9.077622-0.426465-0.548313-0.792007-0.913855-1.340321-1.34032-8.955775-8.102844-25.587928 3.594495-21.993433 14.804444 1.888633 5.726822 11.880109 6.396982 13.037659-0.121847 0.121847-0.792007 0.792007-1.218473 1.584014-1.096626 0.67016 0.121847 1.035702 0.792007 0.913855 1.462168-0.426465 2.558793-1.766786 4.264655-3.3508 5.483127-4.934815 3.168029-12.915811 0.792007-14.804444-4.934815-1.766786-5.36128-0.365542-9.869629 2.802487-13.464124-1.34032 0.121847-2.802487 0.243695-4.264655 0-3.228953-0.426465-6.275135-1.462167-8.529309-3.716342-0.67016-0.792007-1.34032-1.584015-1.888633-2.68064-2.254175-4.508349-1.096625-9.991477 1.888633-13.707818 2.802487-3.228953 7.067142-4.934815 11.453644-2.802487 2.01048 0.913855 3.838189 2.558793 5.483127 5.056661 0.365542 0.548313 0.243695 1.34032-0.426465 1.705862-0.548313 0.426465-1.34032 0.304618-1.705862-0.365542-1.462167-2.01048-2.924335-3.3508-4.386502-4.02096-4.934815-2.376022-9.077622 1.34032-10.417942 5.84867-0.548313 2.01048-0.67016 4.264655 0 6.153287 0.121847 0.243695 0.243695 0.67016 0.426466 0.913855 1.584015 3.168029 5.056662 4.69112 8.407462 5.056662 8.346538 0.913855 17.180466-5.483127 18.76448-13.585972 1.218473-5.604975-0.365542-12.001957-6.153287-16.510306 2.558793-17.180466-8.773004-26.501783-21.445121-25.709775-3.472647 0.304618-7.067142 1.218473-10.539789 3.046182-5.178509-3.716342-8.224691-3.838189-12.915812 0.243695-0.365542 0.426465-0.913855 0.792007-1.34032 1.218472-2.254175 2.376022-3.716342 4.934815-4.386502 7.432684-0.67016 3.046182-0.243695 6.275135 1.34032 9.321317 0.67016 1.096625 1.34032 2.132327 2.132328 3.046182 0.426465 0.365542 0.67016 0.67016 0.974778 0.913854 0.426465 0.426465 0.913855 0.792007 1.34032 1.218473 2.01048 1.34032 4.142807 1.827709 6.153288 1.705862 2.01048 0 3.838189-0.792007 5.422203-2.132327 0.548313-0.548313 1.096625-1.096625 1.584015-1.705862 1.462167-2.254175 1.888633-4.386502 1.34032-6.153288a5.141955 5.141955 0 0 0-1.34032-2.376022c-0.67016-0.548313-1.584015-1.035702-2.497869-1.34032-1.705862-0.426465-3.716342 0-5.84867 1.584015-0.67016 0.426465-1.462167 0.304618-1.888632-0.243695s-0.243695-1.34032 0.304618-1.888632c2.802487-2.01048 5.726822-2.558793 8.102844-2.01048 1.462167 0.365542 2.68064 1.096625 3.594494 2.01048 1.096625 0.913855 1.766786 2.254175 2.132328 3.594494 0.67016 2.436946 0.243695 5.36128-1.705862 8.285615-0.67016 0.792007-1.34032 1.584015-2.01048 2.254175-2.01048 1.766786-4.508349 2.68064-7.067142 2.802487a12.184728 12.184728 0 0 1-7.615455-2.254175h-0.121847c-0.913855-0.67016-1.888633-1.462167-2.68064-2.558792a14.987215 14.987215 0 0 1-2.558793-3.472648c-2.01048-3.716342-2.558793-7.432684-1.584015-11.209949 0.426465-1.827709 1.218473-3.594495 2.254175-5.178509-0.304618 0-0.548313 0.121847-0.792007 0.121847-3.716342 1.218473-7.615455 0.913855-11.758263-1.035702-0.243695-0.121847-0.67016-0.426465-0.913854-0.548313-4.934815-2.802487-6.396982-6.823447-5.970517-10.417942 0.243695-2.254175 1.34032-4.508349 2.802488-6.153287 1.218473-1.218473 2.68064-2.132327 4.142807-2.497869 0.548313-0.243695 1.218473-0.243695 1.766786-0.426466 2.924335-0.121847 6.153287 1.462167 8.529309 6.03144 0.304618 0.548313 0.121847 1.34032-0.548313 1.705862-0.67016 0.243695-1.462167 0.121847-1.705862-0.548313-1.888633-3.289876-4.142807-4.630196-6.153287-4.508349-0.67016 0-1.218473 0.121847-1.888633 0.426466-0.792007 0.426465-1.584015 0.913855-2.254175 1.584014-1.035702 1.34032-1.888633 2.924335-2.132327 4.630197-0.304618 2.68064 0.913855 5.604975 4.386502 7.737302 0.121847 0 0.243695 0 0.243695 0.121847 5.300357 2.924335 12.123804 2.01048 16.936771-1.34032 4.142807-2.802487 6.823447-7.493607 6.275135-13.098582-0.426465-3.838189-2.376022-7.432684-6.275135-9.747782-1.705862-1.096625-3.716342-1.888633-6.153287-2.254175 6.396982-12.001957-0.913855-23.333753-11.088103-25.95347-3.168029-0.913855-6.640677-0.913855-9.991476 0.121848-3.472647 1.096625-6.823447 3.3508-9.747782 6.945294-0.121847 0.121847-0.243695 0.426465-0.548313 0.67016a22.115281 22.115281 0 0 0-15.048139 3.83819c-5.36128-31.741215-16.266611-57.450991-38.138197-71.036962-3.168029-1.827709-6.7016-3.594495-10.235171-5.056662-4.386502-1.218473-8.529309-2.132327-12.428422-2.376022-14.256131-1.096625-25.587928 4.69112-32.898765 19.739258-3.046182 13.342277 0.365542 20.774961 10.539789 22.237128z" fill="#C09968" p-id="14771"></path><path d="M841.858123 239.186203c1.34032 19.617411 6.640677 33.99539 14.804444 46.119194 7.980997 11.880109 19.190946 14.256131 31.98491 12.123804 2.254175-0.121847 4.69112-0.426465 6.945295-0.67016 0.913855-0.121847 1.766786-0.121847 2.68064-0.304618 2.376022-0.365542 4.752044-0.548313 7.067142-0.243695 2.132327 0.121847 4.264655 0.548313 6.396982 1.035702 1.218473 0.426465 2.376022 0.792007 3.594495 1.34032 6.396982 2.558793 12.123804 7.067142 17.180466 12.123804 3.472647 3.472647 6.518829 7.310837 9.321316 10.905331 2.254175-2.132327 4.812967-3.838189 7.85915-4.934814-3.228953-8.407462-5.178509-16.936771-5.604975-25.344234-0.365542-6.640677 0.243695-13.159506 1.827709-19.861106-0.67016 0.792007-1.157549 1.584015-1.705862 2.376022-4.386502 6.640677-7.432684 13.829666-9.199469 21.445121-0.243695 1.218473-2.132327 1.218473-2.497869 0.121847v-0.121847c-2.01048-9.625935-2.924335-19.069099-2.376022-28.146721 0.304618-5.178509 1.096625-10.235171 2.376022-15.048139 0.426465-1.584015 0.913855-3.228953 1.462167-4.812967-0.548313 0.67016-0.913855 1.218473-1.462167 1.888633-2.802487 3.472647-5.178509 7.310837-7.067142 11.331796-3.107106 6.640677-4.934815 14.012437-5.36128 22.115281 0 1.035702-1.705862 1.584015-2.376022 0.67016-0.792007-1.218473-1.584015-2.376022-2.436946-3.594495-3.960036-6.153287-7.310837-12.367499-9.991477-18.642633-1.096625-2.68064-2.01048-5.178509-2.802487-7.859149-2.254175-7.067142-3.472647-14.256131-3.472647-21.445121-2.01048 6.518829-2.924335 13.037659-2.924335 19.434641-0.121847 9.199469 1.584015 18.155244 4.630197 26.928248 0.426465 1.035702-1.218473 2.132327-2.132328 1.34032-0.913855-0.792007-2.01048-1.705862-3.107105-2.68064-10.539789-9.869629-17.850626-21.201426-22.358975-34.117238-3.838189-10.783484-5.604975-22.785441-5.361281-35.579404-5.848669 24.125761-3.838189 48.251521 5.84867 72.194511 0.548313 1.218473-1.218473 2.376022-2.132328 1.462167-11.880109-11.758262-19.190946-26.014393-23.577448-41.976386-2.558793-9.077622-4.02096-18.825404-4.812967-28.816881-0.67016 4.508349-1.096625 9.077622-1.34032 13.585971-0.243695 4.812967-0.365542 9.625935-0.121847 14.377979 0 0.365542 0.121847 0.67016 0.121847 1.035701zM932.512497 319.666329c-4.264655 0.365542-7.980997 4.508349-7.493608 10.113324 0.426465 3.289876 0.913855 3.594495 3.594495 4.934814 1.462167 0.67016 2.68064 1.584015 3.899113 2.802488l0.121847 0.121847c0.304618-1.096625 0.67016-2.254175 1.096625-3.472647 1.584015-3.960036 3.594495-7.615455 6.275135-10.53979-2.132327-3.046182-4.934815-4.264655-7.432684-3.960036z m0 9.869629s-0.67016 0.304618-1.096626 0.304618c-1.218473 0-2.254175-0.913855-2.254174-2.132327s1.035702-2.254175 2.254174-2.254175c0.365542 0 0.792007 0.121847 1.096626 0.243695 0.67016 0.365542 1.035702 1.218473 1.035702 2.01048s-0.426465 1.462167-1.035702 1.888633zM960.902912 432.923372c0.548313 1.888633 1.035702 3.716342 1.705862 5.36128 0.792007 1.705862 1.584015 3.168029 2.376022 4.630197 3.594495 5.848669 8.773004 9.991477 15.474604 12.367498-6.518829-5.970517-11.027178-12.367499-13.585971-19.190946-3.046182-8.285615-3.046182-17.180466-0.121848-26.62363-1.34032-0.792007-2.619716-1.462167-3.838189-2.436945-1.949556-1.34032-3.716342-2.802487-5.604975-4.386502-0.792007-0.792007-1.584015-1.584015-2.376022-2.436946-2.132327 14.804444-10.296095 25.222386-19.982953 33.873543-0.792007 0.792007-1.584015 1.766786-2.376022 2.68064-9.991477 12.123804-8.651157 34.787397 0 53.856496 2.132327 4.508349 4.508349 8.773004 7.432684 12.793964 4.812967 6.518829 10.905331 15.048139 17.302313 24.674074 5.178509 7.615455 10.539789 15.840146 15.474604 24.491302 3.046182 4.934815 5.848669 10.235171 8.285615 15.840146-0.426465-4.69112-1.462167-9.199469-2.802487-13.707819-2.254175-7.310837-5.604975-14.256131-9.747782-21.079578-3.594495-5.726822-7.310837-11.575491-11.20995-17.424161-3.838189-5.970517-7.737302-12.001957-11.697338-17.972473-0.913855-1.34032-1.644938-2.436946-4.934815-7.493608-3.716342-5.726822-6.518829-11.453644-8.102844-17.180465-0.121847-0.548313-0.243695-1.218473-0.365542-1.888633-1.218473-5.178509-1.218473-10.417942 0.365542-15.596452 0.426465-1.218473 0.792007-2.436946 1.462168-3.716341 0.365542-1.035702 2.254175-0.792007 2.376022 0.426465 2.132327 13.707819 7.859149 24.247608 15.840145 32.898765 1.584015 1.705862 3.289876 3.472647 5.056662 5.056661 5.056662 4.386502 10.661637 8.407462 16.814924 11.88011-6.396982-6.518829-12.123804-13.342277-16.814924-20.531266-0.426465-0.67016-0.792007-1.34032-1.218472-2.01048-6.275135-10.235171-10.296095-21.201426-10.417943-33.081536 0-1.34032 2.254175-1.584015 2.558793-0.426465 2.01048 7.493607 5.056662 13.768742 9.077622 19.190946 2.68064 3.472647 5.848669 6.640677 9.321317 9.443164 6.153287 4.934815 13.585971 8.773004 21.871586 11.697338-8.224691-5.300357-15.474604-11.209949-20.774961-18.277091-7.310837-9.565011-11.088102-21.201426-9.443163-35.701252 0.243695-1.218473 2.254175-1.34032 2.68064-0.121847zM1047.597249 597.660889c-7.980997 2.68064-5.422204 10.539789-2.558793 16.936772-9.991477 3.594495-16.936771 0.121847-22.358975-6.945295-1.462167 0.121847-3.046182 0.121847-4.508349 0.121847h-0.243695c-1.34032-0.121847-2.68064-0.243695-4.02096-0.67016 0.121847 4.630196 1.584015 8.955775 4.02096 12.55027 3.594495 5.178509 9.443164 9.016698 17.424161 10.783484 10.296095 2.132327 20.409419-3.168029 23.333753-16.632154 2.619716-12.123804-4.142807-18.398939-11.088102-16.08384zM980.764018 576.764081c-0.67016-2.254175-1.705862-4.386502-2.802487-6.518829-1.035702-2.01048-2.132327-3.838189-3.3508-5.726822-4.264655 4.812967-11.209949 8.407462-17.302314 8.955775-7.554531 0.548313-14.134284-3.472647-13.707818-15.474604 5.970517 0.913855 11.758262 0.792007 12.245651-4.934815 0.792007-8.833928-7.188989-10.113324-12.672117-8.651156-5.726822 1.584015-9.199469 5.056662-10.661636 9.991476-1.218473 4.02096-1.096625 8.651157 0 14.012437 0.121847 0.913855 0.426465 1.888633 0.67016 2.802487 2.68064 9.991477 13.342277 15.718299 24.12576 16.266612 9.443164 0.548313 18.947251-2.924335 23.455601-10.661637zM819.19453 204.703424c6.823447-1.462167 15.169986 0.792007 21.201426 7.310836 0.365542-3.3508 0.913855-6.640677 1.462167-9.991476 0-0.426465 0.121847-0.913855 0.304618-1.462168-0.121847-0.121847-0.304618-0.243695-0.304618-0.365541-4.812967-7.310837-11.575491-9.991477-20.653113-7.85915 5.300357-9.443164 0.365542-16.510306-2.01048-24.12576-0.243695-0.548313-0.365542-1.035702-0.548313-1.705862-4.812967 7.310837-10.113324 17.485084-5.483127 28.938728-16.388459 3.472647-26.258088 32.106757-4.630197 43.743172 3.594495 1.827709 7.310837 2.01048 10.661637 1.035702 5.36128-1.584015 9.504088-6.275135 8.955775-11.88011-0.67016-6.396982-5.178509-9.199469-8.955775-8.407462-2.924335 0.792007-5.300357 3.716342-4.812968 9.077622-9.747782-2.376022-8.773004-9.321317-5.483127-16.510305 2.01048-4.142807 5.726822-6.640677 10.235171-7.737303zM895.592772 359.632235c2.436946-3.472647 3.777266-7.493607 3.594495-12.001956 0-0.121847 0-0.243695 0.121847-0.365542-0.548313-0.243695-0.913855-0.548313-1.34032-0.792007-0.792007 1.462167-1.462167 2.924335-2.436946 4.264654-2.254175 3.838189-5.300357 7.432684-8.894851 10.357019 1.218473 1.584015 2.376022 3.228953 3.472648 4.934814 2.132327-2.01048 3.960036-4.02096 5.422203-6.396982z" fill="#C09968" p-id="14772"></path><path d="M1062.279846 505.605272c0.67016-19.739259-17.850626-27.171943-29.97443-14.682597-1.766786 1.766786-2.924335 3.594495-3.594495 5.604975-0.67016 1.827709-0.792007 3.838189-0.121847 5.726822 0.487389 1.705862 1.584015 3.594495 3.472647 5.300357 2.68064 2.558793 5.726822 2.68064 8.224691 1.462167 1.462167-0.67016 2.802487-1.888633 3.716342-3.3508 0.974778-1.34032 1.34032-2.802487 1.218473-4.264655-0.243695-1.888633-1.705862-3.716342-4.934815-4.69112-0.792007-0.121847-1.218473-0.913855-0.913854-1.584015 0.304618-0.67016 0.913855-1.035702 1.584014-0.913854 4.386502 1.34032 6.518829 4.02096 6.762524 6.945295 0.243695 2.01048-0.243695 4.142807-1.462167 5.970516-1.218473 1.888633-2.924335 3.3508-4.934815 4.264655-3.3508 1.584015-7.493607 1.462167-11.209949-2.01048-2.132327-2.132327-3.472647-4.264655-4.142808-6.396982-0.792007-2.558793-0.67016-5.056662 0.121848-7.493608 0.792007-2.254175 2.254175-4.508349 4.264654-6.518829l0.913855-0.913855c-1.888633 0.121847-3.716342 0-5.422204-0.243694-3.046182-0.426465-5.848669-1.462167-7.980996-3.046182-1.096625-0.792007-2.01048-1.705862-2.68064-2.68064-0.426465-0.67016-0.792007-1.34032-1.218473-2.01048-2.01048-5.178509-1.096625-9.869629 1.34032-13.159506 0.67016-1.035702 1.584015-2.01048 2.558793-2.68064 0.548313-0.426465 0.913855-0.67016 1.462167-0.913855 1.584015-0.913855 3.3508-1.34032 5.178509-1.34032 3.472647-0.121847 7.188989 1.705862 9.869629 5.970517 0.304618 0.548313 0.121847 1.34032-0.548312 1.705862-0.548313 0.426465-1.34032 0.304618-1.766786-0.426466-2.132327-3.3508-4.934815-4.812967-7.554531-4.812967-1.34032 0-2.68064 0.426465-3.838189 1.096625-1.035702 0.548313-2.01048 1.34032-2.802487 2.254175-0.121847 0.121847-0.304618 0.426465-0.426466 0.548313-2.01048 2.68064-2.68064 6.518829-0.913854 10.661636 0.121847 0.548313 0.426465 1.035702 0.792007 1.462168 0.121847 0.243695 0.426465 0.548313 0.548313 0.792007 1.888633 2.132327 4.934815 3.472647 8.407462 4.02096 12.123804 1.888633 22.907288-6.275135 24.491302-18.520786 0.792007-6.945295 1.462167-12.245651-6.153287-13.890589-0.426465 0-0.913855-0.67016-0.913855-1.218473-0.426465-8.285615-3.046182-13.890589-7.310836-17.485084-4.264655-3.594495-10.296095-5.300357-17.485085-5.84867-0.121847 0-0.792007-0.426465-0.974778-0.548312l-0.121847-0.121848c-1.096625-1.34032-2.132327-2.558793-3.228953-3.472647-1.218473-1.035702-2.376022-1.827709-3.594495-2.376022a18.703557 18.703557 0 0 0-5.848669-1.888633c-2.254175-0.426465-4.508349-0.243695-6.640676 0.121848-1.888633 0.426465-3.716342 1.035702-5.483128 2.01048-0.548313 0.304618-0.913855 0.548313-1.34032 0.792007-3.046182 2.01048-5.36128 5.848669-6.153287 9.747782-0.243695 1.34032-0.243695 2.68064-0.121847 4.02096 0.304618 1.34032 0.67016 2.376022 1.34032 3.472648 1.035702 1.888633 3.046182 3.168029 6.092363 3.716342h0.121848c1.827709 0.426465 3.838189 0.121847 5.483127-0.365542 0.426465-0.121847 0.792007-0.304618 1.096626-0.548313 1.705862-0.792007 3.168029-2.01048 4.264654-3.472647 0.67016-1.218473 1.218473-2.376022 1.34032-3.716342v-1.584015c-0.243695-1.705862-0.913855-3.594495-2.376022-5.300356a1.559645 1.559645 0 0 1 0.121848-1.888633c0.67016-0.426465 1.462167-0.426465 1.888632 0.243694l0.365542 0.365542c1.584015 2.132327 2.376022 4.386502 2.558793 6.518829 0.304618 2.376022-0.365542 4.812967-1.705862 6.640677-0.243695 0.365542-0.548313 0.792007-0.792007 1.218473-1.218473 1.462167-2.802487 2.558793-4.386502 3.3508-0.67016 0.426465-1.462167 0.67016-2.254175 0.792007-1.705862 0.548313-3.594495 0.67016-5.483127 0.426466-0.243695 0-0.426465 0-0.548313-0.121848-3.838189-0.67016-6.396982-2.376022-7.980996-4.812967-0.792007-1.34032-1.34032-2.924335-1.644939-4.508349-0.243695-1.584015-0.121847-3.228953 0.182771-4.934815 0.792007-4.569273 3.594495-9.077622 7.18899-11.331797l1.157549-0.792007c-2.132327-1.462167-4.264655-2.802487-6.51883-4.02096-2.802487-1.34032-5.726822-2.376022-8.955774-3.046182-2.376022-0.548313-4.812967-1.34032-6.945295-2.376022-2.68064 8.955775-2.558793 17.058619 0.243694 24.674074 2.802487 7.859149 8.651157 15.169986 17.302314 21.871586 0.913855 0.792007 0.121847 2.558793-1.035702 2.376022-10.235171-2.01048-17.850626-7.067142-22.785441-15.169986-0.913855-1.34032-1.705862-2.802487-2.376022-4.386502 0 10.783484 3.472647 19.739259 9.321317 27.29379 5.726822 7.615455 13.829666 14.012437 23.333753 19.739258 1.705862 1.096625 3.594495 2.132327 5.483128 3.228953 0.304618 0.121847 0.426465 0.121847 0.548312 0.304618 1.035702 0.487389 0.548313 2.254175-0.548312 2.376022h-0.365542c-1.766786-0.426465-3.472647-0.913855-5.056662-1.462167-10.783484-3.228953-20.409419-7.737302-28.268568-14.012437-2.68064-2.254175-5.36128-4.69112-7.615455-7.310836-2.924335-3.472647-5.604975-7.493607-7.737302-11.88011 1.644938 6.7016 4.264655 12.915811 7.737302 19.069099 0.426465 0.548313 0.67016 1.035702 1.096626 1.584014 6.153287 9.991477 14.499826 19.312793 23.942989 28.512263 0.974778 0.792007-0.243695 2.68064-1.462167 2.132327-8.529309-4.386502-16.693077-9.321317-23.577448-15.169985-2.376022-2.132327-4.812967-4.264655-6.945295-6.701601a62.580761 62.580761 0 0 1-15.596451-29.547964c-1.218473 4.386502-1.096625 8.773004-0.121847 13.159506 1.34032 6.03144 4.264655 12.001957 8.285615 18.155244 0 0.121847 2.497869 3.838189 4.934814 7.432684 3.168029 4.812967 6.275135 9.747782 9.443164 14.682596 4.508349 6.823447 8.955775 13.890589 13.464124 20.957732 4.264655 6.945295 7.737302 14.134284 9.991477 21.566968 3.3508 10.783484 5.483127 27.050095 5.604974 38.503739 0.365542 19.190946-0.913855 37.041572-17.606931 51.297703-3.594495 3.046182-7.432684 5.36128-11.453644 6.823448-9.321317 3.472647-18.947251 2.376022-24.795921-2.802488-2.802487-2.376022-4.69112-5.726822-5.483127-9.869629 2.132327-0.548313 4.02096-1.462167 5.483127-2.802487 4.02096-3.472647 4.812967-9.077622 0-12.793964-0.365542-0.243695-0.974778-0.67016-1.462167-0.913855-8.407462-4.812967-14.804444 2.924335-15.474604 11.453644-1.462167 17.546008 5.848669 27.050095 16.936771 30.64459 5.36128 1.827709 11.697339 2.254175 18.277092 1.705862 2.254175-0.243695 4.386502-0.67016 6.518829-1.096626 14.804444-3.3508 26.501783-12.672117 35.823099-26.623629 1.827709-3.046182 3.716342-6.275135 5.483128-9.565012 2.436946-4.812967 4.69112-9.869629 6.640676-15.169985 1.096625-3.228953 2.254175-6.518829 3.228953-9.991477 2.924335 0.913855 6.275135 1.705862 9.443164 2.132327 7.615455 0.792007 14.926291-0.913855 16.814924-10.783484 22.115281-3.228953 18.520786-35.33571-1.584015-37.468037-6.640677-0.67016-12.793964 0.67016-15.169985 4.812967v0.121848c-0.792007 1.34032-1.218473 2.68064-1.584015 3.838189-0.548313 2.132327-0.365542 3.838189 0.121847 5.483127 0.365542 0.792007 0.792007 1.584015 1.462168 2.132328 0.548313 0.548313 1.218473 1.035702 1.888632 1.462167 0.792007 0.365542 1.705862 0.67016 2.68064 0.913854 1.766786 0.548313 3.228953 0.426465 4.386502 0 0.792007-0.243695 1.584015-0.67016 2.132328-1.34032 0.548313-0.67016 0.913855-1.462167 1.218472-2.558792 0.548313-1.827709 0.426465-4.264655-0.548312-6.945295-0.121847-0.792007 0.121847-1.462167 0.913854-1.705862 0.67016-0.243695 1.34032 0.121847 1.584015 0.792007 1.096625 3.228953 1.218473 6.092364 0.548313 8.52931-0.304618 1.34032-0.974778 2.68064-1.766786 3.594494-0.913855 0.913855-2.01048 1.705862-3.3508 2.132328-1.584015 0.548313-3.594495 0.548313-5.848669 0-1.218473-0.243695-2.254175-0.67016-3.228953-1.218473-0.243695-0.121847-0.365542-0.304618-0.67016-0.426466-1.888633-1.035702-3.046182-2.619716-3.838189-4.508349-0.792007-2.01048-0.913855-4.386502-0.243695-7.067142 0.365542-1.462167 0.913855-2.924335 1.888633-4.386502 0.548313-1.035702 1.34032-2.01048 2.254175-2.802487 3.3508-2.924335 8.407462-4.02096 14.012436-3.594495-0.121847-0.121847-0.426465-0.304618-0.548312-0.548313-2.376022-2.68064-3.594495-6.396982-2.802488-11.453644 0.487389-2.924335 1.827709-5.056662 3.594495-6.518829 1.462167-1.34032 3.3508-2.01048 5.178509-2.132327 1.888633-0.121847 3.899113 0.243695 5.726822 1.218473 2.802487 1.462167 5.300357 4.142807 6.945295 8.163767 0.243695 0.67016 0 1.462167-0.67016 1.705862-0.67016 0.304618-1.462167-0.121847-1.766786-0.792007-1.34032-3.3508-3.472647-5.604975-5.726822-6.640677-1.462167-0.792007-2.924335-1.035702-4.264654-1.035702-1.462167 0.121847-2.68064 0.67016-3.716342 1.584015-1.34032 1.096625-2.376022 2.802487-2.802488 4.934815-0.67016 4.264655 0.243695 7.188989 2.254175 9.321316 10.417942 11.209949 27.598408-0.792007 28.938728-14.134284 11.209949-5.726822 11.331797-24.917768 0-31.98491zM895.592772 345.254257l0.182771-0.304618-0.182771-0.121848s-0.67016-0.548313-0.913855-0.792007c-3.838189 5.178509-8.773004 8.407462-13.220429 10.417942 1.34032 1.584015 2.558793 3.046182 3.716342 4.508349 4.569273-3.716342 7.859149-8.529309 10.357018-13.707818zM905.340554 298.769521c-1.34032-0.121847-2.68064-0.121847-4.142807 0a52.028787 52.028787 0 0 1 7.737302 19.373717c0.426465-2.558793 0.67016-5.056662 0.548312-7.737302-0.121847-3.472647-0.913855-7.188989-2.254174-11.331797-0.67016-0.121847-1.218473-0.121847-1.888633-0.243694zM913.016932 322.225122c0.792007-1.096625 1.584015-2.132327 2.254175-3.3508 2.68064-4.142807 4.508349-8.773004 5.36128-14.682597-1.766786-1.035702-3.472647-2.01048-5.36128-2.802488-1.34032-0.67016-2.802487-1.157549-4.264655-1.584014-0.365542-0.121847-0.67016-0.121847-0.913854-0.243695 1.218473 3.838189 1.705862 7.310837 1.888633 10.661637 0.243695 3.594495-0.121847 6.945295-0.792008 10.417942 0.548313 0.548313 1.218473 1.035702 1.888633 1.584015zM927.455835 358.352839c-0.67016 0.67016-1.34032 1.34032-1.766786 2.132327-0.243695 0.792007-0.548313 1.584015-0.426465 2.558793 0 1.584015 0.67016 3.3508 2.01048 4.934815 0.913855 1.218473 2.01048 2.01048 3.046182 2.558793 0.67016 0.426465 1.462167 0.548313 2.132327 0.67016h1.34032c1.218473-0.121847 2.436946-0.67016 3.472647-1.584015 1.218473-0.913855 2.376022-2.376022 3.350801-4.386502-0.913855-1.218473-1.888633-2.558793-2.924335-3.716342-1.34032-1.584015-2.68064-3.3508-3.594495-5.300356-0.548313 0.121847-1.035702 0.121847-1.584014 0.243694-2.132327 0.304618-3.899113 0.913855-5.056662 2.01048z m5.056662 5.36128c-0.365542 0.365542-1.096625 0.792007-1.705862 0.792007-1.218473 0-2.132327-1.035702-2.132328-2.254174s0.913855-2.132327 2.132328-2.132327c0.67016 0 1.34032 0.243695 1.705862 0.792007 0.243695 0.243695 0.548313 0.792007 0.548312 1.34032s-0.243695 1.096625-0.548312 1.462167zM908.386736 357.804526c1.888633 0.792007 3.716342 1.888633 5.422204 2.924335-1.34032-3.716342-3.716342-7.067142-6.762524-10.113324-0.548313-0.243695-1.218473-0.426465-1.705862-0.67016-1.218473-0.426465-2.436946-0.792007-3.472647-1.34032 0 2.436946-0.426465 4.69112-1.218473 6.823447 1.584015 0.304618 3.228953 0.67016 4.69112 1.218473 1.035702 0.365542 1.949556 0.792007 3.046182 1.218473z" fill="#C09968" p-id="14773"></path><path d="M1005.377168 310.771478H1005.255321c-2.254175 0.243695-4.386502 0.548313-6.640677 0.792007-1.888633 0.243695-3.716342 0.67016-5.483127 0.913855-1.035702 0.304618-2.132327 0.548313-3.16803 0.67016-7.188989 1.462167-14.256131 3.472647-21.079578 5.848669-0.121847 0-0.67016 0.121847-0.792008 0-2.254175-0.67016-4.508349-1.035702-6.640676-1.218473-1.462167-0.121847-2.802487-0.121847-4.142808-0.121847-0.548313 0.121847-1.218473 0.121847-1.766785 0.304618-9.443164 1.34032-15.840146 7.980997-19.312793 17.180466-2.254175 5.970517-2.68064 10.783484-1.705862 14.682597 0.792007 3.838189 2.802487 7.067142 5.178509 9.869629 2.01048 2.254175 3.716342 4.69112 5.36128 7.067142 1.584015 2.376022 3.046182 4.812967 4.386502 7.188989 0.426465 0.67016 0.121847 1.462167-0.365542 1.766786-0.67016 0.426465-1.462167 0.243695-1.888633-0.426466-1.34032-2.376022-2.802487-4.812967-4.386501-7.067142-0.121847-0.243695-0.304618-0.426465-0.426466-0.67016-1.096625 1.705862-2.132327 3.046182-3.3508 4.02096-1.584015 1.34032-3.168029 2.01048-4.934815 2.254175h-1.584014c-1.218473-0.121847-2.254175-0.426465-3.3508-1.035702-1.34032-0.67016-2.68064-1.705862-3.899113-3.046182-1.705862-2.132327-2.68064-4.386502-2.68064-6.518829 0-1.34032 0.243695-2.558793 0.792007-3.716342 0.548313-1.218473 1.34032-2.254175 2.436945-3.046182 1.584015-1.34032 3.838189-2.376022 6.640677-2.619716 0.121847 0 0.243695-0.121847 0.426466-0.121847-0.121847-0.243695-0.304618-0.67016-0.426466-0.913855-0.243695-0.792007-0.365542-1.462167-0.67016-2.254175-0.548313-2.802487-0.67016-6.03144 0-9.625934-0.121847 0-0.121847-0.121847-0.243695-0.243695a14.865368 14.865368 0 0 0-3.838189-3.3508c-0.913855-0.426465-2.01048-0.792007-3.107105-1.096626 1.462167 3.594495 0.913855 7.615455-0.548313 10.905332V347.264737c-0.243695 0.67016-0.913855 0.913855-1.705862 0.67016-0.67016-0.243695-0.913855-0.974778-0.67016-1.584015v-0.121847c3.168029-7.859149-0.121847-12.001957-6.396982-14.804444 1.584015 3.472647 1.888633 7.737302 0.792007 11.331797v0.121847c-0.121847 0.426465-0.426465 0.67016-0.792007 0.792007-0.243695 0.121847-0.548313 0.121847-0.792007 0-0.67016-0.121847-1.096625-0.913855-0.913855-1.584014 1.218473-4.142807 0.548313-9.747782-2.802487-12.672117 0 0.67016-0.243695 1.34032-0.365542 1.888633-0.913855 2.132327-2.924335 3.472647-5.056662 3.716342-2.01048 0.121847-4.02096-0.426465-5.604975-2.01048a1.291581 1.291581 0 0 1 0-1.888633c0.548313-0.548313 1.34032-0.548313 1.888633 0 1.035702 1.035702 2.376022 1.462167 3.716342 1.218473 1.035702-0.304618 2.132327-0.913855 2.68064-2.132328 1.035702-2.558793-0.426465-5.056662-2.68064-5.970516a4.764228 4.764228 0 0 0-2.924335-0.121848c-1.584015 0.548313-3.228953 1.888633-4.386501 4.020961-0.913855 0.548313-1.766786 1.218473-2.436946 1.888632-3.168029 3.472647-2.68064 8.224691-0.243695 11.331797 0.121847 0.121847 0.243695 0.121847 0.243695 0.243695 1.766786 1.584015 3.594495 2.924335 5.604975 4.02096 1.34032 0.67016 2.68064 1.34032 4.142807 1.888632 0.913855 0.304618 1.888633 0.548313 2.802487 0.792008 0.121847 0 0.548313 0.304618 0.548313 0.426465 2.924335 2.802487 5.056662 5.848669 6.640677 9.077622 0.974778 1.888633 1.766786 3.838189 2.254174 5.84867 0.243695 1.035702-1.035702 2.01048-2.01048 1.462167l-0.243694-0.121847c-2.68064-1.705862-5.300357-3.3508-7.980997-4.50835-0.67016-0.243695-1.34032-0.548313-1.949556-0.792007-0.913855-0.426465-2.01048-0.67016-2.924335-0.913855 0.67016 2.01048 1.705862 3.838189 2.924335 5.300357 2.376022 3.228953 5.848669 5.36128 9.991476 6.640677 1.888633 0.548313 3.899113 1.096625 6.031441 1.34032 3.3508 6.153287 7.067142 9.869629 11.209949 11.880109 5.178509 2.68064 10.905331 2.68064 16.936771 2.132327 1.462167 5.178509 4.264655 9.625935 7.85915 13.342277 2.132327 2.132327 4.508349 4.142807 7.067142 5.848669 3.716342 2.558793 7.737302 4.386502 12.245651 5.483128 3.472647 0.792007 6.640677 1.888633 9.565011 3.3508 2.132327 1.035702 4.264655 2.376022 6.396982 3.838189 0.121847-1.34032 0.304618-2.68064 0.548313-3.838189 0-0.426465 0-0.67016 0.121847-0.913855 0.426465-3.3508 0.913855-6.640677 0.792007-9.991476v-0.121848c0-1.705862-0.121847-3.472647-0.365541-4.934814-0.243695-0.913855-0.426465-1.705862-0.548313-2.376022-0.243695-0.792007-0.426465-1.462167-0.67016-2.132328-2.558793-7.067142-7.737302-12.123804-14.804444-15.41368-0.67016-0.243695-0.913855-1.035702-0.67016-1.705862 0.304618-0.67016 1.035702-0.913855 1.705862-0.67016 6.275135 2.924335 11.209949 7.188989 14.377978 12.915811 0.67016 1.34032 1.34032 2.68064 1.705862 4.142808 0.67016 1.462167 1.096625 3.228953 1.34032 4.812967 0.243695 1.705862 0.487389 3.472647 0.487389 5.300357v0.121847c0.121847 3.594495-0.365542 7.067142-0.913854 10.539789-0.304618 1.705862-0.548313 3.472647-0.67016 5.17851 1.218473-0.365542 2.254175-0.67016 3.472647-0.913855 2.254175-0.426465 4.386502-0.426465 6.640677-0.121847 2.376022 0.243695 4.630196 0.913855 7.067142 2.132327 1.34032 0.792007 2.802487 1.705862 4.02096 2.802487 0.548313 0.426465 1.096625 0.913855 1.584014 1.462168 0.67016 0.67016 1.34032 1.34032 1.888633 2.132327 7.310837 0.548313 13.707819 2.558793 18.398939 6.396982 4.630196 3.960036 7.493607 9.869629 8.102844 18.398939 1.462167 0.365542 2.802487 0.913855 3.716341 1.584014 7.067142-14.377979 10.235171-29.426117 2.924335-46.362888 5.604975-15.291833 1.34032-30.522743-9.565011-43.19486-3.046182-9.991477-8.102844-18.520786-16.510306-24.552226-3.838189-2.802487-6.518829-3.838189-8.894851-3.838189-3.3508-0.121847-6.396982 1.34032-12.123804 2.01048h-0.548313c-1.462167 0.121847-2.802487 0.121847-4.264655 0.121847 0.67016 0.426465 1.462167 0.792007 2.132328 1.218473 0.67016 0.365542 1.34032 0.792007 2.132327 1.218473 1.584015 1.218473 3.3508 2.376022 4.812968 3.838189 0.548313 0.548313 0.548313 1.34032 0.121847 1.827709-0.548313 0.548313-1.34032 0.548313-1.888633 0.182771-1.035702-1.096625-2.01048-1.888633-3.046182-2.68064-1.218473-0.792007-2.254175-1.462167-3.472647-2.132327-1.096625-0.67016-2.132327-1.218473-3.228953-1.766786-1.888633-0.792007-3.594495-1.462167-5.483127-2.01048-1.705862-0.548313-3.594495-0.913855-5.726822-1.34032-0.67016-0.121847-1.035702-0.913855-0.913855-1.584014 0.121847-0.67016 0.792007-1.035702 1.584015-0.913855 1.766786 0.426465 3.3508 0.67016 5.056662 0.913855 1.827709 0.243695 3.716342 0.365542 5.483127 0.548312 2.254175 0.121847 4.508349 0.121847 6.640677-0.121847h0.243694c4.630196-0.365542 8.529309-1.462167 12.245651-3.594495 0-0.121847 0.121847-0.121847 0.121848-0.121847 3.3508-2.01048 5.483127-5.483127 9.625934-7.37176-4.02096-2.254175-6.7016-5.300357-9.625934-7.737302-3.228953-2.802487-6.7016-4.812967-12.55027-4.142807z m15.596451 72.742824s0.426465-0.548313 0.548313-0.792008c4.264655-7.067142 7.310837-15.352757 9.321316-24.552226 0.121847-0.67016 0.792007-1.218473 1.462168-1.096625 0.792007 0.304618 1.218473 0.913855 1.035702 1.584014-2.01048 9.443164-5.178509 17.972473-9.565012 25.344234-0.365542 0.548313-0.67016 1.035702-1.035701 1.462167 2.132327 2.497869 4.142807 5.178509 5.909593 7.980997 2.924335 4.508349 5.422204 9.565011 7.432683 14.926291 0.913855-1.34032 1.888633-2.68064 2.68064-4.142808 3.3508-5.604975 5.726822-11.697339 7.18899-18.155244 0.121847-0.67016 0.792007-1.218473 1.644938-0.913854 0.67016 0.121847 1.035702 0.792007 0.913855 1.462167-1.584015 6.762524-4.02096 13.037659-7.432684 18.886328-1.218473 2.01048-2.558793 4.02096-4.02096 5.848669 1.218473 3.472647 2.132327 7.067142 2.802487 10.783484 0.121847 0.792007-0.304618 1.462167-0.974778 1.584015a1.389059 1.389059 0 0 1-1.584015-1.096626c-0.548313-3.046182-1.34032-6.153287-2.254174-8.955775-2.376022 2.68064-5.178509 5.300357-8.285615 7.85915-0.67016 0.365542-1.462167 0.243695-1.888633-0.243695-0.548313-0.548313-0.365542-1.462167 0.243695-1.888633a57.694685 57.694685 0 0 0 8.955774-8.651156 73.35206 73.35206 0 0 0-12.793964-23.211906c-1.035702 1.462167-2.132327 2.924335-3.3508 4.264654-3.3508 4.02096-7.188989 7.432684-11.575491 10.53979-0.426465 0.243695-0.792007 0.243695-1.096625 0.243694-0.365542-0.121847-0.67016-0.243695-0.792008-0.548313-0.365542-0.67016-0.304618-1.462167 0.243695-1.888632 0.121847-0.121847 0.243695-0.121847 0.548313-0.304618 4.934815-3.472647 9.077622-7.554531 12.672116-12.245652 0.548313-0.67016 1.096625-1.462167 1.584015-2.132327-0.548313-0.548313-1.035702-1.096625-1.584015-1.705862-3.228953-3.472647-6.823447-6.518829-10.783484-9.504087-0.548313-0.365542-0.67016-1.218473-0.243694-1.82771 0.365542-0.548313 1.218473-0.67016 1.888633-0.304618 3.3508 2.436946 6.396982 5.056662 9.199469 7.85915 1.096625 1.035702 2.132327 2.132327 3.046182 3.168029z m-24.247608-38.747434c0.121847-0.67016 0.792007-1.218473 1.584015-1.096626 0.121847 0 0.243695 0.121847 0.243694 0.121848 2.01048 0.426465 3.899113 1.035702 5.726822 2.01048 0.243695 0.121847 0.548313 0.243695 0.913855 0.365541 1.584015 0.913855 3.228953 2.132327 4.812967 3.3508 0.548313 0.548313 0.67016 1.34032 0.121848 1.888633-0.426465 0.548313-1.34032 0.67016-1.888633 0.121848-1.035702-0.792007-2.01048-1.584015-3.046182-2.254175a8.651157 8.651157 0 0 0-2.132327-1.035702c-1.462167-0.792007-2.924335-1.34032-4.50835-1.766785-0.243695 0-0.548313-0.121847-0.792007-0.121848a1.279396 1.279396 0 0 1-1.035702-1.584014z m-0.365542 5.056662c0.243695-0.67016 1.035702-1.096625 1.705862-0.792008 0.121847 0.121847 0.426465 0.243695 0.548313 0.243695 2.558793 1.035702 4.69112 2.376022 6.640677 4.02096 0.792007 0.67016 1.584015 1.462167 2.376021 2.376022 0.426465 0.548313 0.426465 1.34032-0.121847 1.705862-0.548313 0.548313-1.34032 0.548313-1.888633 0-0.121847-0.304618-0.304618-0.426465-0.365541-0.548313-1.827709-2.01048-4.02096-3.472647-6.640677-4.69112a4.630196 4.630196 0 0 0-1.462167-0.67016c-0.792007-0.304618-1.035702-1.096625-0.792008-1.705862z m-1.218472 5.422203c0.243695-0.67016 1.096625-0.913855 1.705861-0.67016 0.548313 0.426465 1.218473 0.67016 1.705862 1.096626 1.218473 0.548313 2.254175 1.34032 3.3508 2.132327 1.218473 0.913855 2.254175 2.01048 3.350801 3.228953 0.121847 0.243695 0.365542 0.67016 0.67016 0.913855 0.426465 0.548313 0.304618 1.34032-0.304619 1.888632-0.121847 0-0.304618 0.121847-0.365541 0.121848-0.548313 0.121847-1.096625 0-1.462168-0.365542-1.035702-1.462167-2.254175-2.68064-3.594494-3.777266a4.471795 4.471795 0 0 0-1.584015-1.035702c-0.792007-0.67016-1.888633-1.218473-2.924335-1.705861-0.67016-0.243695-0.913855-1.035702-0.487389-1.766786z m-3.472648 7.067142c0.243695-0.548313 0.792007-0.792007 1.462168-0.792007 0 0 0.121847 0.121847 0.243694 0.121847 2.01048 0.792007 3.716342 1.888633 5.178509 3.046182 1.34032 1.096625 2.558793 2.254175 3.472648 3.594495 0.548313 0.548313 0.426465 1.34032-0.243695 1.766786-0.548313 0.487389-1.34032 0.365542-1.705862-0.121848-0.548313-0.67016-0.974778-1.035702-1.462167-1.584014-1.462167-1.584015-3.3508-2.924335-5.483127-4.02096-0.243695 0-0.548313-0.121847-0.67016-0.304619-0.67016-0.243695-1.096625-1.035702-0.792008-1.705862z m-1.766785 6.396982c0.426465-0.67016 1.096625-0.913855 1.766785-0.67016 0.548313 0.304618 0.913855 0.426465 1.462168 0.67016 1.34032 0.67016 2.497869 1.462167 3.594494 2.254175 0.67016 0.548313 1.34032 1.218473 1.888633 1.705862 0.67016 0.67016 1.218473 1.34032 1.766785 2.01048 0.365542 0.548313 0.365542 1.34032-0.243694 1.766786-0.426465 0.365542-0.974778 0.365542-1.462167 0.121847-0.121847-0.121847-0.243695-0.121847-0.243695-0.243695-0.913855-1.218473-2.01048-2.254175-3.168029-3.168029-0.67016-0.548313-1.34032-0.913855-2.01048-1.462167-0.792007-0.426465-1.584015-0.792007-2.558793-1.218473-0.67016-0.243695-0.913855-1.035702-0.67016-1.705862z m-2.558793 3.594495c1.888633 0.913855 3.3508 2.01048 4.812967 3.046182 0.243695 0.243695 0.548313 0.548313 0.913855 0.67016 1.035702 0.913855 2.01048 2.01048 2.924335 3.046182 0.365542 0.548313 0.304618 1.34032-0.243695 1.888633-0.548313 0.426465-1.34032 0.243695-1.888633-0.243695-0.243695-0.243695-0.548313-0.67016-0.792007-1.035702-0.792007-0.792007-1.584015-1.462167-2.558793-2.254174-1.34032-0.913855-2.802487-1.888633-4.264655-2.68064-0.67016-0.426465-0.913855-1.035702-0.67016-1.705862 0.365542-0.67016 1.218473-0.913855 1.705862-0.67016zM342.710757 396.673807v26.928248H265.39866V485.561395H222.386572c0.426465-11.088102 2.132327-21.749739 5.36128-31.436597 12.367499-6.396982 11.453644-21.079579-2.68064-22.419899 2.802487-15.291833-10.113324-17.606931-25.161463-17.972473-11.331797 32.65507-14.926291 64.63998-15.169986 96.076577v11.697339h76.337319v32.228604H185.649618c35.457557 202.022784 159.25439 291.275914 337.516955 310.649631v-100.584927h33.32523v100.584927c178.445336-19.312793 302.120321-108.565923 337.638802-310.649631h-75.423464V521.506342h76.337318v-11.697339c-0.243695-31.436597-4.02096-63.421507-15.352757-96.076577-15.048139 0.365542-27.842103 2.68064-25.161462 17.972473-14.134284 1.34032-15.048139 15.961993-2.68064 22.419899 3.3508 9.747782 5.056662 20.409419 5.483127 31.436597h-43.194859V423.602055h-77.312097v-26.928248h136.590797c-50.140154-119.410331-140.489909-199.768609-289.326357-223.467904-6.396982-1.035702-9.747782-2.132327-10.296095 5.604975-0.365542 6.823447 0 15.352757 12.123804 20.287571-3.899113 15.474604 9.321317 19.982953 24.247608 16.083841 100.889545 26.562706 162.178724 81.576751 201.230776 152.73556H562.584166v-30.522742h191.604842c7.310837 0 9.077622 1.035702 7.432684-7.310837-2.01048-10.113324-10.113324-17.302313-24.003913-12.428422-2.68064-16.814924-20.287571-21.566968-31.436598-9.077622H561.609388v-28.63411h108.200381c9.869629 0 14.012437 1.462167 10.417943-10.417942-3.472647-11.088102-14.74352-17.180466-32.411376-16.632153-5.726822-16.388459-27.29379-19.069099-34.117237-2.680641h-54.770351V205.31266c8.346538-10.661637 5.604975-23.150982-8.529309-25.587928 0.548313-7.067142-5.178509-10.539789-10.783484-10.539789s-11.331797 3.472647-10.783484 10.539789c-13.951513 2.436946-16.936771 14.926291-8.407462 25.587928v44.900721h-54.892198c-6.640677-16.388459-28.390415-13.707819-34.117237 2.680641-17.485084-0.548313-28.938728 5.604975-32.228605 16.632153-3.716342 11.880109 0.548313 10.417942 10.235171 10.417942h108.322229v28.63411H373.050728c-11.088102-12.489346-28.63411-7.737302-31.436597 9.077622-13.829666-4.934815-21.993433 2.254175-23.821142 12.428422-1.584015 8.407462 0.121847 7.310837 7.493607 7.310837h191.604842v30.522742H268.0793c39.173899-71.158809 100.463079-126.172854 201.352624-152.73556 14.804444 3.899113 27.96395-0.67016 24.125761-16.083841 12.123804-4.934815 12.672117-13.464124 12.123803-20.287571-0.426465-7.737302-3.838189-6.640677-10.235171-5.604975-148.836448 23.760219-239.064356 104.057574-289.20451 223.467904h136.46895zM539.798726 524.065135h91.141762v31.558444H448.656963v-31.558444H539.798726zM376.035987 396.55196h140.977298v31.558445H411.92001v26.928248h104.179421V487.389104H410.945231v103.935727h257.706989V487.389104H563.498021v-32.350451h104.240345v-26.928248H562.584166v-31.558445h141.099146v60.253478h72.742824v30.522743H703.683312v111.246563c10.417942 1.766786 21.566968-1.705862 23.333754-14.377979 14.804444 2.254175 20.348495-11.209949 9.869629-21.44512v-41.306227h40.514219v69.148329h70.854191c-35.579405 129.95012-126.964862 201.352624-256.914981 232.545527v-169.733256h163.519044c-22.237128 39.600365-56.780831 67.686162-99.671072 88.095581v-29.608888c8.955775 0 15.840146-3.594495 18.886328-15.291834 12.245651 1.096625 18.033397-3.838189 17.058619-16.144764h-70.123108v109.540702c89.801442-28.938728 155.111582-83.038919 190.447293-168.027394H556.430879v103.387414h-33.447077v-103.387414H268.201147c35.152939 84.988475 100.584926 139.149589 190.447293 168.027394v-109.540702H388.525333c-1.035702 12.245651 4.812967 17.180466 17.058618 16.144764 2.924335 11.758262 9.991477 15.291833 18.947252 15.291834v29.608888c-42.890241-20.409419-77.433944-48.495216-99.79292-88.095581h163.519045v169.733256c-129.767349-31.192903-221.335577-102.595406-256.914982-232.545527h71.036962V521.445418h40.392372v41.306227c-10.417942 10.235171-4.812967 23.699295 9.86963 21.44512 1.705862 12.672117 12.915811 16.144764 23.4556 14.377979V487.328181H303.354087v-30.522743h72.742823v-60.253478zM52.71424 619.654323c2.558793-3.594495 3.899113-7.859149 4.142807-12.55027-1.34032 0.426465-2.802487 0.548313-4.142807 0.67016h-0.121848c-1.584015 0-3.046182 0-4.630196-0.121847-5.36128 7.067142-12.245651 10.539789-22.358975 6.945295 2.924335-6.396982 5.604975-14.256131-2.376022-16.936772-7.067142-2.254175-13.829666 3.960036-11.20995 16.083841 2.924335 13.464124 13.037659 18.764481 23.333754 16.632153 8.102844-1.766786 14.012437-5.604975 17.42416-10.783484z" fill="#C09968" p-id="14774"></path><path d="M37.422406 551.724466c2.01048-2.132327 2.802487-5.056662 2.132328-9.321316-0.426465-2.132327-1.34032-3.838189-2.68064-4.934815-1.035702-0.913855-2.376022-1.462167-3.716342-1.584015-1.462167 0-2.924335 0.243695-4.386502 1.035702-2.254175 1.096625-4.264655 3.3508-5.726822 6.640677-0.243695 0.67016-1.035702 1.096625-1.705862 0.792007-0.67016-0.243695-0.913855-1.035702-0.67016-1.705862 1.705862-4.02096 4.264655-6.640677 6.945295-8.163767 1.888633-0.913855 3.838189-1.34032 5.726822-1.218473 2.01048 0.121847 3.716342 0.792007 5.36128 2.132327 1.705862 1.462167 3.046182 3.594495 3.594494 6.518829 0.792007 5.056662-0.426465 8.773004-2.924334 11.453644-0.121847 0.243695-0.304618 0.426465-0.426466 0.548313 5.483127-0.426465 10.661637 0.67016 13.829666 3.594495 0.913855 0.792007 1.705862 1.705862 2.436946 2.802487 0.792007 1.462167 1.462167 2.924335 1.705862 4.386502 0.67016 2.68064 0.67016 5.056662-0.121848 7.067142-0.792007 1.888633-2.132327 3.472647-4.02096 4.508349-0.121847 0.121847-0.365542 0.243695-0.67016 0.426466-0.913855 0.548313-2.01048 0.913855-3.168029 1.218473-2.132327 0.548313-4.142807 0.548313-5.726822 0-1.34032-0.365542-2.376022-1.218473-3.3508-2.132328-0.792007-0.974778-1.462167-2.254175-1.888633-3.594494-0.548313-2.376022-0.365542-5.300357 0.548313-8.52931 0.243695-0.67016 1.096625-1.035702 1.705862-0.792007 0.67016 0.243695 1.096625 0.913855 0.792007 1.705862-0.792007 2.68064-1.035702 5.056662-0.548313 6.945295 0.243695 1.096625 0.67016 1.888633 1.34032 2.558792 0.548313 0.67016 1.218473 1.096625 2.132328 1.34032 1.218473 0.426465 2.68064 0.548313 4.264654 0 1.035702-0.243695 1.888633-0.548313 2.68064-0.913854 0.792007-0.426465 1.34032-0.913855 1.82771-1.462167 0.67016-0.548313 1.218473-1.34032 1.462167-2.132328 0.67016-1.584015 0.67016-3.3508 0.121847-5.483127-0.243695-1.218473-0.792007-2.558793-1.462167-3.838189l-0.182771-0.121848c-2.376022-4.142807-8.529309-5.483127-15.048139-4.812967-20.226648 2.132327-23.821142 34.239085-1.584014 37.468037 1.827709 9.869629 9.199469 11.575491 16.632153 10.783484 3.3508-0.365542 6.518829-1.157549 9.443164-2.132327 1.035702 3.472647 2.132327 6.762524 3.3508 9.991477 2.01048 5.36128 4.142807 10.417942 6.518829 15.169985 1.705862 3.3508 3.594495 6.518829 5.604975 9.565012 9.199469 14.012437 21.079579 23.333753 35.701252 26.623629 2.132327 0.365542 4.386502 0.792007 6.640676 1.096626 6.518829 0.548313 12.793964 0.121847 18.277092-1.705862 10.905331-3.594495 18.277091-13.098582 16.936771-30.64459-0.792007-8.529309-7.067142-16.266611-15.474604-11.453644-0.548313 0.243695-1.035702 0.67016-1.462167 0.913855-4.934815 3.716342-4.142807 9.321317 0 12.793964 1.34032 1.34032 3.228953 2.254175 5.300356 2.802487-0.67016 4.142807-2.68064 7.432684-5.300356 9.869629-6.03144 5.178509-15.474604 6.275135-24.917768 2.802488-3.838189-1.462167-7.859149-3.716342-11.453644-6.823448-16.510306-14.256131-17.850626-32.106757-17.606932-51.297703 0.121847-11.453644 2.436946-27.720255 5.726822-38.503739 2.254175-7.493607 5.726822-14.682597 9.991477-21.566968 4.386502-7.067142 8.955775-14.134284 13.342277-20.957732 3.168029-4.934815 6.396982-9.869629 9.565011-14.682596 2.376022-3.594495 4.812967-7.310837 4.934815-7.432684 4.02096-6.153287 6.945295-12.123804 8.285614-18.155244 0.913855-4.386502 0.913855-8.773004-0.121847-13.159506-2.68064 12.001957-8.224691 21.566968-15.596451 29.547964-2.132327 2.436946-4.569273 4.569273-7.067142 6.701601-6.945295 5.848669-14.926291 10.783484-23.455601 15.169985-1.218473 0.548313-2.558793-1.34032-1.584014-2.132327 9.443164-9.199469 17.972473-18.520786 24.12576-28.512263 0.243695-0.548313 0.67016-1.096625 0.913855-1.584014 3.594495-6.153287 6.275135-12.367499 7.737302-19.069099-2.132327 4.386502-4.69112 8.407462-7.737302 11.88011-2.254175 2.68064-4.812967 5.056662-7.615455 7.310836-7.737302 6.275135-17.302313 10.783484-28.085797 14.012437-1.705862 0.548313-3.3508 1.035702-5.056662 1.462167h-0.548313c-0.913855-0.121847-1.462167-1.888633-0.548313-2.376022 0.243695-0.121847 0.365542-0.121847 0.548313-0.304618 1.888633-1.035702 3.716342-2.132327 5.604975-3.228953 9.321317-5.726822 17.485084-12.123804 23.333753-19.739258 5.726822-7.554531 9.199469-16.510306 9.19947-27.29379-0.67016 1.584015-1.462167 3.046182-2.254175 4.386502-4.934815 8.102844-12.489346 13.159506-22.785441 15.169986-1.34032 0.121847-2.132327-1.584015-1.035701-2.376022 8.651157-6.640677 14.377979-14.012437 17.302313-21.871586 2.802487-7.615455 2.802487-15.718299 0.121847-24.674074-2.132327 1.035702-4.386502 1.888633-6.762524 2.376022-3.3508 0.67016-6.275135 1.705862-8.955775 3.046182-2.376022 1.218473-4.508349 2.558793-6.518829 4.02096l1.157549 0.792007c3.594495 2.254175 6.275135 6.762524 7.18899 11.331797 0.243695 1.705862 0.243695 3.3508 0.121847 4.934815-0.243695 1.584015-0.792007 3.168029-1.705862 4.508349-1.462167 2.376022-4.02096 4.142807-7.859149 4.812967-0.121847 0.121847-0.365542 0.121847-0.548313 0.121848-2.01048 0.243695-3.838189 0.121847-5.604975-0.426466a5.318634 5.318634 0 0 1-2.132327-0.792007c-1.705862-0.792007-3.228953-1.888633-4.386502-3.3508-0.304618-0.365542-0.67016-0.792007-0.974778-1.218473-1.218473-1.888633-1.888633-4.264655-1.705862-6.640677 0.121847-2.132327 0.913855-4.386502 2.68064-6.518829 0.121847-0.121847 0.121847-0.243695 0.243694-0.365542 0.548313-0.67016 1.34032-0.67016 1.888633-0.243694 0.548313 0.548313 0.67016 1.34032 0.243695 1.888633-1.462167 1.705862-2.254175 3.594495-2.376022 5.300356v1.584015c0.121847 1.34032 0.548313 2.497869 1.34032 3.716342 0.913855 1.462167 2.376022 2.68064 4.142807 3.472647a4.264655 4.264655 0 0 0 1.035702 0.548313c1.705862 0.548313 3.594495 0.792007 5.604975 0.365542h0.121847c2.924335-0.548313 4.934815-1.888633 6.153288-3.716342 0.67016-1.035702 1.035702-2.132327 1.218472-3.472648 0.121847-1.34032 0.121847-2.68064-0.121847-4.02096-0.67016-3.838189-2.924335-7.737302-5.970516-9.747782-0.426465-0.243695-0.913855-0.548313-1.34032-0.792007a21.140502 21.140502 0 0 0-5.604975-2.01048c-2.132327-0.426465-4.386502-0.548313-6.518829-0.121848-2.01048 0.243695-4.02096 0.792007-5.84867 1.888633-1.218473 0.548313-2.558793 1.34032-3.594494 2.376022-1.218473 0.913855-2.254175 2.132327-3.3508 3.472647 0 0 0 0.121847-0.121848 0.121848-0.121847 0.121847-0.67016 0.548313-0.913854 0.548312-7.067142 0.548313-13.037659 2.254175-17.424161 5.84867-4.142807 3.594495-6.762524 9.199469-7.188989 17.485084 0 0.548313-0.548313 1.218473-1.035702 1.218473-7.432684 1.584015-6.945295 6.945295-5.970516 13.890589 1.462167 12.245651 12.245651 20.409419 24.369455 18.520786 3.594495-0.548313 6.518829-1.827709 8.407462-4.02096 0.304618-0.243695 0.426465-0.548313 0.67016-0.792007 0.243695-0.426465 0.548313-0.913855 0.792007-1.462168 1.705862-4.142807 0.913855-7.980997-0.913854-10.661636-0.121847-0.121847-0.365542-0.426465-0.548313-0.548313a10.357018 10.357018 0 0 0-2.68064-2.254175c-1.218473-0.67016-2.558793-1.096625-3.899113-1.096625-2.802487 0-5.604975 1.462167-7.615455 4.812967-0.426465 0.67016-1.218473 0.792007-1.888633 0.426466-0.548313-0.426465-0.792007-1.218473-0.365541-1.705862 2.68064-4.264655 6.275135-6.153287 9.869629-5.970517 1.766786 0 3.472647 0.426465 5.056662 1.34032 0.548313 0.243695 1.035702 0.548313 1.462167 0.913855 1.096625 0.67016 1.888633 1.584015 2.68064 2.68064 2.376022 3.3508 3.3508 7.980997 1.218473 13.159506-0.304618 0.67016-0.67016 1.34032-1.035702 2.01048-0.792007 0.913855-1.766786 1.888633-2.802487 2.68064-2.132327 1.584015-4.934815 2.68064-7.980997 3.046182-1.705862 0.243695-3.472647 0.365542-5.483127 0.243694 0.365542 0.243695 0.67016 0.67016 1.035702 0.913855 1.888633 2.01048 3.3508 4.264655 4.142807 6.518829 0.792007 2.376022 0.913855 4.934815 0.121847 7.493608-0.67016 2.132327-2.01048 4.264655-4.142807 6.396982-3.594495 3.472647-7.737302 3.594495-11.209949 2.01048-2.01048-0.913855-3.716342-2.376022-4.812968-4.264655-1.218473-1.888633-1.888633-4.02096-1.584014-5.970516 0.426465-2.924335 2.376022-5.604975 6.823447-6.945295 0.67016-0.121847 1.462167 0.243695 1.705862 0.913854 0.121847 0.67016-0.243695 1.462167-0.974778 1.584015-3.168029 0.974778-4.630196 2.802487-4.934815 4.69112-0.304618 1.462167 0.243695 2.924335 1.035702 4.264655 0.913855 1.462167 2.254175 2.68064 3.838189 3.3508 2.436946 1.218473 5.483127 1.035702 8.285615-1.462167 1.705862-1.705862 2.802487-3.594495 3.472647-5.300357 0.548313-1.827709 0.426465-3.838189-0.243694-5.726822-0.67016-2.01048-1.888633-3.899113-3.472648-5.604975-12.123804-12.489346-30.64459-5.056662-30.096277 14.682597-11.209949 7.067142-11.088102 26.258088 0 31.98491 1.34032 13.342277 18.520786 25.344233 29.060575 14.134284zM160.670926 299.561528s-0.67016 0.121847-0.913854 0.243695c-1.462167 0.426465-2.924335 0.913855-4.386502 1.584014-1.888633 0.792007-3.594495 1.705862-5.36128 2.802488 0.913855 5.848669 2.802487 10.539789 5.36128 14.682597 0.67016 1.218473 1.462167 2.254175 2.254174 3.3508 0.67016-0.548313 1.34032-1.096625 2.01048-1.584015-0.67016-3.472647-1.096625-6.823447-0.913854-10.417942 0.121847-3.3508 0.792007-6.823447 2.01048-10.661637z" fill="#C09968" p-id="14775"></path><path d="M138.311951 436.822485c-0.792007-0.913855-1.584015-1.888633-2.558793-2.68064-9.565011-8.651157-17.728779-19.069099-19.982953-33.873543-0.67016 0.792007-1.584015 1.584015-2.376022 2.436946-1.705862 1.584015-3.594495 3.046182-5.483127 4.386501-1.34032 0.974778-2.68064 1.644938-4.02096 2.436946 2.924335 9.443164 2.924335 18.398939-0.121848 26.62363-2.376022 6.762524-6.945295 13.220429-13.585971 19.190946 6.762524-2.376022 11.880109-6.518829 15.474604-12.367499 0.913855-1.462167 1.705862-2.924335 2.376022-4.630196 0.67016-1.584015 1.34032-3.472647 1.888633-5.36128 0.426465-1.218473 2.436946-1.035702 2.558793 0.121847 1.705862 14.499826-2.132327 26.136241-9.443164 35.701252-5.36128 7.067142-12.428422 12.915811-20.653114 18.277091 8.224691-2.924335 15.596451-6.762524 21.871586-11.697338 3.472647-2.802487 6.518829-6.03144 9.19947-9.443164 4.142807-5.483127 7.188989-11.758262 9.077622-19.190946 0.365542-1.218473 2.68064-0.913855 2.68064 0.426465-0.243695 11.880109-4.142807 22.785441-10.357019 33.081536-0.426465 0.67016-0.913855 1.34032-1.34032 2.01048-4.508349 7.188989-10.235171 14.012437-16.632153 20.531266 5.970517-3.472647 11.758262-7.432684 16.632153-11.88011 1.888633-1.584015 3.472647-3.3508 5.056662-5.056662 8.102844-8.651157 13.707819-19.190946 15.840146-32.898764 0.304618-1.218473 2.01048-1.462167 2.558793-0.426466 0.548313 1.34032 1.096625 2.558793 1.462167 3.716342 1.462167 5.178509 1.462167 10.417942 0.365542 15.596452-0.121847 0.67016-0.243695 1.34032-0.365542 1.888632-1.584015 5.726822-4.569273 11.453644-8.285614 17.180466-3.3508 5.056662-4.02096 6.153287-4.934815 7.493608-3.838189 5.970517-7.859149 12.001957-11.697339 17.972473-3.716342 5.848669-7.432684 11.758262-11.209949 17.424161-4.142807 6.762524-7.432684 13.707819-9.565011 21.079578-1.462167 4.508349-2.376022 9.077622-2.802488 13.707819 2.254175-5.604975 5.178509-10.905331 8.102844-15.840146 5.056662-8.651157 10.417942-16.936771 15.474604-24.491302 6.518829-9.565011 12.550269-18.155244 17.302314-24.674074 2.924335-4.02096 5.483127-8.285615 7.615454-12.793964 8.651157-19.069099 9.991477-41.732692 0-53.856496zM113.394183 589.923587c-1.705862 0.121847-3.472647 0.121847-5.36128-0.121847-2.558793-0.121847-4.934815-0.67016-7.615455-1.462167 3.3508 6.945295 8.163767 10.905331 12.915811 15.352756 4.142807 3.594495 8.224691 7.432684 11.331797 13.464124 3.838189-10.296095 1.218473-19.434641-7.859149-27.598408-1.096625 0.243695-2.254175 0.426465-3.472648 0.426466zM137.641791 571.159107c0.121847-0.913855 0.365542-1.888633 0.67016-2.802488 1.035702-5.36128 1.218473-9.991477 0-14.012436-1.584015-4.934815-4.934815-8.407462-10.783484-9.991477-5.300357-1.462167-13.342277-0.121847-12.550269 8.651157 0.548313 5.726822 6.275135 5.848669 12.245651 4.934814 0.243695 12.001957-6.275135 15.961993-13.829666 15.474604-6.153287-0.548313-12.915811-4.142807-17.302313-8.955774-1.035702 1.888633-2.254175 3.716342-3.168029 5.726822-1.218473 2.132327-2.132327 4.264655-2.924335 6.518829 4.508349 7.737302 14.134284 11.209949 23.455601 10.661636 10.966255-0.548313 21.566968-6.275135 24.247608-16.266611zM130.818344 323.687289c2.497869 2.924335 4.630196 6.518829 6.092363 10.539789 0.548313 1.218473 0.792007 2.376022 1.218473 3.472648l0.121847-0.121848c1.035702-1.218473 2.376022-2.132327 3.716342-2.802487 2.802487-1.34032 3.3508-1.584015 3.594495-4.934815 0.67016-5.604975-3.168029-9.747782-7.310837-10.113324-2.68064-0.243695-5.483127 0.913855-7.432683 3.960037z m10.661636 4.02096c0 1.218473-0.913855 2.132327-2.132327 2.132327-0.426465 0-0.792007-0.121847-1.035702-0.304618-0.67016-0.365542-1.218473-1.035702-1.218473-1.888633s0.548313-1.584015 1.218473-2.01048c0.243695-0.121847 0.67016-0.243695 1.035702-0.243694 1.218473 0 2.132327 1.096625 2.132327 2.254174zM163.595261 299.013216c-1.462167 4.142807-2.132327 7.859149-2.254175 11.331796-0.121847 2.68064 0 5.178509 0.365542 7.737302 0.913855-4.264655 2.132327-8.163767 3.716342-11.758262 1.096625-2.68064 2.376022-5.178509 4.02096-7.615455-1.34032-0.121847-2.68064-0.121847-4.02096 0-0.67016 0.121847-1.34032 0.121847-1.827709 0.243695z" fill="#C09968" p-id="14776"></path><path d="M20.607482 452.297089c1.035702-0.67016 2.254175-1.218473 3.899113-1.584015 0.548313-8.529309 3.472647-14.377979 8.102844-18.398938 4.630196-3.899113 10.905331-5.848669 18.277091-6.396982 0.67016-0.792007 1.34032-1.462167 1.82771-2.132328 0.548313-0.548313 1.096625-1.035702 1.584014-1.462167 1.34032-1.096625 2.68064-2.01048 4.142808-2.802487 2.254175-1.218473 4.69112-1.888633 7.067142-2.132328 2.132327-0.243695 4.386502-0.243695 6.518829 0.121848 1.218473 0.243695 2.376022 0.548313 3.594494 0.913854-0.243695-1.705862-0.548313-3.472647-0.67016-5.178509-0.548313-3.472647-1.035702-6.945295-0.913854-10.539789v-0.121848c0-1.888633 0.121847-3.594495 0.548313-5.300356 0.243695-1.584015 0.67016-3.3508 1.218472-4.812968 0.548313-1.462167 1.157549-2.802487 1.888633-4.142807 3.046182-5.726822 7.980997-9.991477 14.256131-12.915811 0.67016-0.243695 1.462167 0 1.705862 0.67016 0.365542 0.67016 0.121847 1.462167-0.548312 1.705862-7.067142 3.3508-12.367499 8.407462-14.804444 15.41368-0.243695 0.67016-0.548313 1.34032-0.67016 2.132327-0.243695 0.67016-0.426465 1.462167-0.548313 2.376022-0.243695 1.462167-0.365542 3.228953-0.548313 4.934815v0.121847c0 3.3508 0.365542 6.640677 0.913855 9.991477 0 0.243695 0.121847 0.548313 0.121847 0.913854 0.121847 1.218473 0.365542 2.558793 0.548313 3.83819 2.01048-1.462167 4.142807-2.802487 6.396982-3.83819a44.535179 44.535179 0 0 1 9.443164-3.3508c4.508349-1.096625 8.651157-2.924335 12.428422-5.483127 2.558793-1.705862 4.812967-3.716342 6.945294-5.848669 3.716342-3.716342 6.518829-8.102844 7.980997-13.342277 6.03144 0.548313 11.758262 0.548313 16.936771-2.132327 4.02096-2.01048 7.859149-5.726822 11.027179-11.88011 2.132327-0.243695 4.142807-0.792007 6.03144-1.34032 4.264655-1.34032 7.615455-3.472647 10.113324-6.640676 1.218473-1.462167 2.132327-3.3508 2.924335-5.300357-1.035702 0.243695-2.01048 0.548313-2.924335 0.913855-0.792007 0.243695-1.462167 0.548313-2.01048 0.792007-2.802487 1.218473-5.300357 2.802487-8.102844 4.508349 0 0-0.121847 0-0.121847 0.121847-0.913855 0.548313-2.254175-0.426465-2.01048-1.462167 0.548313-2.01048 1.218473-4.02096 2.132327-5.848669 1.584015-3.168029 3.838189-6.275135 6.640677-9.077622 0.121847-0.121847 0.548313-0.426465 0.67016-0.426466 0.913855-0.243695 1.888633-0.487389 2.802487-0.792007 1.34032-0.548313 2.802487-1.218473 4.02096-1.888633 2.01048-1.096625 3.838189-2.436946 5.604975-4.02096 0.121847-0.121847 0.243695-0.121847 0.365542-0.243694 2.254175-3.046182 2.802487-7.859149-0.365542-11.331797a11.575491 11.575491 0 0 0-2.254175-1.888633c-1.218473-2.132327-2.802487-3.472647-4.386502-4.02096a5.818207 5.818207 0 0 0-2.924334 0.121847c-2.254175 0.913855-3.716342 3.472647-2.68064 5.970517 0.548313 1.218473 1.462167 1.888633 2.68064 2.132327 1.218473 0.243695 2.68064-0.121847 3.594494-1.218473 0.548313-0.548313 1.34032-0.548313 1.888633 0s0.548313 1.34032 0 1.888633c-1.462167 1.584015-3.594495 2.132327-5.483127 2.01048a6.275135 6.275135 0 0 1-5.056662-3.716342c-0.243695-0.548313-0.426465-1.218473-0.548313-1.888633-3.168029 2.924335-4.02096 8.529309-2.802487 12.672117 0.243695 0.67016-0.121847 1.462167-0.792008 1.584015-0.365542 0.121847-0.67016 0.121847-0.913854 0-0.426465-0.121847-0.67016-0.365542-0.67016-0.792008l-0.121848-0.121847c-0.913855-3.594495-0.792007-7.859149 0.792008-11.331796-6.275135 2.802487-9.443164 6.945295-6.396982 14.804444v0.121847c0.304618 0.67016 0 1.34032-0.67016 1.584014-0.67016 0.243695-1.462167 0-1.705862-0.67016v-0.121847c-1.34032-3.3508-2.01048-7.310837-0.548313-10.905331-1.035702 0.243695-2.01048 0.67016-2.924335 1.096625-1.462167 0.792007-2.802487 1.888633-4.02096 3.350801 0 0.121847-0.121847 0.243695-0.243694 0.243694 0.67016 3.594495 0.67016 6.823447 0 9.625935-0.121847 0.792007-0.426465 1.462167-0.548313 2.254174-0.121847 0.243695-0.304618 0.67016-0.365542 0.913855 0.121847 0 0.243695 0.121847 0.365542 0.121847 2.68064 0.243695 4.934815 1.34032 6.640677 2.619717 1.035702 0.792007 1.888633 1.888633 2.376021 3.046182 0.548313 1.218473 0.792007 2.376022 0.792008 3.716342-0.121847 2.132327-0.913855 4.386502-2.802488 6.518829-1.096625 1.34032-2.376022 2.376022-3.838189 3.046182-1.096625 0.67016-2.132327 0.913855-3.228953 1.035702h-1.705861c-1.584015-0.243695-3.3508-0.913855-4.812968-2.254175-1.218473-0.974778-2.376022-2.254175-3.472647-4.02096-0.121847 0.243695-0.304618 0.426465-0.365542 0.67016-1.462167 2.254175-2.924335 4.69112-4.386502 7.067142-0.243695 0.67016-1.035702 0.792007-1.705862 0.426465-0.67016-0.243695-0.792007-1.096625-0.548313-1.766785 1.34032-2.376022 2.802487-4.812967 4.50835-7.188989 1.584015-2.376022 3.289876-4.812967 5.178509-7.067142 2.376022-2.802487 4.386502-5.970517 5.36128-9.86963 0.792007-3.838189 0.548313-8.651157-1.705862-14.682597-3.594495-9.199469-9.869629-15.840146-19.312793-17.180465-0.67016-0.121847-1.218473-0.121847-1.888633-0.304619-1.34032 0-2.68064 0-4.142807 0.121848-2.132327 0.121847-4.264655 0.548313-6.640677 1.218472-0.121847 0.121847-0.67016 0-0.792007 0-6.823447-2.376022-13.768742-4.386502-20.896808-5.848669-1.096625-0.121847-2.132327-0.426465-3.228953-0.67016-1.888633-0.243695-3.716342-0.67016-5.604975-0.913854-2.132327-0.304618-4.386502-0.548313-6.518829-0.792008h-0.121847c-5.848669-0.67016-9.321317 1.34032-12.672117 4.142808-2.802487 2.376022-5.604975 5.483127-9.565011 7.737302 4.264655 1.888633 6.396982 5.36128 9.565011 7.37176l0.304618 0.121847c3.716342 2.132327 7.615455 3.228953 12.245652 3.594495h0.304618c2.132327 0.243695 4.264655 0.243695 6.518829 0.121847 1.888633-0.121847 3.716342-0.243695 5.604975-0.548313 1.584015-0.304618 3.3508-0.548313 5.056662-0.913854 0.67016-0.121847 1.34032 0.243695 1.462167 0.913854 0.243695 0.67016-0.304618 1.462167-0.913854 1.584015-2.132327 0.365542-3.899113 0.792007-5.604975 1.34032-1.888633 0.548313-3.716342 1.218473-5.604975 2.01048-1.035702 0.548313-2.01048 1.096625-3.228953 1.766785-1.096625 0.67016-2.254175 1.34032-3.3508 2.132328-1.096625 0.792007-2.132327 1.584015-3.107105 2.68064a1.401244 1.401244 0 0 1-1.827709-0.182771c-0.548313-0.487389-0.548313-1.279396 0-1.827709 1.584015-1.462167 3.228953-2.68064 4.934814-3.838189 0.67016-0.426465 1.34032-0.792007 2.01048-1.218473l2.254175-1.218473c-1.462167 0-2.924335 0-4.264655-0.121847h-0.548313c-5.848669-0.67016-8.894851-2.132327-12.245651-2.01048-2.376022 0-4.934815 1.035702-8.894851 3.838189-8.224691 6.03144-13.342277 14.499826-16.388459 24.552226-10.966255 12.672117-15.169986 27.842103-9.747782 43.19486-7.188989 16.936771-4.142807 31.98491 2.924335 46.362888z m64.335362-79.261653c0.365542 0.67016 0.121847 1.34032-0.548313 1.705862-1.584015 0.792007-3.046182 1.766786-4.264654 2.68064-0.913855 0.792007-1.705862 1.462167-2.558793 2.254174-0.243695 0.426465-0.67016 0.792007-0.913855 1.035702-0.426465 0.548313-1.218473 0.67016-1.888632 0.243695a1.407336 1.407336 0 0 1-0.121848-1.888633c0.792007-1.035702 1.888633-2.132327 2.924335-3.046182 0.243695-0.121847 0.548313-0.426465 0.792007-0.67016 1.462167-1.096625 3.046182-2.132327 4.812968-3.046182 0.67016-0.304618 1.462167 0 1.705861 0.67016z m-4.264655-4.264655c0.243695 0.67016 0 1.462167-0.67016 1.705862-0.792007 0.426465-1.584015 0.792007-2.376021 1.218473-0.67016 0.548313-1.34032 0.913855-2.010481 1.462167-1.218473 0.913855-2.254175 2.01048-3.168029 3.168029-0.182771 0.121847-0.304618 0.121847-0.426465 0.243695-0.426465 0.243695-1.035702 0.243695-1.462167-0.121847a1.34032 1.34032 0 0 1-0.304619-1.766786c0.548313-0.67016 1.035702-1.34032 1.705862-2.01048 0.67016-0.548313 1.34032-1.218473 2.01048-1.705862 1.035702-0.792007 2.254175-1.584015 3.594495-2.254175 0.365542-0.243695 0.913855-0.426465 1.34032-0.67016 0.67016-0.243695 1.462167 0 1.705862 0.67016z m-3.046181-7.188989c0.548313 0 1.035702 0.304618 1.34032 0.792007 0.304618 0.67016 0 1.462167-0.67016 1.705862-0.243695 0.121847-0.426465 0.304618-0.67016 0.304618-2.132327 1.035702-4.02096 2.376022-5.604975 4.02096-0.548313 0.548313-0.913855 0.913855-1.34032 1.584015-0.365542 0.548313-1.34032 0.67016-1.888633 0.121847a1.261119 1.261119 0 0 1-0.243695-1.766785c1.035702-1.34032 2.132327-2.558793 3.472648-3.594495 1.584015-1.157549 3.3508-2.254175 5.178509-3.046182 0.182771 0 0.304618-0.121847 0.426466-0.121847z m-2.010481-6.275135c0.243695 0.67016 0 1.462167-0.67016 1.766786-1.035702 0.548313-2.01048 1.035702-2.924334 1.705861-0.548313 0.243695-1.035702 0.67016-1.584015 1.035702-1.34032 1.096625-2.558793 2.254175-3.594494 3.777266-0.243695 0.365542-0.792007 0.548313-1.34032 0.365542-0.121847 0-0.426465-0.121847-0.548313-0.121848-0.548313-0.548313-0.67016-1.34032-0.121847-1.888632 0.121847-0.243695 0.365542-0.67016 0.67016-0.913855 0.913855-1.218473 2.132327-2.254175 3.3508-3.228953 0.913855-0.792007 2.01048-1.584015 3.228952-2.132327 0.548313-0.426465 1.218473-0.67016 1.888633-1.096626 0.67016-0.243695 1.462167 0 1.705862 0.67016z m-1.218472-5.422204c0.304618 0.67016-0.121847 1.462167-0.792008 1.705862-0.548313 0.121847-1.035702 0.426465-1.584014 0.67016-2.558793 1.218473-4.69112 2.68064-6.518829 4.69112-0.121847 0.121847-0.304618 0.243695-0.426466 0.548313-0.548313 0.548313-1.34032 0.548313-1.888633 0-0.548313-0.426465-0.67016-1.218473-0.121847-1.705862 0.67016-0.913855 1.462167-1.766786 2.376022-2.376022 1.827709-1.584015 4.142807-2.924335 6.518829-4.02096 0.243695 0 0.426465-0.121847 0.67016-0.243694 0.67016-0.304618 1.462167 0.121847 1.705862 0.792007z m-13.707819-0.304618c1.462167-1.218473 3.168029-2.376022 4.812968-3.3508 0.243695-0.121847 0.548313-0.243695 0.792007-0.365542 1.888633-0.913855 3.716342-1.584015 5.726822-2.01048 0.121847 0 0.243695-0.121847 0.426465-0.121847 0.67016-0.121847 1.34032 0.426465 1.462168 1.096625 0.243695 0.67016-0.304618 1.462167-0.974779 1.584015-0.365542 0-0.67016 0.121847-0.913854 0.121847-1.584015 0.365542-3.046182 0.913855-4.508349 1.766786-0.67016 0.243695-1.34032 0.67016-2.01048 1.035702-1.096625 0.67016-2.132327 1.462167-3.228953 2.254174-0.548313 0.548313-1.34032 0.426465-1.888633-0.121847a1.498721" fill="#C09968" p-id="14777"></path></svg>